<svg version="1.1" id="Layer_1" xmlns="http://www.w3.org/2000/svg" x="0" y="0" viewBox="0 0 111 92.2" xml:space="preserve">
  <style>
    .st0,.st1,.st2,.st3,.st4{opacity:.41;fill:#5ed1ba;enable-background:new}.st1,.st2,.st3,.st4{opacity:.5}.st2,.st3,.st4{opacity:.54}.st3,.st4{opacity:.15}.st4{opacity:.37}.st11,.st12,.st5,.st6,.st7,.st8,.st9{opacity:.59;fill:#5ed1ba;enable-background:new}.st11,.st12,.st6,.st7,.st8,.st9{opacity:.46}.st11,.st12,.st7,.st8,.st9{opacity:8.000000e-02}.st11,.st12,.st8,.st9{opacity:.2}.st11,.st12,.st9{opacity:6.000000e-02}.st11,.st12{opacity:.43}.st12{opacity:.39}.st14,.st15,.st17,.st18,.st19,.st20{opacity:.57;fill:#5ed1ba;enable-background:new}.st15,.st17,.st18,.st19,.st20{opacity:.45}.st17,.st18,.st19,.st20{opacity:.49}.st18,.st19,.st20{opacity:.4}.st19,.st20{opacity:.34}.st20{opacity:7.000000e-02}.st21,.st23,.st24,.st25,.st26,.st27{opacity:.55;fill:#5ed1ba;enable-background:new}.st23,.st24,.st25,.st26,.st27{opacity:.27}.st24,.st25,.st26,.st27{opacity:.38}.st25,.st26,.st27{opacity:.44}.st26,.st27{opacity:.1}.st27{opacity:.12}.st28,.st29,.st30,.st31,.st33,.st34{opacity:.53;fill:#5ed1ba;enable-background:new}.st29,.st30,.st31,.st33,.st34{opacity:.35}.st30,.st31,.st33,.st34{opacity:.36}.st31,.st33,.st34{opacity:.22}.st33,.st34{opacity:9.000000e-02}.st34{opacity:.52}.st36,.st37,.st42,.st44,.st46,.st47{opacity:.23;fill:#5ed1ba;enable-background:new}.st37,.st42,.st44,.st46,.st47{opacity:.31}.st42,.st44,.st46,.st47{opacity:.58}.st44,.st46,.st47{opacity:.32}.st46,.st47{opacity:.47}.st47{opacity:.42}
  </style>
  <g id="bits">
    <path class="st0" d="M.8 12h1.7V6.3L.8 7.5l-.5-.6 2.4-1.7h.6V12H5v.8H.8V12z"/>
    <path class="st1" d="M7.4 12h1.7V6.3L7.4 7.5l-.5-.6 2.4-1.7h.7V12h1.7v.8H7.4V12z"/>
    <path class="st2" d="M13.2 9c0-.6.1-1.1.2-1.7.1-.4.3-.9.5-1.3.2-.3.5-.6.8-.8.4-.1.8-.2 1.2-.2.4 0 .9.1 1.3.3.3.2.6.4.8.7.2.4.4.8.5 1.3.1.6.1 1.2.1 1.8 0 .6 0 1.1-.2 1.7-.1.4-.3.9-.5 1.3-.2.3-.5.6-.8.8-.4.2-.8.3-1.2.3-.4 0-.9-.1-1.2-.3-.3-.2-.6-.5-.8-.8-.2-.4-.4-.8-.5-1.3-.2-.7-.2-1.2-.2-1.8zm.9 0v1l3.3-3c-.1-.4-.3-.7-.6-1-.3-.2-.6-.4-1-.3-.6 0-1.1.3-1.4.8-.2.9-.4 1.7-.3 2.5zm3.6 0c0-.4 0-.7-.1-1.1l-3.3 3c.1.4.3.7.6 1 .3.3.6.4 1 .4.6 0 1.1-.3 1.4-.8.3-.8.4-1.6.4-2.5z"/>
    <path class="st3" d="M19.8 9c0-.6.1-1.1.2-1.7.1-.4.3-.9.5-1.3.2-.3.5-.6.8-.8.4-.1.8-.2 1.2-.2.4 0 .9.1 1.3.3.3.2.6.4.8.8.2.4.4.8.4 1.2.1.6.1 1.1.1 1.7 0 .6-.1 1.1-.2 1.7-.1.4-.3.9-.5 1.3-.2.3-.5.6-.8.8-.4.2-.8.3-1.2.3-.4 0-.9-.1-1.2-.3-.3-.2-.6-.5-.8-.8-.2-.4-.4-.8-.5-1.3-.1-.6-.1-1.1-.1-1.7zm.9 0v1L24 7c-.1-.4-.3-.7-.6-1-.3-.2-.6-.4-1-.3-.6 0-1.1.3-1.4.8-.2.9-.4 1.7-.3 2.5zm3.6 0c0-.4 0-.7-.1-1.1l-3.3 3c.1.4.3.7.6 1 .3.3.6.4 1 .4.6 0 1.1-.3 1.4-.8.3-.8.4-1.6.4-2.5z"/>
    <path class="st4" d="M26.4 9c0-.6.1-1.1.2-1.7.1-.4.3-.9.5-1.3.2-.3.5-.6.8-.8.4-.1.8-.2 1.2-.2.4 0 .9.1 1.3.3.3.2.6.4.8.8.2.4.4.8.5 1.3.1.6.1 1.1.1 1.7 0 .6 0 1.1-.2 1.7-.1.4-.3.9-.5 1.3-.2.3-.5.6-.8.8-.4.2-.8.3-1.2.3-.4 0-.9-.1-1.2-.3-.4-.2-.6-.5-.9-.8-.2-.4-.4-.8-.5-1.3-.1-.7-.1-1.2-.1-1.8zm.9 0v1l3.3-3c-.1-.4-.3-.7-.6-1-.3-.2-.6-.4-1-.3-.6 0-1.1.3-1.4.8-.2.9-.4 1.7-.3 2.5zm3.6 0c0-.4 0-.7-.1-1.1l-3.3 3c.1.4.3.7.6 1 .3.3.6.4 1 .4.6 0 1.1-.3 1.4-.8.3-.8.4-1.6.4-2.5z"/>
    <path class="st5" d="M33.8 12h1.7V6.3l-1.8 1.2-.4-.6 2.4-1.7h.6V12H38v.8h-4.3V12z"/>
    <path class="st6" d="M39.6 9c0-.6.1-1.1.2-1.7.1-.4.3-.9.5-1.3.2-.3.5-.6.8-.8.4-.1.8-.2 1.2-.2.4 0 .9.1 1.3.3.3.2.6.4.8.8.2.4.4.8.5 1.3.1.5.1 1.1.1 1.6 0 .6 0 1.1-.2 1.7-.1.4-.3.9-.5 1.3-.2.3-.5.6-.8.8-.4.2-.8.3-1.2.3-.4 0-.9-.1-1.2-.3-.3-.2-.6-.5-.8-.8-.2-.4-.4-.8-.5-1.3-.1-.6-.2-1.1-.2-1.7zm.9 0v1l3.3-3c-.1-.4-.3-.7-.6-1-.3-.2-.6-.4-1-.3-.6 0-1.1.3-1.4.8-.2.9-.4 1.7-.3 2.5zm3.6 0c0-.4 0-.8-.1-1.1l-3.3 3c.1.4.3.7.6 1 .3.3.6.4 1 .4.6 0 1.1-.3 1.4-.8.3-.8.4-1.6.4-2.5z"/>
    <path class="st7" d="M46.2 9c0-.6.1-1.1.2-1.7.1-.4.3-.9.5-1.3.2-.3.5-.6.8-.8.4-.1.8-.2 1.2-.2.4 0 .9.1 1.3.3.3.2.6.4.8.7.2.4.4.8.5 1.3.1.6.1 1.2.1 1.8 0 .6 0 1.1-.2 1.7-.1.4-.3.9-.5 1.3-.2.3-.5.6-.8.8-.4.2-.8.3-1.2.3-.4 0-.9-.1-1.2-.3-.3-.2-.6-.5-.8-.8-.2-.4-.4-.8-.5-1.3-.2-.7-.2-1.2-.2-1.8zm.9 0v1l3.3-3c-.1-.4-.3-.7-.6-1-.3-.2-.6-.4-1-.3-.6 0-1.1.3-1.4.8-.2.9-.4 1.7-.3 2.5zm3.6 0c0-.4 0-.7-.1-1.1l-3.3 3c.1.4.3.7.6 1 .3.3.6.4 1 .4.6 0 1.1-.3 1.4-.8.3-.8.4-1.6.4-2.5z"/>
    <path class="st6" d="M52.8 9c0-.6.1-1.1.2-1.7.1-.4.3-.9.5-1.3.2-.3.5-.6.8-.8.4-.1.8-.2 1.2-.2.4 0 .9.1 1.3.3.3.2.6.4.8.8.2.4.4.8.5 1.3.1.6.1 1.1.1 1.7 0 .6-.1 1.1-.2 1.7-.1.4-.3.9-.5 1.3-.2.3-.5.6-.8.8-.4.2-.8.3-1.2.3-.4 0-.9-.1-1.2-.3-.3-.2-.6-.5-.8-.8-.2-.4-.4-.8-.5-1.3-.2-.7-.2-1.2-.2-1.8zm.9 0v1L57 7c-.1-.4-.3-.7-.6-1-.3-.2-.6-.4-1-.3-.6 0-1.1.3-1.4.8-.2.9-.4 1.7-.3 2.5zm3.6 0c0-.4 0-.7-.1-1.1l-3.3 3c.1.4.3.7.6 1 .3.3.6.4 1 .4.6 0 1.1-.3 1.4-.8.3-.8.4-1.6.4-2.5z"/>
    <path class="st8" d="M60.2 12h1.7V6.3l-1.8 1.2-.4-.6 2.4-1.7h.6V12h1.7v.8h-4.3V12z"/>
    <path class="st9" d="M66.8 12h1.7V6.3l-1.8 1.2-.4-.6 2.4-1.7h.6V12H71v.8h-4.3V12z"/>
    <path d="M72.6 9c0-.6.1-1.1.2-1.7.1-.4.3-.9.5-1.3.2-.3.5-.6.8-.8.4-.1.8-.2 1.2-.2.4 0 .9.1 1.3.3.3.2.6.4.8.8.2.4.4.8.5 1.3.1.5.1 1.1.1 1.6 0 .6 0 1.1-.2 1.7-.1.4-.3.9-.5 1.3-.2.3-.5.6-.8.8-.4.2-.8.3-1.2.3-.4 0-.9-.1-1.2-.3-.3-.2-.6-.5-.8-.8-.2-.4-.4-.8-.5-1.3-.1-.6-.2-1.1-.2-1.7zm.9 0v1l3.3-3c-.1-.4-.3-.7-.6-1-.3-.2-.6-.4-1-.3-.6 0-1.1.3-1.4.8-.2.9-.4 1.7-.3 2.5zm3.6 0c0-.4 0-.8-.1-1.1l-3.3 3c.1.4.3.7.6 1 .3.3.6.4 1 .4.6 0 1.1-.3 1.4-.8.3-.8.4-1.6.4-2.5z" opacity=".6" fill="#5ed1ba"/>
    <path class="st11" d="M79.2 9c0-.6.1-1.1.2-1.7.1-.4.3-.9.5-1.3.2-.3.5-.6.8-.8.4-.1.8-.2 1.2-.2.4 0 .9.1 1.3.3.3.2.6.4.8.7.2.4.4.8.5 1.3.1.6.1 1.2.1 1.8 0 .6 0 1.1-.2 1.7-.1.4-.3.9-.5 1.3-.2.3-.5.6-.8.8-.4.2-.8.3-1.2.3-.4 0-.9-.1-1.2-.3-.3-.2-.6-.5-.8-.8-.2-.4-.4-.8-.5-1.3-.2-.7-.2-1.2-.2-1.8zm.9 0v1l3.3-3c-.1-.4-.3-.7-.6-1-.3-.2-.6-.4-1-.3-.6 0-1.1.3-1.4.8-.2.9-.4 1.7-.3 2.5zm3.6 0c0-.4 0-.7-.1-1.1l-3.3 3c.1.4.3.7.6 1 .3.3.6.4 1 .4.6 0 1.1-.3 1.4-.8.3-.8.4-1.6.4-2.5z"/>
    <path class="st2" d="M86.6 12h1.7V6.3l-1.8 1.2-.4-.6 2.4-1.7h.6V12h1.7v.8h-4.3V12z"/>
    <path class="st12" d="M93.2 12h1.7V6.3l-1.8 1.2-.4-.6 2.4-1.7h.6V12h1.7v.8h-4.3V12z"/>
    <path d="M99 9c0-.6.1-1.1.2-1.7.1-.4.3-.9.5-1.3.2-.3.5-.6.8-.8.4-.2.8-.3 1.2-.3.4 0 .9.1 1.3.3.3.2.6.4.8.8.2.4.4.8.5 1.3.1.6.1 1.1.1 1.7 0 .6 0 1.1-.2 1.7-.1.4-.3.9-.5 1.3-.2.3-.5.6-.8.8-.4.2-.8.3-1.2.3-.4 0-.9-.1-1.2-.3-.3-.2-.6-.5-.8-.8-.2-.4-.4-.8-.5-1.3-.1-.6-.2-1.1-.2-1.7zm.9 0v1l3.3-3c-.1-.4-.3-.7-.6-1-.3-.2-.6-.4-1-.3-.6 0-1.1.3-1.4.8-.2.9-.4 1.7-.3 2.5zm3.6 0c0-.4 0-.7-.1-1.1l-3.3 3c.1.4.3.7.6 1 .3.3.6.4 1 .4.6 0 1.1-.3 1.4-.8.3-.8.4-1.6.4-2.5z" opacity=".33" fill="#5ed1ba"/>
    <path class="st14" d="M105.6 9c0-.6.1-1.1.2-1.7.1-.4.3-.9.5-1.3.2-.3.5-.6.8-.8.4-.2.8-.3 1.2-.3.4 0 .9.1 1.3.3.3.2.6.4.8.8.2.4.4.8.5 1.3.1.6.1 1.2.1 1.7 0 .6 0 1.1-.2 1.7-.1.4-.3.9-.5 1.3-.2.3-.5.6-.8.8-.4.2-.8.3-1.2.3-.4 0-.9-.1-1.2-.3-.3-.2-.6-.5-.8-.8-.2-.4-.4-.8-.5-1.3-.1-.6-.2-1.1-.2-1.7zm.9 0v1l3.3-3c-.1-.4-.3-.7-.6-1-.3-.2-.6-.4-1-.3-.6 0-1.1.3-1.4.8-.2.9-.4 1.7-.3 2.5zm3.6 0c0-.4 0-.8-.1-1.1l-3.3 3c.1.4.3.7.6 1 .3.3.6.4 1 .4.6 0 1.1-.3 1.4-.8.3-.8.4-1.6.4-2.5z"/>
    <path class="st15" d="M0 22.2c0-.6.1-1.1.2-1.7.1-.4.3-.9.5-1.3.2-.3.5-.6.8-.8.4-.2.8-.3 1.2-.3.4 0 .9.1 1.3.3.3.2.6.4.8.8.2.4.4.8.5 1.3.1.6.1 1.1.1 1.7 0 .6-.1 1.1-.2 1.7-.1.4-.3.9-.5 1.3-.2.3-.5.6-.8.8-.4.2-.8.3-1.2.3-.4 0-.9-.1-1.2-.3-.3-.2-.6-.5-.8-.8-.2-.4-.4-.8-.5-1.3-.1-.6-.2-1.1-.2-1.7zm.9 0v.5c0 .1.1.3.1.5l3.3-3c-.1-.4-.3-.7-.6-.9-.3-.2-.6-.4-1-.4-.6 0-1.1.3-1.4.8-.3.8-.4 1.7-.4 2.5zm3.6 0c0-.4 0-.7-.1-1.1l-3.3 3c.1.4.3.7.6 1 .3.3.6.4 1 .4.6 0 1.1-.3 1.4-.8.3-.8.4-1.6.4-2.5z"/>
    <path d="M6.6 22.2c0-.6.1-1.1.2-1.7.1-.4.3-.9.5-1.3.2-.3.5-.6.8-.8.4-.2.8-.3 1.2-.3.4 0 .9.1 1.3.3.3.2.6.4.8.8.2.4.4.8.5 1.3.1.6.1 1.1.1 1.7 0 .6 0 1.1-.2 1.7-.1.4-.3.9-.5 1.3-.2.3-.5.6-.8.8-.4.2-.8.3-1.2.3-.4 0-.9-.1-1.2-.3-.3-.2-.6-.5-.8-.8-.2-.4-.4-.8-.5-1.3-.2-.6-.2-1.1-.2-1.7zm.9 0v1l3.3-3c-.1-.4-.3-.7-.6-.9-.3-.2-.6-.4-1-.4-.6 0-1.1.3-1.4.8-.2.8-.4 1.7-.3 2.5zm3.6 0c0-.4 0-.7-.1-1.1l-3.3 3c.1.4.3.7.6 1 .3.3.6.4 1 .4.6 0 1.1-.3 1.4-.8.3-.8.4-1.6.4-2.5z" opacity=".3" fill="#5ed1ba"/>
    <path class="st17" d="M14 25.3h1.7v-5.8L14 20.7l-.4-.6 2.4-1.7h.6v6.9h1.7v.7H14v-.7z"/>
    <path class="st18" d="M20.6 25.3h1.7v-5.8l-1.8 1.2-.4-.6 2.4-1.7h.6v6.9h1.7v.7h-4.3v-.7z"/>
    <path class="st4" d="M26.4 22.2c0-.6.1-1.1.2-1.7.1-.4.3-.9.5-1.3.2-.3.5-.6.8-.8.4-.2.8-.3 1.2-.3.4 0 .9.1 1.3.3.3.2.6.4.8.8.2.4.4.8.5 1.3.1.6.1 1.1.1 1.7 0 .6 0 1.1-.2 1.7-.1.4-.3.9-.5 1.3-.2.3-.5.6-.8.8-.4.2-.8.3-1.2.3-.4 0-.9-.1-1.2-.3-.3-.2-.6-.5-.8-.8-.2-.4-.4-.8-.5-1.3-.2-.6-.2-1.1-.2-1.7zm.9 0v1l3.3-3c-.1-.4-.3-.7-.6-.9-.3-.2-.6-.4-1-.4-.6 0-1.1.3-1.4.8-.2.8-.4 1.7-.3 2.5zm3.6 0c0-.4 0-.7-.1-1.1l-3.3 3c.1.4.3.7.6 1 .3.3.6.4 1 .4.6 0 1.1-.3 1.4-.8.3-.8.4-1.6.4-2.5z"/>
    <path class="st19" d="M33 22.2c0-.6.1-1.1.2-1.7.1-.4.3-.9.5-1.3.2-.3.5-.6.8-.8.4-.2.8-.3 1.2-.3.4 0 .9.1 1.3.3.3.2.6.4.8.8.2.4.4.8.5 1.3.1.6.1 1.1.1 1.7 0 .6 0 1.1-.2 1.7-.1.4-.3.9-.5 1.3-.2.3-.5.6-.8.8-.4.2-.8.3-1.2.3-.4 0-.9-.1-1.2-.3-.3-.2-.6-.5-.8-.8-.2-.4-.4-.8-.5-1.3-.2-.6-.2-1.1-.2-1.7zm.9 0v1l3.3-3c-.1-.4-.3-.7-.6-.9-.3-.2-.6-.4-1-.4-.6 0-1.1.3-1.4.8-.2.8-.4 1.7-.3 2.5zm3.6 0c0-.4 0-.7-.1-1.1l-3.3 3c.1.4.3.7.6 1 .3.3.6.4 1 .4.6 0 1.1-.3 1.4-.8.3-.8.4-1.6.4-2.5z"/>
    <path class="st20" d="M39.6 22.2c0-.6.1-1.1.2-1.7.1-.4.3-.9.5-1.3.2-.3.5-.6.8-.8.4-.2.8-.3 1.2-.3.4 0 .9.1 1.3.3.3.2.6.4.8.8.2.4.4.8.5 1.3.1.6.1 1.1.1 1.7 0 .6 0 1.1-.2 1.7-.1.4-.3.9-.5 1.3-.2.3-.5.6-.8.8-.4.2-.8.3-1.2.3-.4 0-.9-.1-1.2-.3-.3-.2-.6-.5-.8-.8-.2-.4-.4-.8-.5-1.3-.2-.6-.2-1.1-.2-1.7zm.9 0v1l3.3-3c-.1-.4-.3-.7-.6-.9-.3-.2-.6-.4-1-.4-.6 0-1.1.3-1.4.8-.2.8-.4 1.7-.3 2.5zm3.6 0c0-.4 0-.7-.1-1.1l-3.3 3c.1.4.3.7.6 1 .3.3.6.4 1 .4.6 0 1.1-.3 1.4-.8.3-.8.4-1.6.4-2.5z"/>
    <path class="st21" d="M47 25.3h1.7v-5.8L47 20.7l-.4-.6 2.4-1.7h.6v6.9h1.7v.7H47v-.7z"/>
    <path class="st0" d="M52.8 22.2c0-.6.1-1.1.2-1.7.1-.4.3-.9.5-1.3.2-.3.5-.6.8-.8.4-.2.8-.3 1.2-.3.4 0 .9.1 1.3.3.3.2.6.4.8.8.2.4.4.8.5 1.3.1.6.1 1.1.1 1.7 0 .6-.1 1.1-.2 1.7-.1.4-.3.9-.5 1.3-.2.3-.5.6-.8.8-.4.2-.8.3-1.2.3-.4 0-.9-.1-1.2-.3-.3-.2-.6-.5-.8-.8-.2-.4-.4-.8-.5-1.3-.2-.6-.2-1.1-.2-1.7zm.9 0v1l3.3-3c-.1-.4-.3-.7-.6-.9-.3-.2-.6-.4-1-.4-.6 0-1.1.3-1.4.8-.2.8-.4 1.7-.3 2.5zm3.6 0c0-.4 0-.7-.1-1.1l-3.3 3c.1.4.3.7.6 1 .3.3.6.4 1 .4.6 0 1.1-.3 1.4-.8.3-.8.4-1.6.4-2.5z"/>
    <path d="M59.4 22.2c0-.6.1-1.1.2-1.7.1-.4.3-.9.5-1.3.2-.3.5-.6.8-.8.4-.2.8-.3 1.2-.3.4 0 .9.1 1.3.3.3.2.6.4.8.8.2.4.4.8.5 1.3.1.6.1 1.1.1 1.7 0 .6 0 1.1-.2 1.7-.1.4-.3.9-.5 1.3-.2.3-.5.6-.8.8-.4.2-.8.3-1.2.3-.4 0-.9-.1-1.2-.3-.3-.2-.6-.5-.8-.8-.2-.4-.4-.8-.5-1.3-.2-.6-.2-1.1-.2-1.7zm.9 0v1l3.3-3c-.1-.4-.3-.7-.6-.9-.3-.2-.6-.4-1-.4-.6 0-1.1.3-1.4.8-.2.8-.4 1.7-.3 2.5zm3.6 0c0-.4 0-.7-.1-1.1l-3.3 3c.1.4.3.7.6 1 .3.3.6.4 1 .4.6 0 1.1-.3 1.4-.8.3-.8.4-1.6.4-2.5z" opacity=".26" fill="#5ed1ba"/>
    <path class="st6" d="M66.8 25.3h1.7v-5.8l-1.8 1.2-.4-.6 2.4-1.7h.6v6.9H71v.7h-4.3v-.7z"/>
    <path class="st12" d="M73.4 25.3h1.7v-5.8l-1.8 1.2-.4-.6 2.4-1.7h.7v6.9h1.7v.7h-4.3v-.7z"/>
    <path class="st23" d="M79.2 22.2c0-.6.1-1.1.2-1.7.1-.4.3-.9.5-1.3.2-.3.5-.6.8-.8.4-.2.8-.3 1.2-.3.4 0 .9.1 1.3.3.3.2.6.4.8.8.2.4.4.8.5 1.3.1.6.1 1.1.1 1.7 0 .6 0 1.1-.2 1.7-.1.4-.3.9-.5 1.3-.2.3-.5.6-.8.8-.4.2-.8.3-1.2.3-.4 0-.9-.1-1.2-.3-.3-.2-.6-.5-.8-.8-.2-.4-.4-.8-.5-1.3-.2-.6-.2-1.1-.2-1.7zm.9 0v1l3.3-3c-.1-.4-.3-.7-.6-.9-.3-.2-.6-.4-1-.4-.6 0-1.1.3-1.4.8-.2.8-.4 1.7-.3 2.5zm3.6 0c0-.4 0-.7-.1-1.1l-3.3 3c.1.4.3.7.6 1 .3.3.6.4 1 .4.6 0 1.1-.3 1.4-.8.3-.8.4-1.6.4-2.5z"/>
    <path class="st9" d="M85.8 22.2c0-.6.1-1.1.2-1.7.1-.4.3-.9.5-1.3.2-.3.5-.6.8-.8.4-.2.8-.3 1.2-.3.4 0 .9.1 1.3.3.3.2.6.4.8.8.2.4.4.8.5 1.3.1.6.1 1.1.1 1.7 0 .6-.1 1.1-.2 1.7-.1.4-.3.9-.5 1.3-.2.3-.5.6-.8.8-.4.2-.8.3-1.2.3-.4 0-.9-.1-1.2-.3-.3-.2-.6-.5-.8-.8-.2-.4-.4-.8-.5-1.3-.2-.6-.2-1.1-.2-1.7zm.9 0v1l3.3-3c-.1-.4-.3-.7-.6-.9-.3-.2-.6-.4-1-.4-.6 0-1.1.3-1.4.8-.2.8-.4 1.7-.3 2.5zm3.6 0c0-.4 0-.7-.1-1.1l-3.3 3c.1.4.3.7.6 1 .3.3.6.4 1 .4.6 0 1.1-.3 1.4-.8.3-.8.4-1.6.4-2.5z"/>
    <path class="st24" d="M92.4 22.2c0-.6.1-1.1.2-1.7.1-.4.3-.9.5-1.3.2-.3.5-.6.8-.8.4-.2.8-.3 1.2-.3.4 0 .9.1 1.3.3.3.2.6.4.8.8.2.4.4.8.5 1.3.1.6.1 1.1.1 1.7 0 .6 0 1.1-.2 1.7-.1.4-.3.9-.5 1.3-.2.3-.5.6-.8.8-.4.2-.8.3-1.2.3-.4 0-.9-.1-1.2-.3-.3-.2-.6-.5-.8-.8-.2-.4-.4-.8-.5-1.3-.2-.6-.2-1.1-.2-1.7zm.9 0v1l3.3-3c-.1-.4-.3-.7-.6-.9-.3-.2-.6-.4-1-.4-.6 0-1.1.3-1.4.8-.2.8-.4 1.7-.3 2.5zm3.6 0c0-.4 0-.7-.1-1.1l-3.3 3c.1.4.3.7.6 1 .3.3.6.4 1 .4.6 0 1.1-.3 1.4-.8.3-.8.4-1.6.4-2.5z"/>
    <path class="st6" d="M99 22.2c0-.6.1-1.1.2-1.7.1-.4.3-.9.5-1.3.2-.3.5-.6.8-.8.4-.2.8-.3 1.2-.3.4 0 .9.1 1.3.3.3.2.6.4.8.8.2.4.4.8.5 1.3.1.6.1 1.1.1 1.7 0 .6 0 1.1-.2 1.7-.1.4-.3.9-.5 1.3-.2.3-.5.6-.8.8-.4.2-.8.3-1.2.3-.4 0-.9-.1-1.2-.3-.3-.2-.6-.5-.8-.8-.2-.4-.4-.8-.5-1.3-.2-.6-.2-1.1-.2-1.7zm.9 0v1l3.3-3c-.1-.4-.3-.7-.6-.9-.3-.2-.6-.4-1-.4-.6 0-1.1.3-1.4.8-.2.8-.4 1.7-.3 2.5zm3.6 0c0-.4 0-.7-.1-1.1l-3.3 3c.1.4.3.7.6 1 .3.3.6.4 1 .4.6 0 1.1-.3 1.4-.8.3-.8.4-1.6.4-2.5z"/>
    <path class="st5" d="M105.6 22.2c0-.6.1-1.1.2-1.7.1-.4.3-.9.5-1.3.2-.3.5-.6.8-.8.4-.2.8-.3 1.2-.3.4 0 .9.1 1.3.3.3.2.6.4.8.8.2.4.4.8.5 1.3.1.6.1 1.1.1 1.7 0 .6 0 1.1-.2 1.7-.1.4-.3.9-.5 1.3-.2.3-.5.6-.8.8-.4.2-.8.3-1.2.3-.4 0-.9-.1-1.2-.3-.3-.2-.6-.5-.8-.8-.2-.4-.4-.8-.5-1.3-.2-.6-.2-1.1-.2-1.7zm.9 0v1l3.3-3c-.1-.4-.3-.7-.6-.9-.3-.2-.6-.4-1-.4-.6 0-1.1.3-1.4.8-.2.8-.4 1.7-.3 2.5zm3.6 0c0-.4 0-.7-.1-1.1l-3.3 3c.1.4.3.7.6 1 .3.3.6.4 1 .4.6 0 1.1-.3 1.4-.8.3-.8.4-1.6.4-2.5z"/>
    <path class="st7" d="M.8 38.5h1.7v-5.8L.7 33.9l-.4-.6 2.4-1.7h.6v6.9H5v.8H.8v-.8z"/>
    <path class="st25" d="M6.6 35.4c0-.6.1-1.1.2-1.7.1-.4.3-.9.5-1.3.2-.3.5-.6.8-.8.4-.2.8-.3 1.2-.3.4 0 .9.1 1.3.3.3.2.6.4.8.8.2.4.4.8.5 1.3.1.6.1 1.1.1 1.7 0 .6 0 1.1-.2 1.7-.1.4-.3.9-.5 1.3-.2.3-.5.6-.8.8-.4.2-.8.3-1.2.3-.4 0-.9-.1-1.2-.3-.3-.2-.6-.5-.8-.8-.3-.5-.5-.9-.6-1.4-.1-.5-.1-1-.1-1.6zm.9 0v1l3.3-3c-.1-.4-.3-.7-.6-1-.3-.2-.6-.4-1-.3-.6 0-1.1.4-1.3 1-.3.7-.4 1.5-.4 2.3zm3.6 0c0-.4 0-.7-.1-1.1l-3.3 3c.1.4.3.7.6 1 .3.3.6.4 1 .4.6 0 1.1-.3 1.4-.8.3-.8.4-1.6.4-2.5z"/>
    <path class="st8" d="M13.2 35.4c0-.6.1-1.1.2-1.7.1-.4.3-.9.5-1.3.2-.3.5-.6.8-.8.4-.2.8-.3 1.2-.3.4 0 .9.1 1.3.3.3.2.6.4.8.8.2.4.4.8.5 1.3.1.6.1 1.1.1 1.7 0 .6 0 1.1-.2 1.7-.1.4-.3.9-.5 1.3-.2.3-.5.6-.8.8-.4.2-.8.3-1.2.3-.4 0-.9-.1-1.2-.3-.3-.2-.6-.5-.8-.8-.2-.4-.4-.8-.5-1.2-.2-.7-.2-1.2-.2-1.8zm.9 0v1l3.3-3c-.1-.4-.3-.7-.6-1-.3-.2-.6-.4-1-.3-.6 0-1.1.3-1.4.8-.3.8-.4 1.7-.3 2.5zm3.6 0c0-.4 0-.7-.1-1.1l-3.3 3c.1.4.3.7.6 1 .3.3.6.4 1 .4.6 0 1.1-.3 1.4-.8.3-.8.4-1.6.4-2.5z"/>
    <path class="st26" d="M19.8 35.4c0-.6.1-1.1.2-1.7.1-.4.3-.9.5-1.3.2-.3.5-.6.8-.8.4-.2.8-.3 1.2-.3.4 0 .9.1 1.3.3.3.2.6.4.8.8.2.4.4.8.5 1.3.1.6.1 1.1.1 1.7 0 .6-.1 1.1-.2 1.7-.1.4-.3.9-.5 1.3-.2.3-.5.6-.8.8-.4.2-.8.3-1.2.3-.4 0-.9-.1-1.2-.3-.3-.2-.6-.5-.8-.8-.2-.4-.4-.8-.4-1.3-.3-.6-.3-1.1-.3-1.7zm.9 0v1l3.3-3c-.1-.4-.3-.7-.6-1-.3-.2-.6-.4-1-.3-.6 0-1.1.3-1.4.8-.3.8-.4 1.7-.3 2.5zm3.6 0c0-.4 0-.7-.1-1.1l-3.3 3c.1.4.3.7.6 1 .3.3.6.4 1 .4.6 0 1.1-.3 1.4-.8.3-.8.4-1.6.4-2.5z"/>
    <path class="st27" d="M26.4 35.4c0-.6.1-1.1.2-1.7.1-.4.3-.9.5-1.3.2-.3.5-.6.8-.8.4-.2.8-.3 1.2-.3.4 0 .9.1 1.3.3.3.2.6.4.8.8.2.4.4.8.5 1.3.1.6.1 1.1.1 1.7 0 .6 0 1.1-.2 1.7-.1.4-.3.9-.5 1.3-.2.3-.5.6-.8.8-.4.2-.8.3-1.2.3-.4 0-.9-.1-1.2-.3-.3-.2-.6-.5-.8-.8-.2-.4-.4-.8-.5-1.2-.2-.7-.2-1.2-.2-1.8zm.9 0v1l3.3-3c-.1-.4-.3-.7-.6-1-.3-.2-.6-.4-1-.3-.6 0-1.1.3-1.4.8-.3.8-.4 1.7-.3 2.5zm3.6 0c0-.4 0-.7-.1-1.1l-3.3 3c.1.4.3.7.6 1 .3.3.6.4 1 .4.6 0 1.1-.3 1.4-.8.3-.8.4-1.6.4-2.5z"/>
    <path class="st8" d="M33 35.4c0-.6.1-1.1.2-1.7.1-.4.3-.9.5-1.3.2-.3.5-.6.8-.8.4-.2.8-.3 1.2-.3.4 0 .9.1 1.3.3.3.2.6.4.8.8.2.4.4.8.5 1.3.1.6.1 1.1.1 1.7 0 .6 0 1.1-.2 1.7-.1.4-.3.9-.5 1.3-.2.3-.5.6-.8.8-.4.2-.8.3-1.2.3-.4 0-.9-.1-1.2-.3-.3-.2-.6-.5-.8-.8-.2-.4-.4-.8-.5-1.2-.2-.7-.2-1.2-.2-1.8zm.9 0v1l3.3-3c-.1-.4-.3-.7-.6-1-.3-.2-.6-.4-1-.3-.6 0-1.1.3-1.4.8-.3.8-.4 1.7-.3 2.5zm3.6 0c0-.4 0-.7-.1-1.1l-3.3 3c.1.4.3.7.6 1 .3.3.6.4 1 .4.6 0 1.1-.3 1.4-.8.3-.8.4-1.6.4-2.5z"/>
    <path class="st28" d="M39.6 35.4c0-.6.1-1.1.2-1.7.1-.4.3-.9.5-1.3.2-.3.5-.6.8-.8.4-.2.8-.3 1.2-.3.4 0 .9.1 1.3.3.3.2.6.4.8.8.2.4.4.8.5 1.3.1.6.1 1.1.1 1.7 0 .6 0 1.1-.2 1.7-.1.4-.3.9-.5 1.3-.2.3-.5.6-.8.8-.4.2-.8.3-1.2.3-.4 0-.9-.1-1.2-.3-.3-.2-.6-.5-.8-.8-.2-.4-.4-.8-.5-1.2-.2-.7-.2-1.2-.2-1.8zm.9 0v1l3.3-3c-.1-.4-.3-.7-.6-1-.3-.2-.6-.4-1-.3-.6 0-1.1.3-1.4.8-.3.8-.4 1.7-.3 2.5zm3.6 0c0-.4 0-.7-.1-1.1l-3.3 3c.1.4.3.7.6 1 .3.3.6.4 1 .4.6 0 1.1-.3 1.4-.8.3-.8.4-1.6.4-2.5z"/>
    <path class="st29" d="M47 38.5h1.7v-5.8L47 33.9l-.4-.6 2.4-1.7h.6v6.9h1.7v.8H47v-.8z"/>
    <path class="st30" d="M53.6 38.5h1.7v-5.8l-1.8 1.2-.4-.6 2.4-1.7h.6v6.9h1.7v.8h-4.3v-.8z"/>
    <path class="st31" d="M60.2 38.5h1.7v-5.8l-1.8 1.2-.4-.6 2.4-1.7h.6v6.9h1.7v.8h-4.3v-.8z"/>
    <path class="st25" d="M66 35.4c0-.6.1-1.1.2-1.7.1-.4.3-.9.5-1.3.2-.3.5-.6.8-.8.4-.2.8-.3 1.2-.3.4 0 .9.1 1.3.3.3.2.6.4.8.8.2.4.4.8.5 1.3.1.6.1 1.1.1 1.7 0 .6 0 1.1-.2 1.7-.1.4-.3.9-.5 1.3-.2.3-.5.6-.8.8-.4.2-.8.3-1.2.3-.4 0-.9-.1-1.2-.3-.3-.2-.6-.5-.8-.8-.2-.4-.4-.8-.5-1.2-.2-.7-.2-1.2-.2-1.8zm.9 0v1l3.3-3c-.1-.4-.3-.7-.6-1-.3-.2-.6-.4-1-.3-.6 0-1.1.3-1.4.8-.3.8-.4 1.7-.3 2.5zm3.6 0c0-.4 0-.7-.1-1.1l-3.3 3c.1.4.3.7.6 1 .3.3.6.4 1 .4.6 0 1.1-.3 1.4-.8.3-.8.4-1.6.4-2.5z"/>
    <path class="st29" d="M72.6 35.4c0-.6.1-1.1.2-1.7.1-.4.3-.9.5-1.3.2-.3.5-.6.8-.8.4-.2.8-.3 1.2-.3.4 0 .9.1 1.3.3.3.2.6.4.8.8.2.4.4.8.5 1.3.1.6.1 1.1.1 1.7 0 .6 0 1.1-.2 1.7-.1.4-.3.9-.5 1.3-.2.3-.5.6-.8.8-.4.2-.8.3-1.2.3-.4 0-.9-.1-1.2-.3-.3-.2-.6-.5-.8-.8-.2-.4-.4-.8-.5-1.2-.2-.7-.2-1.2-.2-1.8zm.9 0v1l3.3-3c-.1-.4-.3-.7-.6-1-.3-.2-.6-.4-1-.3-.6 0-1.1.3-1.4.8-.3.8-.4 1.7-.3 2.5zm3.6 0c0-.4 0-.7-.1-1.1l-3.3 3c.1.4.3.7.6 1 .3.3.6.4 1 .4.6 0 1.1-.3 1.4-.8.3-.8.4-1.6.4-2.5z"/>
    <path class="st3" d="M80 38.5h1.7v-5.8L80 33.9l-.4-.6 2.4-1.7h.6v6.9h1.7v.8H80v-.8z"/>
    <path class="st18" d="M85.8 35.4c0-.6.1-1.1.2-1.7.1-.4.3-.9.5-1.3.2-.3.5-.6.8-.8.4-.2.8-.3 1.2-.3.4 0 .9.1 1.3.3.3.2.6.4.8.8.2.4.4.8.5 1.3.1.6.1 1.1.1 1.7 0 .6-.1 1.1-.2 1.7-.1.4-.3.9-.5 1.3-.2.3-.5.6-.8.8-.4.2-.8.3-1.2.3-.4 0-.9-.1-1.2-.3-.3-.2-.6-.5-.8-.8-.2-.4-.4-.8-.4-1.3-.3-.6-.3-1.1-.3-1.7zm.9 0v1l3.3-3c-.1-.4-.3-.7-.6-1-.3-.2-.6-.4-1-.3-.6 0-1.1.3-1.4.8-.3.8-.4 1.7-.3 2.5zm3.6 0c0-.4 0-.7-.1-1.1l-3.3 3c.1.4.3.7.6 1 .3.3.6.4 1 .4.6 0 1.1-.3 1.4-.8.3-.8.4-1.6.4-2.5z"/>
    <path class="st25" d="M92.4 35.4c0-.6.1-1.1.2-1.7.1-.4.3-.9.5-1.3.2-.3.5-.6.8-.8.4-.2.8-.3 1.2-.3.4 0 .9.1 1.3.3.3.2.6.4.8.8.2.4.4.8.5 1.3.1.6.1 1.1.1 1.7 0 .6 0 1.1-.2 1.7-.1.4-.3.9-.5 1.3-.2.3-.5.6-.8.8-.4.2-.8.3-1.2.3-.4 0-.9-.1-1.2-.3-.3-.2-.6-.5-.8-.8-.2-.4-.4-.8-.5-1.2-.2-.7-.2-1.2-.2-1.8zm.9 0v1l3.3-3c-.1-.4-.3-.7-.6-1-.3-.2-.6-.4-1-.3-.6 0-1.1.3-1.4.8-.3.8-.4 1.7-.3 2.5zm3.6 0c0-.4 0-.7-.1-1.1l-3.3 3c.1.4.3.7.6 1 .3.3.6.4 1 .4.6 0 1.1-.3 1.4-.8.3-.8.4-1.6.4-2.5z"/>
    <path d="M99.8 38.5h1.7v-5.8l-1.8 1.2-.4-.6 2.4-1.7h.6v6.9h1.7v.8h-4.3v-.8z" opacity=".48" fill="#5ed1ba"/>
    <path class="st3" d="M106.4 38.5h1.7v-5.8l-1.8 1.2-.4-.6 2.4-1.7h.7v6.9h1.7v.8h-4.3v-.8z"/>
    <path class="st33" d="M0 48.6c0-.6.1-1.1.2-1.7.1-.4.3-.9.5-1.3.2-.3.5-.6.8-.8.4-.2.8-.3 1.2-.3.4 0 .9.1 1.3.3.3.2.6.4.8.8.2.4.4.8.5 1.3.1.6.1 1.1.1 1.7 0 .6-.1 1.1-.2 1.7-.1.4-.3.9-.5 1.3-.2.3-.5.6-.8.8-.4.2-.8.3-1.2.3-.4 0-.9-.1-1.2-.3-.3-.2-.6-.5-.8-.8-.2-.4-.4-.8-.5-1.3-.1-.6-.2-1.1-.2-1.7zm.9 0v1l3.3-3c-.1-.4-.3-.7-.6-.9-.3-.2-.6-.4-1-.3-.6 0-1.1.3-1.4.8-.2.7-.4 1.6-.3 2.4zm3.6 0c0-.4 0-.7-.1-1.1l-3.3 3c.1.4.3.7.6 1 .3.3.6.4 1 .4.6 0 1.1-.3 1.4-.9.3-.7.4-1.6.4-2.4z"/>
    <path class="st6" d="M6.6 48.6c0-.6.1-1.1.2-1.7.1-.4.3-.9.5-1.3.2-.3.5-.6.8-.8.4-.2.8-.3 1.2-.3.4 0 .9.1 1.3.3.3.2.6.4.8.8.2.4.4.8.5 1.3.1.6.1 1.1.1 1.7 0 .6 0 1.1-.2 1.7-.1.4-.3.9-.5 1.3-.2.3-.5.6-.8.8-.4.2-.8.3-1.2.3-.4 0-.9-.1-1.2-.3-.3-.2-.6-.5-.8-.8-.2-.4-.4-.8-.5-1.3-.2-.6-.2-1.1-.2-1.7zm.9 0v1l3.3-3c-.1-.4-.3-.7-.6-.9-.3-.2-.6-.4-1-.3-.6 0-1.1.3-1.4.8-.2.7-.4 1.6-.3 2.4zm3.6 0c0-.4 0-.7-.1-1.1l-3.3 3c.1.4.3.7.6 1 .3.3.6.4 1 .4.6 0 1.1-.3 1.4-.9.3-.7.4-1.6.4-2.4z"/>
    <path class="st19" d="M13.2 48.6c0-.6.1-1.1.2-1.7.1-.4.3-.9.5-1.3.2-.3.5-.6.8-.8.4-.2.8-.3 1.2-.3.4 0 .9.1 1.3.3.3.2.6.4.8.8.2.4.4.8.5 1.3.1.6.1 1.1.1 1.7 0 .6 0 1.1-.2 1.7-.1.4-.3.9-.5 1.3-.2.3-.5.6-.8.8-.4.2-.8.3-1.2.3-.4 0-.9-.1-1.2-.3-.3-.2-.6-.5-.8-.8-.2-.4-.4-.8-.5-1.3-.2-.6-.2-1.1-.2-1.7zm.9 0v1l3.3-3c-.1-.4-.3-.7-.6-.9-.3-.2-.6-.4-1-.3-.6 0-1.1.3-1.4.8-.2.7-.4 1.6-.3 2.4zm3.6 0c0-.4 0-.7-.1-1.1l-3.3 3c.1.4.3.7.6 1 .3.3.6.4 1 .4.6 0 1.1-.3 1.4-.9.3-.7.4-1.6.4-2.4z"/>
    <path class="st11" d="M19.8 48.6c0-.6.1-1.1.2-1.7.1-.4.3-.9.5-1.3.2-.3.5-.6.8-.8.4-.2.8-.3 1.2-.3.4 0 .9.1 1.3.3.3.2.6.4.8.8.2.4.4.8.5 1.3.1.6.1 1.1.1 1.7 0 .6-.1 1.1-.2 1.7-.1.4-.3.9-.5 1.3-.2.3-.5.6-.8.8-.4.2-.8.3-1.2.3-.4 0-.9-.1-1.2-.3-.3-.2-.6-.5-.8-.8-.2-.4-.4-.8-.5-1.3-.2-.6-.2-1.1-.2-1.7zm.9 0v1l3.3-3c-.1-.4-.3-.7-.6-.9-.3-.2-.6-.4-1-.3-.6 0-1.1.3-1.4.8-.2.7-.4 1.6-.3 2.4zm3.6 0c0-.4 0-.7-.1-1.1l-3.3 3c.1.4.3.7.6 1 .3.3.6.4 1 .4.6 0 1.1-.3 1.4-.9.3-.7.4-1.6.4-2.4z"/>
    <path class="st5" d="M27.2 51.7h1.7v-5.8l-1.8 1.2-.4-.6 2.4-1.7h.6v6.9h1.7v.8h-4.3v-.8z"/>
    <path class="st24" d="M33.8 51.7h1.7v-5.8l-1.8 1.2-.4-.6 2.4-1.7h.6v6.9H38v.8h-4.3v-.8z"/>
    <path class="st11" d="M40.4 51.7h1.7v-5.8l-1.8 1.2-.4-.6 2.4-1.7h.7v6.9h1.7v.8h-4.3v-.8z"/>
    <path class="st0" d="M46.2 48.6c0-.6.1-1.1.2-1.7.1-.4.3-.9.5-1.3.2-.3.5-.6.8-.8.4-.2.8-.3 1.2-.3.4 0 .9.1 1.3.3.3.2.6.4.8.8.2.4.4.8.5 1.3.1.6.1 1.1.1 1.7 0 .6 0 1.1-.2 1.7-.1.4-.3.9-.5 1.3-.2.3-.5.6-.8.8-.4.2-.8.3-1.2.3-.4 0-.9-.1-1.2-.3-.3-.2-.6-.5-.8-.8-.2-.4-.4-.8-.5-1.3-.2-.6-.2-1.1-.2-1.7zm.9 0v1l3.3-3c-.1-.4-.3-.7-.6-.9-.3-.2-.6-.4-1-.3-.6 0-1.1.3-1.4.8-.2.7-.4 1.6-.3 2.4zm3.6 0c0-.4 0-.7-.1-1.1l-3.3 3c.1.4.3.7.6 1 .3.3.6.4 1 .4.6 0 1.1-.3 1.4-.9.3-.7.4-1.6.4-2.4z"/>
    <path class="st15" d="M52.8 48.6c0-.6.1-1.1.2-1.7.1-.4.3-.9.5-1.3.2-.3.5-.6.8-.8.4-.2.8-.3 1.2-.3.4 0 .9.1 1.3.3.3.2.6.4.8.8.2.4.4.8.5 1.3.1.6.1 1.1.1 1.7 0 .6-.1 1.1-.2 1.7-.1.4-.3.9-.5 1.3-.2.3-.5.6-.8.8-.4.2-.8.3-1.2.3-.4 0-.9-.1-1.2-.3-.3-.2-.6-.5-.8-.8-.2-.4-.4-.8-.5-1.3-.2-.6-.2-1.1-.2-1.7zm.9 0v1l3.3-3c-.1-.4-.3-.7-.6-.9-.3-.2-.6-.4-1-.3-.6 0-1.1.3-1.4.8-.2.7-.4 1.6-.3 2.4zm3.6 0c0-.4 0-.7-.1-1.1l-3.3 3c.1.4.3.7.6 1 .3.3.6.4 1 .4.6 0 1.1-.3 1.4-.9.3-.7.4-1.6.4-2.4z"/>
    <path class="st29" d="M59.4 48.6c0-.6.1-1.1.2-1.7.1-.4.3-.9.5-1.3.2-.3.5-.6.8-.8.4-.2.8-.3 1.2-.3.4 0 .9.1 1.3.3.3.2.6.4.8.8.2.4.4.8.5 1.3.1.6.1 1.1.1 1.7 0 .6 0 1.1-.2 1.7-.1.4-.3.9-.5 1.3-.2.3-.5.6-.8.8-.4.2-.8.3-1.2.3-.4 0-.9-.1-1.2-.3-.3-.2-.6-.5-.8-.8-.2-.4-.4-.8-.5-1.3-.2-.6-.2-1.1-.2-1.7zm.9 0v1l3.3-3c-.1-.4-.3-.7-.6-.9-.3-.2-.6-.4-1-.3-.6 0-1.1.3-1.4.8-.2.7-.4 1.6-.3 2.4zm3.6 0c0-.4 0-.7-.1-1.1l-3.3 3c.1.4.3.7.6 1 .3.3.6.4 1 .4.6 0 1.1-.3 1.4-.9.3-.7.4-1.6.4-2.4z"/>
    <path class="st3" d="M66 48.6c0-.6.1-1.1.2-1.7.1-.4.3-.9.5-1.3.2-.3.5-.6.8-.8.4-.2.8-.3 1.2-.3.4 0 .9.1 1.3.3.3.2.6.4.8.8.2.4.4.8.5 1.3.1.6.1 1.1.1 1.7 0 .6 0 1.1-.2 1.7-.1.4-.3.9-.5 1.3-.2.3-.5.6-.8.8-.4.2-.8.3-1.2.3-.4 0-.9-.1-1.2-.3-.3-.2-.6-.5-.8-.8-.2-.4-.4-.8-.5-1.3-.2-.6-.2-1.1-.2-1.7zm.9 0v1l3.3-3c-.1-.4-.3-.7-.6-.9-.3-.2-.6-.4-1-.3-.6 0-1.1.3-1.4.8-.2.7-.4 1.6-.3 2.4zm3.6 0c0-.4 0-.7-.1-1.1l-3.3 3c.1.4.3.7.6 1 .3.3.6.4 1 .4.6 0 1.1-.3 1.4-.9.3-.7.4-1.6.4-2.4zM72.6 48.6c0-.6.1-1.1.2-1.7.1-.4.3-.9.5-1.3.2-.3.5-.6.8-.8.4-.2.8-.3 1.2-.3.4 0 .9.1 1.3.3.3.2.6.4.8.8.2.4.4.8.5 1.3.1.6.1 1.1.1 1.7 0 .6 0 1.1-.2 1.7-.1.4-.3.9-.5 1.3-.2.3-.5.6-.8.8-.4.2-.8.3-1.2.3-.4 0-.9-.1-1.2-.3-.3-.2-.6-.5-.8-.8-.2-.4-.4-.8-.5-1.3-.2-.6-.2-1.1-.2-1.7zm.9 0v1l3.3-3c-.1-.4-.3-.7-.6-.9-.3-.2-.6-.4-1-.3-.6 0-1.1.3-1.4.8-.2.7-.4 1.6-.3 2.4zm3.6 0c0-.4 0-.7-.1-1.1l-3.3 3c.1.4.3.7.6 1 .3.3.6.4 1 .4.6 0 1.1-.3 1.4-.9.3-.7.4-1.6.4-2.4z"/>
    <path class="st18" d="M80 51.7h1.7v-5.8L80 47.1l-.4-.6 2.4-1.7h.6v6.9h1.7v.8H80v-.8z"/>
    <path class="st34" d="M86.6 51.7h1.7v-5.8l-1.8 1.2-.4-.6 2.4-1.7h.6v6.9h1.7v.8h-4.3v-.8z"/>
    <path class="st28" d="M93.2 51.7h1.7v-5.8l-1.8 1.2-.4-.6 2.4-1.7h.6v6.9h1.7v.8h-4.3v-.8z"/>
    <path class="st2" d="M99 48.6c0-.6.1-1.1.2-1.7.1-.4.3-.9.5-1.3.2-.3.5-.6.8-.8.4-.2.8-.3 1.2-.3.4 0 .9.1 1.3.3.3.2.6.4.8.8.2.4.4.8.5 1.3.1.6.1 1.1.1 1.7 0 .6 0 1.1-.2 1.7-.1.4-.3.9-.5 1.3-.2.3-.5.6-.8.8-.4.2-.8.3-1.2.3-.4 0-.9-.1-1.2-.3-.3-.2-.6-.5-.8-.8-.2-.4-.4-.8-.5-1.3-.2-.6-.2-1.1-.2-1.7zm.9 0v1l3.3-3c-.1-.4-.3-.7-.6-.9-.3-.2-.6-.4-1-.3-.6 0-1.1.3-1.4.8-.2.7-.4 1.6-.3 2.4zm3.6 0c0-.4 0-.7-.1-1.1l-3.3 3c.1.4.3.7.6 1 .3.3.6.4 1 .4.6 0 1.1-.3 1.4-.8.3-.8.4-1.6.4-2.5z"/>
    <path class="st14" d="M106.4 51.7h1.7v-5.8l-1.8 1.2-.4-.6 2.4-1.7h.7v6.9h1.7v.8h-4.3v-.8z"/>
    <path class="st27" d="M0 61.8c0-.6.1-1.1.2-1.7.1-.4.3-.9.5-1.3.2-.3.5-.6.8-.8.4-.2.8-.3 1.2-.3.4 0 .9.1 1.3.3.3.2.6.4.8.8.2.4.4.8.5 1.3.1.6.1 1.1.1 1.7 0 .6-.1 1.1-.2 1.7-.1.4-.3.9-.5 1.2-.2.3-.5.6-.8.8-.4.2-.8.3-1.2.3-.4 0-.9-.1-1.2-.3-.3-.2-.6-.5-.8-.8-.2-.4-.4-.8-.5-1.3-.1-.5-.2-1-.2-1.6zm.9 0v1l3.3-3c-.1-.4-.3-.7-.6-.9-.3-.2-.6-.4-1-.3-.6 0-1.1.3-1.4.8-.2.7-.4 1.6-.3 2.4zm3.6 0c0-.4 0-.7-.1-1.1l-3.3 3c.1.4.3.7.6 1 .3.3.6.4 1 .4.6 0 1.1-.3 1.4-.8.3-.8.4-1.6.4-2.5z"/>
    <path d="M7.4 64.9h1.7v-5.8l-1.8 1.2-.4-.6L9.4 58h.6v6.9h1.7v.8H7.4v-.8z" opacity=".17" fill="#5ed1ba"/>
    <path class="st21" d="M14 64.9h1.7v-5.8L14 60.3l-.4-.6L16 58h.6v6.9h1.7v.8H14v-.8z"/>
    <path class="st26" d="M20.6 64.9h1.7v-5.8l-1.8 1.2-.4-.6 2.4-1.7h.6v6.9h1.7v.8h-4.3v-.8z"/>
    <path class="st36" d="M26.4 61.8c0-.6.1-1.1.2-1.7.1-.4.3-.9.5-1.3.2-.3.5-.6.8-.8.4-.2.8-.3 1.2-.3.4 0 .9.1 1.3.3.3.2.6.4.8.8.2.4.4.8.5 1.3.1.6.1 1.1.1 1.7 0 .6 0 1.1-.2 1.7-.1.4-.3.9-.5 1.3-.2.3-.5.6-.8.8-.4.2-.8.3-1.2.3-.4 0-.9-.1-1.2-.3-.3-.2-.6-.5-.8-.8-.2-.4-.4-.8-.5-1.3-.2-.6-.2-1.1-.2-1.7zm.9 0v1l3.3-3c-.1-.4-.3-.7-.6-.9-.3-.2-.6-.4-1-.3-.6 0-1.1.3-1.4.8-.2.7-.4 1.6-.3 2.4zm3.6 0c0-.4 0-.7-.1-1.1l-3.3 3c.1.4.3.7.6 1 .3.3.6.4 1 .4.6 0 1.1-.3 1.4-.8.3-.8.4-1.6.4-2.5z"/>
    <path class="st33" d="M33.8 64.9h1.7v-5.8l-1.8 1.2-.4-.6 2.4-1.7h.6v6.9H38v.8h-4.3v-.8z"/>
    <path class="st15" d="M40.4 64.9h1.7v-5.8l-1.8 1.2-.4-.6 2.4-1.7h.7v6.9h1.7v.8h-4.3v-.8z"/>
    <path class="st33" d="M46.2 61.8c0-.6.1-1.1.2-1.7.1-.4.3-.9.5-1.3.2-.3.5-.6.8-.8.4-.2.8-.3 1.2-.3.4 0 .9.1 1.3.3.3.2.6.4.8.8.2.4.4.8.5 1.3.1.6.1 1.1.1 1.7 0 .6 0 1.1-.2 1.7-.1.4-.3.9-.5 1.3-.2.3-.5.6-.8.8-.4.2-.8.3-1.2.3-.4 0-.9-.1-1.2-.3-.3-.2-.6-.5-.8-.8-.2-.4-.4-.8-.5-1.3-.2-.6-.2-1.1-.2-1.7zm.9 0v1l3.3-3c-.1-.4-.3-.7-.6-.9-.3-.2-.6-.4-1-.3-.6 0-1.1.3-1.4.8-.2.7-.4 1.6-.3 2.4zm3.6 0c0-.4 0-.7-.1-1.1l-3.3 3c.1.4.3.7.6 1 .3.3.6.4 1 .4.6 0 1.1-.3 1.4-.8.3-.8.4-1.6.4-2.5z"/>
    <path class="st37" d="M52.8 61.8c0-.6.1-1.1.2-1.7.1-.4.3-.9.5-1.3.2-.3.5-.6.8-.8.4-.2.8-.3 1.2-.3.4 0 .9.1 1.3.3.3.2.6.4.8.8.2.4.4.8.5 1.3.1.6.1 1.1.1 1.7 0 .6-.1 1.1-.2 1.7-.1.4-.3.9-.5 1.3-.2.3-.5.6-.8.8-.4.2-.8.3-1.2.3-.4 0-.9-.1-1.2-.3-.3-.2-.6-.5-.8-.8-.2-.4-.4-.8-.5-1.3-.2-.6-.2-1.1-.2-1.7zm.9 0v1l3.3-3c-.1-.4-.3-.7-.6-.9-.3-.2-.6-.4-1-.3-.6 0-1.1.3-1.4.8-.2.7-.4 1.6-.3 2.4zm3.6 0c0-.4 0-.7-.1-1.1l-3.3 3c.1.4.3.7.6 1 .3.3.6.4 1 .4.6 0 1.1-.3 1.4-.8.3-.8.4-1.6.4-2.5z"/>
    <path d="M60.2 64.9h1.7v-5.8l-1.8 1.2-.4-.6 2.4-1.7h.6v6.9h1.7v.8h-4.3v-.8z" opacity=".21" fill="#5ed1ba"/>
    <path d="M66 61.8c0-.6.1-1.1.2-1.7.1-.4.3-.9.5-1.3.2-.3.5-.6.8-.8.4-.2.8-.3 1.2-.3.4 0 .9.1 1.3.3.3.2.6.4.8.8.2.4.4.8.5 1.3.1.6.1 1.1.1 1.7 0 .6 0 1.1-.2 1.7-.1.4-.3.9-.5 1.3-.2.3-.5.6-.8.8-.4.2-.8.3-1.2.3-.4 0-.9-.1-1.2-.3-.3-.2-.6-.5-.8-.8-.2-.4-.4-.8-.5-1.3-.2-.6-.2-1.1-.2-1.7zm.9 0v1l3.3-3c-.1-.4-.3-.7-.6-.9-.3-.2-.6-.4-1-.3-.6 0-1.1.3-1.4.8-.2.7-.4 1.6-.3 2.4zm3.6 0c0-.4 0-.7-.1-1.1l-3.3 3c.1.4.3.7.6 1 .3.3.6.4 1 .4.6 0 1.1-.3 1.4-.8.3-.8.4-1.6.4-2.5z" opacity=".25" fill="#5ed1ba"/>
    <path class="st24" d="M72.6 61.8c0-.6.1-1.1.2-1.7.1-.4.3-.9.5-1.3.2-.3.5-.6.8-.8.4-.2.8-.3 1.2-.3.4 0 .9.1 1.3.3.3.2.6.4.8.8.2.4.4.8.5 1.3.1.6.1 1.1.1 1.7 0 .6 0 1.1-.2 1.7-.1.4-.3.9-.5 1.3-.2.3-.5.6-.8.8-.4.2-.8.3-1.2.3-.4 0-.9-.1-1.2-.3-.3-.2-.6-.5-.8-.8-.2-.4-.4-.8-.5-1.3-.2-.6-.2-1.1-.2-1.7zm.9 0v1l3.3-3c-.1-.4-.3-.7-.6-.9-.3-.2-.6-.4-1-.3-.6 0-1.1.3-1.4.8-.2.7-.4 1.6-.3 2.4zm3.6 0c0-.4 0-.7-.1-1.1l-3.3 3c.1.4.3.7.6 1 .3.3.6.4 1 .4.6 0 1.1-.3 1.4-.8.3-.8.4-1.6.4-2.5z"/>
    <path class="st23" d="M80 64.9h1.7v-5.8L80 60.3l-.4-.6L82 58h.6v6.9h1.7v.8H80v-.8z"/>
    <path class="st36" d="M86.6 64.9h1.7v-5.8l-1.8 1.2-.4-.6 2.4-1.7h.6v6.9h1.7v.8h-4.3v-.8z"/>
    <path class="st14" d="M92.4 61.8c0-.6.1-1.1.2-1.7.1-.4.3-.9.5-1.3.2-.3.5-.6.8-.8.4-.2.8-.3 1.2-.3.4 0 .9.1 1.3.3.3.2.6.4.8.8.2.4.4.8.5 1.3.1.6.1 1.1.1 1.7 0 .6 0 1.1-.2 1.7-.1.4-.3.9-.5 1.3-.2.3-.5.6-.8.8-.4.2-.8.3-1.2.3-.4 0-.9-.1-1.2-.3-.3-.2-.6-.5-.8-.8-.2-.4-.4-.8-.5-1.3-.2-.6-.2-1.1-.2-1.7zm.9 0v1l3.3-3c-.1-.4-.3-.7-.6-.9-.3-.2-.6-.4-1-.3-.6 0-1.1.3-1.4.8-.2.7-.4 1.6-.3 2.4zm3.6 0c0-.4 0-.7-.1-1.1l-3.3 3c.1.4.3.7.6 1 .3.3.6.4 1 .4.6 0 1.1-.3 1.4-.8.3-.8.4-1.6.4-2.5z"/>
    <path class="st37" d="M99 61.8c0-.6.1-1.1.2-1.7.1-.4.3-.9.5-1.3.2-.3.5-.6.8-.8.4-.2.8-.3 1.2-.3.4 0 .9.1 1.3.3.3.2.6.4.8.8.2.4.4.8.5 1.3.1.6.1 1.1.1 1.7 0 .6 0 1.1-.2 1.7-.1.4-.3.9-.5 1.3-.2.3-.5.6-.8.8-.4.2-.8.3-1.2.3-.4 0-.9-.1-1.2-.3-.3-.2-.6-.5-.8-.8-.2-.4-.4-.8-.5-1.3-.2-.6-.2-1.1-.2-1.7zm.9 0v1l3.3-3c-.1-.4-.3-.7-.6-.9-.3-.2-.6-.4-1-.3-.6 0-1.1.3-1.4.8-.2.7-.4 1.6-.3 2.4zm3.6 0c0-.4 0-.7-.1-1.1l-3.3 3c.1.4.3.7.6 1 .3.3.6.4 1 .4.6 0 1.1-.3 1.4-.8.3-.8.4-1.6.4-2.5z"/>
    <path class="st27" d="M105.6 61.8c0-.6.1-1.1.2-1.7.1-.4.3-.9.5-1.3.2-.3.5-.6.8-.8.4-.2.8-.3 1.2-.3.4 0 .9.1 1.3.3.3.2.6.4.8.8.2.4.4.8.5 1.3.1.6.1 1.1.1 1.7 0 .6 0 1.1-.2 1.7-.1.4-.3.9-.5 1.3-.2.3-.5.6-.8.8-.4.2-.8.3-1.2.3-.4 0-.9-.1-1.2-.3-.3-.2-.6-.5-.8-.8-.2-.4-.4-.8-.5-1.3-.2-.6-.2-1.1-.2-1.7zm.9 0v1l3.3-3c-.1-.4-.3-.7-.6-.9-.3-.2-.6-.4-1-.3-.6 0-1.1.3-1.4.8-.2.7-.4 1.6-.3 2.4zm3.6 0c0-.4 0-.7-.1-1.1l-3.3 3c.1.4.3.7.6 1 .3.3.6.4 1 .4.6 0 1.1-.3 1.4-.8.3-.8.4-1.6.4-2.5z"/>
    <path d="M0 75c0-.6.1-1.1.2-1.7.1-.4.3-.9.5-1.3.2-.3.5-.6.8-.8.4-.1.8-.2 1.2-.2.4 0 .9.1 1.3.3.3.2.6.4.8.8.2.4.4.8.5 1.3.1.6.1 1.1.1 1.7 0 .6-.1 1.1-.2 1.7-.1.4-.2.8-.5 1.2-.2.3-.5.6-.8.8-.4.1-.8.2-1.2.2-.4 0-.9-.1-1.2-.3-.3-.2-.6-.5-.8-.8-.2-.4-.4-.8-.5-1.3-.2-.5-.2-1-.2-1.6zm.9 0v1l3.3-3c-.1-.4-.3-.7-.6-1-.3-.2-.6-.4-1-.3-.6 0-1.1.3-1.4.8-.2.8-.4 1.7-.3 2.5zm3.6 0c0-.4 0-.7-.1-1.1l-3.3 3c.1.4.3.7.6 1 .3.3.6.4 1 .4.6 0 1.1-.3 1.4-.8.3-.8.4-1.6.4-2.5z" opacity=".13" fill="#5ed1ba"/>
    <path d="M7.4 78h1.7v-5.8l-1.8 1.2-.4-.6 2.4-1.7h.7V78h1.7v.8H7.4V78z" opacity=".29" fill="#5ed1ba"/>
    <path class="st42" d="M14 78h1.7v-5.8L14 73.5l-.4-.6 2.4-1.7h.6V78h1.7v.8H14V78z"/>
    <path class="st31" d="M19.8 75c0-.6.1-1.1.2-1.7.1-.4.3-.9.5-1.3.2-.3.5-.6.8-.8.4-.2.8-.3 1.2-.3.4 0 .9.1 1.3.3.3.2.6.4.8.8.2.4.4.8.5 1.3.1.6.1 1.1.1 1.7 0 .6-.1 1.1-.2 1.7-.1.4-.3.9-.5 1.3-.2.3-.5.6-.8.8-.4.2-.8.3-1.2.3-.4 0-.9-.1-1.2-.3-.3-.2-.6-.5-.8-.8-.2-.4-.4-.8-.5-1.3-.2-.6-.2-1.1-.2-1.7zm.9 0v1l3.3-3c-.1-.4-.3-.7-.6-1-.3-.2-.6-.4-1-.3-.6 0-1.1.3-1.4.8-.3.8-.4 1.7-.3 2.5zm3.6 0c0-.4 0-.7-.1-1.1l-3.3 3c.1.4.3.7.6 1 .3.3.6.4 1 .4.6 0 1.1-.3 1.4-.8.3-.8.4-1.6.4-2.5z"/>
    <path d="M26.4 75c0-.6.1-1.1.2-1.7.1-.4.3-.9.5-1.3.2-.3.5-.6.8-.8.4-.2.8-.3 1.2-.3.4 0 .9.1 1.3.3.3.2.6.4.8.8.2.4.4.8.5 1.3.1.6.1 1.1.1 1.7 0 .6 0 1.1-.2 1.7-.1.4-.3.9-.5 1.3-.2.3-.5.6-.8.8-.4.2-.8.3-1.2.3-.4 0-.9-.1-1.2-.3-.3-.2-.6-.5-.8-.8-.2-.4-.4-.8-.5-1.3-.2-.6-.2-1.1-.2-1.7zm.9 0v1l3.3-3c-.1-.4-.3-.7-.6-1-.3-.2-.6-.4-1-.3-.6 0-1.1.3-1.4.8-.3.8-.4 1.7-.3 2.5zm3.6 0c0-.4 0-.7-.1-1.1l-3.3 3c.1.4.3.7.6 1 .3.3.6.4 1 .4.6 0 1.1-.3 1.4-.8.3-.8.4-1.6.4-2.5z" opacity=".28" fill="#5ed1ba"/>
    <path class="st28" d="M33 75c0-.6.1-1.1.2-1.7.1-.4.3-.9.5-1.3.2-.3.5-.6.8-.8.4-.2.8-.3 1.2-.3.4 0 .9.1 1.3.3.3.2.6.4.8.8.2.4.4.8.5 1.3.1.6.1 1.1.1 1.7 0 .6 0 1.1-.2 1.7-.1.4-.3.9-.5 1.3-.2.3-.5.6-.8.8-.4.2-.8.3-1.2.3-.4 0-.9-.1-1.2-.3-.3-.2-.6-.5-.8-.8-.2-.4-.4-.8-.5-1.3-.2-.6-.2-1.1-.2-1.7zm.9 0v1l3.3-3c-.1-.4-.3-.7-.6-1-.3-.2-.6-.4-1-.3-.6 0-1.1.3-1.4.8-.3.8-.4 1.7-.3 2.5zm3.6 0c0-.4 0-.7-.1-1.1l-3.3 3c.1.4.3.7.6 1 .3.3.6.4 1 .4.6 0 1.1-.3 1.4-.8.3-.8.4-1.6.4-2.5z"/>
    <path class="st34" d="M40.4 78h1.7v-5.8l-1.8 1.2-.4-.6 2.4-1.7h.7V78h1.7v.8h-4.3V78z"/>
    <path class="st44" d="M46.2 75c0-.6.1-1.1.2-1.7.1-.4.3-.9.5-1.3.2-.3.5-.6.8-.8.4-.2.8-.3 1.2-.3.4 0 .9.1 1.3.3.3.2.6.4.8.7.2.4.4.8.5 1.3.1.6.1 1.1.1 1.7 0 .6 0 1.1-.2 1.7-.1.4-.3.9-.5 1.3-.2.3-.5.6-.8.8-.4.2-.8.3-1.2.3-.4 0-.9-.1-1.2-.3-.3-.2-.6-.5-.8-.8-.2-.4-.4-.8-.5-1.3-.1-.5-.2-1-.2-1.6zm.9 0v1l3.3-3c-.1-.4-.3-.7-.6-1-.3-.2-.6-.4-1-.3-.6 0-1.1.3-1.4.8-.3.8-.4 1.7-.3 2.5zm3.6 0c0-.4 0-.7-.1-1.1l-3.3 3c.1.4.3.7.6 1 .3.3.6.4 1 .4.6 0 1.1-.3 1.4-.8.3-.8.4-1.6.4-2.5z"/>
    <path class="st20" d="M52.8 75c0-.6.1-1.1.2-1.7.1-.4.3-.9.5-1.3.2-.3.5-.6.8-.8.4-.2.8-.3 1.2-.3.4 0 .9.1 1.3.3.3.2.6.4.8.8.2.4.4.8.5 1.3.1.6.1 1.1.1 1.7 0 .6-.1 1.1-.2 1.7-.1.4-.3.9-.5 1.3-.2.3-.5.6-.8.8-.4.2-.8.3-1.2.3-.4 0-.9-.1-1.2-.3-.3-.2-.6-.5-.8-.8-.2-.4-.4-.8-.5-1.3-.2-.6-.2-1.1-.2-1.7zm.9 0v1l3.3-3c-.1-.4-.3-.7-.6-1-.3-.2-.6-.4-1-.3-.6 0-1.1.3-1.4.8-.3.8-.4 1.7-.3 2.5zm3.6 0c0-.4 0-.7-.1-1.1l-3.3 3c.1.4.3.7.6 1 .3.3.6.4 1 .4.6 0 1.1-.3 1.4-.8.3-.8.4-1.6.4-2.5z"/>
    <path class="st44" d="M59.4 75c0-.6.1-1.1.2-1.7.1-.4.3-.9.5-1.3.2-.3.5-.6.8-.8.4-.2.8-.3 1.2-.3.4 0 .9.1 1.3.3.3.2.6.4.8.8.2.4.4.8.5 1.3.1.6.1 1.1.1 1.7 0 .6 0 1.1-.2 1.7-.1.4-.3.9-.5 1.3-.2.3-.5.6-.8.8-.4.2-.8.3-1.2.3-.4 0-.9-.1-1.2-.3-.3-.2-.6-.5-.8-.8-.2-.4-.4-.8-.5-1.3-.2-.6-.2-1.1-.2-1.7zm.9 0v1l3.3-3c-.1-.4-.3-.7-.6-1-.3-.2-.6-.4-1-.3-.6 0-1.1.3-1.4.8-.3.8-.4 1.7-.3 2.5zm3.6 0c0-.4 0-.7-.1-1.1l-3.3 3c.1.4.3.7.6 1 .3.3.6.4 1 .4.6 0 1.1-.3 1.4-.8.3-.8.4-1.6.4-2.5z"/>
    <path class="st31" d="M66.8 78h1.7v-5.8l-1.8 1.2-.4-.6 2.4-1.7h.6V78H71v.8h-4.3V78z"/>
    <path class="st1" d="M73.4 78h1.7v-5.8l-1.8 1.2-.4-.6 2.4-1.7h.7V78h1.7v.8h-4.3V78z"/>
    <path class="st30" d="M79.2 75c0-.6.1-1.1.2-1.7.1-.4.3-.9.5-1.3.2-.3.5-.6.8-.8.4-.2.8-.3 1.2-.3.4 0 .9.1 1.3.3.3.2.6.4.8.7.2.4.4.8.5 1.3.1.6.1 1.1.1 1.7 0 .6 0 1.1-.2 1.7-.1.4-.3.9-.5 1.3-.2.3-.5.6-.8.8-.4.2-.8.3-1.2.3-.4 0-.9-.1-1.2-.3-.3-.2-.6-.5-.8-.8-.2-.4-.4-.8-.5-1.3-.1-.5-.2-1-.2-1.6zm.9 0v1l3.3-3c-.1-.4-.3-.7-.6-1-.3-.2-.6-.4-1-.3-.6 0-1.1.3-1.4.8-.3.8-.4 1.7-.3 2.5zm3.6 0c0-.4 0-.7-.1-1.1l-3.3 3c.1.4.3.7.6 1 .3.3.6.4 1 .4.6 0 1.1-.3 1.4-.8.3-.8.4-1.6.4-2.5z"/>
    <path d="M85.8 75c0-.6.1-1.1.2-1.7.1-.4.3-.9.5-1.3.2-.3.5-.6.8-.8.4-.2.8-.3 1.2-.3.4 0 .9.1 1.3.3.3.2.6.4.8.8.2.4.4.8.5 1.3.1.6.1 1.1.1 1.7 0 .6-.1 1.1-.2 1.7-.1.4-.3.9-.5 1.3-.2.3-.5.6-.8.8-.4.2-.8.3-1.2.3-.4 0-.9-.1-1.2-.3-.3-.2-.6-.5-.8-.8-.2-.4-.4-.8-.5-1.3-.2-.6-.2-1.1-.2-1.7zm.9 0v1l3.3-3c-.1-.4-.3-.7-.6-1-.3-.2-.6-.4-1-.3-.6 0-1.1.3-1.4.8-.3.8-.4 1.7-.3 2.5zm3.6 0c0-.4 0-.7-.1-1.1l-3.3 3c.1.4.3.7.6 1 .3.3.6.4 1 .4.6 0 1.1-.3 1.4-.8.3-.8.4-1.6.4-2.5z" opacity=".05" fill="#5ed1ba"/>
    <path class="st4" d="M93.2 78h1.7v-5.8l-1.8 1.2-.4-.6 2.4-1.7h.6V78h1.7v.8h-4.3V78z"/>
    <path class="st17" d="M99.8 78h1.7v-5.8l-1.8 1.2-.4-.6 2.4-1.7h.6V78h1.7v.8h-4.3V78z"/>
    <path class="st3" d="M105.6 75c0-.6.1-1.1.2-1.7.1-.4.3-.9.5-1.3.2-.3.5-.6.8-.8.4-.2.8-.3 1.2-.3.4 0 .9.1 1.3.3.3.2.6.4.8.8.2.4.4.8.5 1.3.1.6.2 1.1.2 1.7 0 .6 0 1.1-.2 1.7-.1.4-.3.9-.5 1.3-.2.3-.5.6-.8.8-.4.2-.8.3-1.2.3-.4 0-.9-.1-1.2-.3-.3-.2-.6-.5-.8-.8-.2-.4-.4-.8-.5-1.3-.2-.6-.3-1.1-.3-1.7zm.9 0v1l3.3-3c-.1-.4-.3-.7-.6-1-.3-.2-.6-.4-1-.3-.6 0-1.1.3-1.4.8-.3.8-.4 1.7-.3 2.5zm3.6 0c0-.4 0-.7-.1-1.1l-3.3 3c.1.4.3.7.6 1 .3.3.6.4 1 .4.6 0 1.1-.3 1.4-.8.3-.8.4-1.6.4-2.5z"/>
    <path class="st46" d="M.8 91.3h1.7v-5.8L.7 86.7l-.4-.6 2.4-1.7h.6v6.9H5v.7H.8v-.7z"/>
    <path class="st5" d="M6.6 88.2c0-.6.1-1.1.2-1.7.1-.4.3-.9.5-1.3.2-.3.5-.6.8-.8.4-.2.8-.3 1.2-.3.4 0 .9.1 1.3.3.3.2.6.4.8.8.2.4.4.8.5 1.3.1.6.1 1.1.1 1.7 0 .6 0 1.1-.2 1.7-.1.4-.3.9-.5 1.3-.2.3-.5.6-.8.8-.4.2-.8.3-1.2.3-.4 0-.9-.1-1.2-.3-.3-.2-.6-.5-.8-.8-.2-.4-.4-.8-.5-1.3-.2-.6-.2-1.1-.2-1.7zm.9 0v1l3.3-3c-.1-.4-.3-.7-.6-.9-.3-.2-.6-.4-1-.3-.6 0-1.1.3-1.4.8-.2.7-.4 1.6-.3 2.4zm3.6 0c0-.4 0-.7-.1-1.1l-3.3 3c.1.4.3.7.6 1 .3.3.6.4 1 .4.6 0 1.1-.3 1.4-.8.3-.8.4-1.6.4-2.5zM13.2 88.2c0-.6.1-1.1.2-1.7.1-.4.3-.9.5-1.3.2-.3.5-.6.8-.8.4-.2.8-.3 1.2-.3.4 0 .9.1 1.3.3.3.2.6.4.8.8.2.4.4.8.5 1.3.1.6.1 1.1.1 1.7 0 .6 0 1.1-.2 1.7-.1.4-.3.9-.5 1.3-.2.3-.5.6-.8.8-.4.2-.8.3-1.2.3-.4 0-.9-.1-1.2-.3-.3-.2-.6-.5-.8-.8-.2-.4-.4-.8-.5-1.3-.2-.6-.2-1.1-.2-1.7zm.9 0v1l3.3-3c-.1-.4-.3-.7-.6-.9-.3-.2-.6-.4-1-.3-.6 0-1.1.3-1.4.8-.2.7-.4 1.6-.3 2.4zm3.6 0c0-.4 0-.7-.1-1.1l-3.3 3c.1.4.3.7.6 1 .3.3.6.4 1 .4.6 0 1.1-.3 1.4-.8.3-.8.4-1.6.4-2.5z"/>
    <path class="st47" d="M20.6 91.3h1.7v-5.8l-1.8 1.2-.4-.6 2.4-1.7h.6v6.9h1.7v.7h-4.3v-.7z"/>
    <path class="st42" d="M27.2 91.3h1.7v-5.8l-1.8 1.2-.4-.6 2.4-1.7h.6v6.9h1.7v.7h-4.3v-.7z"/>
    <path class="st17" d="M33 88.2c0-.6.1-1.1.2-1.7.1-.4.3-.9.5-1.3.2-.3.5-.6.8-.8.4-.2.8-.3 1.2-.3.4 0 .9.1 1.3.3.3.2.6.4.8.8.2.4.4.8.5 1.3.1.6.1 1.1.1 1.7 0 .6 0 1.1-.2 1.7-.1.4-.3.9-.5 1.3-.2.3-.5.6-.8.8-.4.2-.8.3-1.2.3-.4 0-.9-.1-1.2-.3-.3-.2-.6-.5-.8-.8-.2-.4-.4-.8-.5-1.3-.2-.6-.2-1.1-.2-1.7zm.9 0v1l3.3-3c-.1-.4-.3-.7-.6-.9-.3-.2-.6-.4-1-.3-.6 0-1.1.3-1.4.8-.2.7-.4 1.6-.3 2.4zm3.6 0c0-.4 0-.7-.1-1.1l-3.3 3c.1.4.3.7.6 1 .3.3.6.4 1 .4.6 0 1.1-.3 1.4-.8.3-.8.4-1.6.4-2.5z"/>
    <path class="st46" d="M39.6 88.2c0-.6.1-1.1.2-1.7.1-.4.3-.9.5-1.3.2-.3.5-.6.8-.8.4-.2.8-.3 1.2-.3.4 0 .9.1 1.3.3.3.2.6.4.8.8.2.4.4.8.5 1.3.1.6.1 1.1.1 1.7 0 .6 0 1.1-.2 1.7-.1.4-.3.9-.5 1.3-.2.3-.5.6-.8.8-.4.2-.8.3-1.2.3-.4 0-.9-.1-1.2-.3-.3-.2-.6-.5-.8-.8-.2-.4-.4-.8-.5-1.3-.2-.6-.2-1.1-.2-1.7zm.9 0v1l3.3-3c-.1-.4-.3-.7-.6-.9-.3-.2-.6-.4-1-.3-.6 0-1.1.3-1.4.8-.2.7-.4 1.6-.3 2.4zm3.6 0c0-.4 0-.7-.1-1.1l-3.3 3c.1.4.3.7.6 1 .3.3.6.4 1 .4.6 0 1.1-.3 1.4-.8.3-.8.4-1.6.4-2.5z"/>
    <path class="st19" d="M46.2 88.2c0-.6.1-1.1.2-1.7.1-.4.3-.9.5-1.3.2-.3.5-.6.8-.8.4-.2.8-.3 1.2-.3.4 0 .9.1 1.3.3.3.2.6.4.8.8.2.4.4.8.5 1.3.1.6.1 1.1.1 1.7 0 .6 0 1.1-.2 1.7-.1.4-.3.9-.5 1.3-.2.3-.5.6-.8.8-.4.2-.8.3-1.2.3-.4 0-.9-.1-1.2-.3-.3-.2-.6-.5-.8-.8-.2-.4-.4-.8-.5-1.3-.2-.6-.2-1.1-.2-1.7zm.9 0v1l3.3-3c-.1-.4-.3-.7-.6-.9-.3-.2-.6-.4-1-.3-.6 0-1.1.3-1.4.8-.2.7-.4 1.6-.3 2.4zm3.6 0c0-.4 0-.7-.1-1.1l-3.3 3c.1.4.3.7.6 1 .3.3.6.4 1 .4.6 0 1.1-.3 1.4-.8.3-.8.4-1.6.4-2.5z"/>
    <path d="M53.6 91.3h1.7v-5.8l-1.8 1.2-.4-.6 2.4-1.7h.6v6.9h1.7v.7h-4.3v-.7z" opacity=".51" fill="#5ed1ba"/>
    <path class="st19" d="M59.4 88.2c0-.6.1-1.1.2-1.7.1-.4.3-.9.5-1.3.2-.3.5-.6.8-.8.4-.2.8-.3 1.2-.3.4 0 .9.1 1.3.3.3.2.6.4.8.8.2.4.4.8.5 1.3.1.6.1 1.1.1 1.7 0 .6 0 1.1-.2 1.7-.1.4-.3.9-.5 1.3-.2.3-.5.6-.8.8-.4.2-.8.3-1.2.3-.4 0-.9-.1-1.2-.3-.3-.2-.6-.5-.8-.8-.2-.4-.4-.8-.5-1.3-.2-.6-.2-1.1-.2-1.7zm.9 0v1l3.3-3c-.1-.4-.3-.7-.6-.9-.3-.2-.6-.4-1-.3-.6 0-1.1.3-1.4.8-.2.7-.4 1.6-.3 2.4zm3.6 0c0-.4 0-.7-.1-1.1l-3.3 3c.1.4.3.7.6 1 .3.3.6.4 1 .4.6 0 1.1-.3 1.4-.8.3-.8.4-1.6.4-2.5z"/>
    <path class="st21" d="M66 88.2c0-.6.1-1.1.2-1.7.1-.4.3-.9.5-1.3.2-.3.5-.6.8-.8.4-.2.8-.3 1.2-.3.4 0 .9.1 1.3.3.3.2.6.4.8.8.2.4.4.8.5 1.3.1.6.1 1.1.1 1.7 0 .6 0 1.1-.2 1.7-.1.4-.3.9-.5 1.3-.2.3-.5.6-.8.8-.4.2-.8.3-1.2.3-.4 0-.9-.1-1.2-.3-.3-.2-.6-.5-.8-.8-.2-.4-.4-.8-.5-1.3-.2-.6-.2-1.1-.2-1.7zm.9 0v1l3.3-3c-.1-.4-.3-.7-.6-.9-.3-.2-.6-.4-1-.3-.6 0-1.1.3-1.4.8-.2.7-.4 1.6-.3 2.4zm3.6 0c0-.4 0-.7-.1-1.1l-3.3 3c.1.4.3.7.6 1 .3.3.6.4 1 .4.6 0 1.1-.3 1.4-.8.3-.8.4-1.6.4-2.5z"/>
    <path class="st30" d="M73.4 91.3h1.7v-5.8l-1.8 1.2-.4-.6 2.4-1.7h.7v6.9h1.7v.7h-4.3v-.7z"/>
    <path class="st29" d="M80 91.3h1.7v-5.8L80 86.7l-.4-.6 2.4-1.7h.6v6.9h1.7v.7H80v-.7z"/>
    <path class="st14" d="M85.8 88.2c0-.6.1-1.1.2-1.7.1-.4.3-.9.5-1.3.2-.3.5-.6.8-.8.4-.2.8-.3 1.2-.3.4 0 .9.1 1.3.3.3.2.6.4.8.8.2.4.4.8.5 1.3.1.6.1 1.1.1 1.7 0 .6-.1 1.1-.2 1.7-.1.4-.3.9-.5 1.3-.2.3-.5.6-.8.8-.4.2-.8.3-1.2.3-.4 0-.9-.1-1.2-.3-.3-.2-.6-.5-.8-.8-.2-.4-.4-.8-.5-1.3-.2-.6-.2-1.1-.2-1.7zm.9 0v1l3.3-3c-.1-.4-.3-.7-.6-.9-.3-.2-.6-.4-1-.3-.6 0-1.1.3-1.4.8-.2.7-.4 1.6-.3 2.4zm3.6 0c0-.4 0-.7-.1-1.1l-3.3 3c.1.4.3.7.6 1 .3.3.6.4 1 .4.6 0 1.1-.3 1.4-.8.3-.8.4-1.6.4-2.5z"/>
    <path class="st34" d="M92.4 88.2c0-.6.1-1.1.2-1.7.1-.4.3-.9.5-1.3.2-.3.5-.6.8-.8.4-.2.8-.3 1.2-.3.4 0 .9.1 1.3.3.3.2.6.4.8.8.2.4.4.8.5 1.3.1.6.1 1.1.1 1.7 0 .6 0 1.1-.2 1.7-.1.4-.3.9-.5 1.3-.2.3-.5.6-.8.8-.4.2-.8.3-1.2.3-.4 0-.9-.1-1.2-.3-.3-.2-.6-.5-.8-.8-.2-.4-.4-.8-.5-1.3-.2-.6-.2-1.1-.2-1.7zm.9 0v1l3.3-3c-.1-.4-.3-.7-.6-.9-.3-.2-.6-.4-1-.3-.6 0-1.1.3-1.4.8-.2.7-.4 1.6-.3 2.4zm3.6 0c0-.4 0-.7-.1-1.1l-3.3 3c.1.4.3.7.6 1 .3.3.6.4 1 .4.6 0 1.1-.3 1.4-.8.3-.8.4-1.6.4-2.5z"/>
    <path class="st47" d="M99 88.2c0-.6.1-1.1.2-1.7.1-.4.3-.9.5-1.3.2-.3.5-.6.8-.8.4-.2.8-.3 1.2-.3.4 0 .9.1 1.3.3.3.2.6.4.8.8.2.4.4.8.5 1.3.1.6.1 1.1.1 1.7 0 .6 0 1.1-.2 1.7-.1.4-.3.9-.5 1.3-.2.3-.5.6-.8.8-.4.2-.8.3-1.2.3-.4 0-.9-.1-1.2-.3-.3-.2-.6-.5-.8-.8-.2-.4-.4-.8-.5-1.3-.2-.6-.2-1.1-.2-1.7zm.9 0v1l3.3-3c-.1-.4-.3-.7-.6-.9-.3-.2-.6-.4-1-.3-.6 0-1.1.3-1.4.8-.2.7-.4 1.6-.3 2.4zm3.6 0c0-.4 0-.7-.1-1.1l-3.3 3c.1.4.3.7.6 1 .3.3.6.4 1 .4.6 0 1.1-.3 1.4-.8.3-.8.4-1.6.4-2.5z"/>
    <path class="st5" d="M105.6 88.2c0-.6.1-1.1.2-1.7.1-.4.3-.9.5-1.3.2-.3.5-.6.8-.8.4-.2.8-.3 1.2-.3.4 0 .9.1 1.3.3.3.2.6.4.8.8.2.4.4.8.5 1.3.1.6.1 1.1.1 1.7 0 .6 0 1.1-.2 1.7-.1.4-.3.9-.5 1.3-.2.3-.5.6-.8.8-.4.2-.8.3-1.2.3-.4 0-.9-.1-1.2-.3-.3-.2-.6-.5-.8-.8-.2-.4-.4-.8-.5-1.3-.2-.6-.2-1.1-.2-1.7zm.9 0v1l3.3-3c-.1-.4-.3-.7-.6-.9-.3-.2-.6-.4-1-.3-.6 0-1.1.3-1.4.8-.2.7-.4 1.6-.3 2.4zm3.6 0c0-.4 0-.7-.1-1.1l-3.3 3c.1.4.3.7.6 1 .3.3.6.4 1 .4.6 0 1.1-.3 1.4-.8.3-.8.4-1.6.4-2.5z"/>
  </g>
</svg>
