<?xml version="1.0" standalone="no"?>
<!DOCTYPE svg PUBLIC "-//W3C//DTD SVG 20010904//EN"
 "http://www.w3.org/TR/2001/REC-SVG-20010904/DTD/svg10.dtd">
<svg version="1.0" xmlns="http://www.w3.org/2000/svg"
 width="437.000000pt" height="437.000000pt" viewBox="0 0 437.000000 437.000000"
 preserveAspectRatio="xMidYMid meet">
<metadata>
Created by potrace 1.11, written by Peter Selinger 2001-2013
</metadata>
<g transform="translate(0.000000,437.000000) scale(0.100000,-0.100000)"
fill="#000000" stroke="none">
<path d="M0 2185 c0 -2074 1 -2185 18 -2185 15 0 15 2 2 11 -12 8 -12 12 -2
16 10 4 10 8 2 18 -8 10 -8 19 -1 34 8 14 8 21 -2 24 -18 7 11 33 46 41 24 6
27 3 27 -17 0 -25 -28 -57 -48 -57 -15 0 -16 -17 -2 -25 6 -4 8 -15 5 -26 -4
-11 -2 -19 4 -19 6 0 11 7 11 15 0 21 34 48 77 61 42 12 53 29 25 36 -26 7
-27 54 -1 61 11 3 17 11 14 19 -4 9 5 20 20 28 14 7 24 18 22 24 -4 11 -66 17
-65 6 2 -23 -4 -37 -17 -37 -18 0 -18 0 -1 41 9 22 11 37 4 44 -14 14 43 2 70
-16 12 -8 22 -21 22 -28 0 -11 7 -13 27 -8 15 4 34 7 43 7 8 0 20 3 25 8 7 5
11 -1 10 -18 0 -32 -11 -36 -64 -24 -31 7 -41 6 -37 -2 4 -7 9 -20 12 -30 4
-9 13 -17 21 -17 12 0 13 3 4 14 -9 11 -9 16 0 22 8 5 23 -5 40 -25 15 -18 28
-28 30 -22 3 7 9 7 19 1 13 -8 12 -10 -2 -10 -10 0 -18 -4 -18 -8 0 -14 -34
-10 -52 6 -18 15 -19 13 -22 -20 -1 -6 10 -12 23 -13 14 -1 27 -7 29 -14 2 -6
10 -18 18 -26 16 -16 2 -31 -18 -19 -10 6 -10 4 0 -8 10 -13 10 -17 -3 -22 -8
-3 -15 -10 -15 -16 0 -8 26 -10 76 -9 73 3 75 4 69 26 -4 18 -1 23 15 23 23 0
25 8 6 33 -13 17 -15 17 -40 -8 -15 -15 -23 -31 -20 -37 4 -7 2 -8 -4 -4 -6 4
-10 21 -8 38 2 17 -5 51 -15 76 -10 24 -19 58 -19 75 0 36 -38 120 -51 111 -5
-3 -9 -1 -9 5 0 19 20 22 50 6 16 -8 30 -20 30 -26 0 -6 9 -8 20 -4 15 5 20 2
20 -12 0 -11 15 -26 35 -37 35 -19 48 -57 24 -72 -8 -4 -9 1 -4 16 5 15 4 20
-4 16 -6 -4 -9 -2 -6 6 3 7 -3 18 -14 25 -27 17 -35 -8 -12 -39 9 -13 25 -39
35 -58 10 -19 24 -46 32 -60 16 -29 19 -80 4 -80 -5 0 -10 10 -10 23 -1 21 -1
21 -15 3 -13 -17 -13 -21 5 -33 22 -16 40 -10 40 13 0 8 5 14 11 14 6 0 9 -9
6 -20 -4 -15 0 -20 14 -20 10 0 18 3 18 7 -4 23 3 31 21 26 11 -3 20 -10 20
-15 0 -6 -7 -8 -15 -4 -8 3 -15 1 -15 -3 0 -5 26 -9 58 -9 48 -1 62 3 89 26
17 15 35 39 38 55 6 24 5 27 -16 25 -16 -2 -29 7 -46 32 -13 19 -20 36 -15 38
6 2 8 11 5 21 -7 26 23 45 71 46 23 1 48 5 54 9 7 4 20 2 28 -5 11 -9 19 -8
37 7 12 10 24 20 26 21 1 1 0 7 -4 13 -5 8 -10 8 -20 0 -8 -7 -30 -10 -49 -9
-19 2 -38 0 -42 -4 -12 -12 -24 -8 -24 8 0 8 -7 15 -16 15 -10 0 -14 6 -11 14
4 10 -2 13 -19 12 -26 -1 -29 -7 -14 -22 12 -12 -31 -64 -52 -64 -9 0 -21 -7
-28 -15 -7 -8 -18 -15 -24 -15 -6 0 4 12 21 26 28 22 33 32 33 68 0 23 -6 51
-14 62 -18 24 -32 13 -16 -13 10 -16 8 -25 -14 -57 -14 -21 -26 -45 -26 -52 0
-7 -3 -19 -6 -28 -5 -12 0 -16 19 -16 29 0 50 -22 44 -47 -4 -14 -5 -13 -6 5
-1 29 -11 28 -57 -10 -22 -17 -31 -28 -21 -25 11 4 17 1 17 -7 0 -8 7 -13 16
-12 9 0 19 -4 21 -11 5 -14 -36 -14 -54 0 -7 5 -16 7 -20 4 -4 -2 -16 4 -25
14 -21 22 -7 39 32 39 6 0 10 9 10 19 0 11 -4 23 -10 26 -16 10 -11 22 12 28
20 6 20 7 5 30 -12 18 -13 27 -5 35 7 7 8 15 4 19 -4 4 -11 1 -16 -7 -6 -8
-10 -10 -10 -5 0 6 4 16 9 24 13 20 42 -4 34 -27 -3 -9 4 -3 15 13 11 18 16
34 11 40 -10 10 -12 59 -3 92 4 14 11 20 22 16 11 -3 13 -2 6 4 -10 7 -5 97 8
153 2 7 -11 17 -30 22 -18 5 -38 17 -45 28 -6 11 -17 20 -24 20 -19 0 -16 17
4 25 17 6 40 -14 62 -53 13 -23 31 -4 31 34 0 19 4 34 9 34 5 0 7 -18 4 -40
-8 -58 12 -50 27 9 8 36 16 48 26 44 22 -8 17 -49 -8 -66 -20 -13 -21 -18 -10
-36 6 -11 12 -44 12 -73 0 -29 6 -64 13 -78 13 -27 47 -34 55 -12 3 9 -3 12
-14 10 -12 -2 -19 3 -19 12 0 20 56 16 71 -5 6 -8 14 -11 19 -7 4 4 6 -1 4
-11 -2 -10 -7 -17 -11 -15 -3 2 -18 -8 -32 -21 -22 -21 -32 -23 -75 -18 -39 5
-51 3 -55 -10 -4 -9 -5 -16 -4 -17 2 -1 17 -14 35 -29 l31 -29 21 21 c12 12
19 27 15 33 -5 7 -2 9 8 5 9 -3 26 0 40 7 13 7 28 11 33 9 6 -2 10 12 10 29 0
27 4 34 23 36 30 5 55 -16 48 -41 -3 -13 0 -17 9 -13 7 2 19 -2 25 -10 7 -8
19 -14 26 -14 17 0 18 -27 1 -33 -8 -3 -7 -10 7 -26 22 -25 36 -27 36 -6 0 19
34 20 49 1 9 -10 8 -16 -4 -26 -8 -7 -15 -19 -15 -27 0 -7 -7 -16 -15 -19 -8
-4 -15 -12 -15 -20 0 -8 -5 -14 -12 -14 -6 0 -9 -2 -7 -5 9 -9 69 19 69 32 0
7 5 13 10 13 6 0 10 7 10 15 0 9 6 12 15 9 8 -4 15 -1 15 5 0 6 7 11 15 11 21
0 19 9 -7 32 -13 11 -18 22 -13 26 6 4 11 22 13 41 3 24 0 32 -10 29 -7 -3
-12 -14 -11 -24 1 -10 -4 -22 -10 -26 -7 -4 -12 -12 -12 -18 0 -12 -5 -13 -29
-4 -10 4 -27 2 -38 -5 -16 -10 -17 -9 -7 6 6 10 22 19 36 20 26 1 51 19 41 29
-4 3 -17 -1 -30 -9 -16 -10 -30 -12 -46 -6 -23 9 -31 29 -11 29 6 0 9 9 6 20
-7 27 10 36 18 10 10 -32 37 -20 48 20 5 19 14 38 20 42 20 13 37 9 37 -9 0
-10 3 -13 9 -8 10 12 2 75 -10 75 -4 0 -14 -8 -21 -18 -7 -10 -43 -32 -80 -50
-64 -31 -83 -54 -55 -65 7 -3 5 -6 -6 -6 -46 -2 -13 79 53 127 36 27 43 28 35
2 -6 -20 2 -24 29 -14 8 3 12 12 10 19 -3 7 4 16 15 20 27 8 28 35 1 28 -11
-3 -20 0 -20 6 0 6 9 11 20 11 24 0 26 13 4 34 -19 19 -44 21 -44 3 0 -14 -41
-53 -52 -50 -13 4 -57 -64 -47 -74 13 -13 -61 -14 -86 0 -19 10 -19 11 5 17
14 3 34 20 45 38 11 17 26 29 33 27 7 -3 25 8 40 24 15 16 33 30 39 32 10 3 9
13 -5 38 -9 19 -22 36 -28 38 -14 5 -48 -27 -39 -35 3 -4 10 0 15 7 11 19 40
6 40 -18 0 -24 -31 -46 -77 -56 -18 -4 -33 -11 -33 -16 0 -5 0 -11 0 -14 0 -3
-9 -15 -20 -27 -20 -21 -20 -21 -35 -2 -8 10 -15 22 -15 27 0 4 -4 7 -10 7
-13 0 0 -32 18 -46 13 -9 11 -13 -7 -27 l-23 -15 36 -17 c20 -10 35 -23 33
-29 -5 -15 -58 -8 -78 10 -8 8 -20 14 -26 14 -6 0 -13 6 -16 13 -4 9 -7 9 -18
-1 -26 -24 -36 -13 -38 43 -1 31 3 55 8 55 17 0 33 -39 25 -63 l-6 -22 21 22
c12 13 27 23 33 23 7 0 6 5 -2 15 -7 8 -15 13 -19 11 -4 -3 -13 -1 -21 4 -12
7 -10 12 9 29 18 16 21 23 12 40 -7 12 -17 18 -26 15 -8 -4 -15 -2 -15 4 0 5
7 13 16 16 13 5 14 9 5 20 -10 12 -8 15 11 18 16 2 24 11 26 28 4 29 29 60 48
60 9 0 12 10 10 31 -5 45 -21 57 -47 33 -17 -15 -20 -27 -16 -56 6 -47 -6 -49
-23 -5 -8 17 -20 41 -29 51 -15 18 -15 19 1 13 12 -4 15 -2 12 7 -3 9 7 18 26
25 26 9 39 7 69 -8 31 -14 41 -15 55 -6 9 7 16 15 16 18 0 9 -62 27 -71 21 -5
-3 -12 2 -15 10 -3 9 -15 16 -25 16 -10 0 -19 4 -19 8 0 10 43 52 53 52 10 0
47 38 47 49 0 5 10 16 23 25 16 12 8 11 -32 -5 -30 -11 -59 -23 -63 -25 -12
-8 -9 11 4 24 9 9 9 12 -3 12 -21 0 -35 -13 -41 -37 -5 -20 -2 -23 25 -24 31
-1 31 -1 7 -9 -28 -8 -60 18 -60 50 0 15 34 37 75 47 60 15 65 15 59 -1 -5
-14 -2 -16 19 -11 35 9 76 -27 57 -50 -7 -9 -8 -15 -2 -15 13 0 45 -61 36 -69
-3 -3 -12 3 -20 13 -8 11 -14 16 -14 11 0 -5 -5 -4 -12 3 -15 15 -28 16 -28 2
0 -5 7 -10 15 -10 8 0 15 -6 15 -14 0 -8 9 -17 19 -21 11 -3 22 -12 25 -20 7
-20 26 -19 26 0 0 9 9 15 25 15 25 0 33 -14 15 -25 -5 -3 -10 0 -10 7 0 9 -3
9 -10 -2 -5 -8 -7 -23 -4 -33 4 -13 0 -20 -15 -24 -11 -3 -18 -9 -15 -15 3 -5
1 -15 -5 -22 -8 -10 -2 -9 22 3 19 9 40 28 46 43 7 15 18 25 25 22 8 -3 16 2
20 11 3 9 10 13 16 10 5 -3 10 -2 10 4 0 5 8 12 18 14 11 3 7 5 -10 6 -24 1
-52 21 -29 21 5 0 12 13 16 30 5 21 13 30 26 30 19 0 26 15 11 24 -5 3 -10 40
-10 82 -2 63 -6 82 -22 99 -11 12 -20 25 -20 30 0 5 7 -1 16 -13 8 -12 19 -20
24 -17 4 3 10 0 12 -7 3 -7 7 -5 11 6 4 9 3 15 -2 12 -5 -3 -11 3 -14 14 -3
11 -1 20 4 20 12 0 -23 49 -35 50 -4 0 -5 -8 -1 -17 5 -14 3 -15 -5 -6 -9 8
-23 7 -59 -4 -25 -9 -50 -19 -56 -23 -5 -4 -21 -8 -35 -8 -14 0 -47 -9 -75
-22 -73 -32 -78 -35 -83 -51 -4 -11 -2 -12 9 -1 7 6 21 12 31 12 11 0 32 10
47 21 28 21 58 19 45 -3 -5 -8 1 -9 17 -4 13 4 30 8 37 8 6 1 12 7 12 14 0 26
71 46 85 25 3 -6 -7 -9 -22 -8 -20 2 -30 -4 -40 -24 -7 -15 -25 -35 -40 -44
-16 -10 -38 -29 -50 -41 -18 -20 -25 -22 -57 -13 -24 7 -42 6 -54 0 -13 -7
-31 -7 -54 1 -26 8 -45 8 -69 -1 -18 -6 -34 -9 -37 -7 -8 9 57 36 72 30 8 -3
25 2 38 11 l23 17 -27 -6 c-16 -4 -28 -2 -28 3 0 19 -200 -54 -246 -90 -28
-22 -47 -29 -80 -29 -42 0 -75 -19 -85 -48 -2 -6 -21 -13 -41 -16 -21 -2 -59
-19 -85 -38 -27 -18 -50 -34 -53 -36 -2 -2 1 -12 8 -22 15 -24 5 -50 -18 -50
-11 0 -21 -4 -24 -9 -11 -16 6 -41 27 -41 19 0 20 1 2 20 -19 21 -11 27 14 11
9 -6 11 -18 7 -34 -5 -22 -11 -25 -46 -24 -34 2 -39 5 -37 25 1 12 5 22 9 22
4 0 8 6 8 14 0 8 15 24 32 36 18 12 25 19 16 16 -10 -3 -20 0 -24 5 -10 17
-40 -23 -48 -64 -4 -20 -11 -37 -15 -37 -10 0 -34 -61 -27 -67 2 -3 18 3 35
11 35 18 41 19 41 7 0 -5 -10 -11 -21 -14 -15 -4 -20 -11 -16 -21 7 -18 -27
-23 -38 -6 -3 6 -10 10 -16 10 -14 0 -11 -28 4 -33 8 -4 6 -6 -4 -6 -9 -1 -21
-15 -27 -33 -7 -23 -10 517 -11 1814 l-1 1848 2183 3 2182 2 -2187 3 -2188 2
0 -2185z m1090 -905 c0 -4 -6 -12 -12 -18 -10 -8 -13 -5 -13 13 0 14 5 21 13
18 6 -3 12 -9 12 -13z m67 -46 c-3 -3 -12 -4 -19 -1 -8 3 -5 6 6 6 11 1 17 -2
13 -5z m-137 -34 c-6 -11 -15 -20 -20 -20 -6 0 -5 9 2 20 7 11 16 20 21 20 4
0 3 -9 -3 -20z m77 -2 c-1 -15 5 -24 23 -29 25 -7 11 -13 -22 -10 -31 3 -91
-28 -84 -44 3 -8 1 -15 -4 -15 -21 0 -9 47 18 72 22 21 59 46 69 48 2 0 2 -10
0 -22z m-452 -38 c3 -4 -7 -10 -20 -13 -26 -4 -41 6 -31 22 7 10 43 3 51 -9z
m95 11 c0 -5 -10 -12 -22 -16 l-23 -8 21 -4 c16 -3 24 -14 28 -38 7 -38 34
-59 63 -48 15 5 16 4 5 -8 -7 -8 -30 -13 -52 -13 -48 2 -50 -5 -8 -29 29 -17
30 -19 14 -35 -9 -9 -22 -17 -29 -18 -6 0 -21 -2 -31 -2 -18 -2 -18 -3 -3 -20
19 -21 22 -42 7 -42 -5 0 -7 7 -4 15 10 26 -51 19 -69 -7 -14 -22 -15 -22 -23
-4 -10 27 46 76 86 76 23 0 30 5 30 19 0 23 -22 40 -28 23 -2 -7 -7 -10 -12
-7 -4 3 -21 -2 -36 -10 -18 -9 -32 -11 -39 -5 -7 6 -15 7 -18 3 -4 -3 -7 1 -7
10 0 12 -8 17 -27 17 -21 0 -24 -3 -15 -12 7 -7 12 -15 12 -19 0 -12 -30 -19
-54 -13 -21 5 -22 8 -12 45 7 29 15 39 30 39 16 0 17 3 8 12 -19 19 -14 29 13
24 29 -5 30 -3 11 17 -12 12 -8 14 32 12 34 -1 51 4 65 18 11 11 34 24 51 28
17 4 32 7 34 8 1 1 2 -3 2 -8z m413 -60 c-5 -3 -16 -20 -23 -37 -12 -27 -16
-29 -27 -18 -12 12 -12 19 2 48 17 36 47 52 53 27 2 -7 0 -16 -5 -20z m-83
-41 c5 0 10 -4 10 -9 0 -15 -23 -19 -50 -9 -22 8 -23 10 -7 19 9 6 17 18 18
27 0 12 3 11 9 -5 5 -13 14 -23 20 -23z m-621 10 c-28 -23 -13 -27 18 -5 15
11 24 12 29 4 3 -6 1 -15 -6 -19 -7 -5 -14 -19 -15 -32 -1 -13 -8 -22 -15 -20
-7 2 -20 -3 -29 -11 -20 -17 -51 -29 -51 -19 0 15 16 30 35 33 11 3 21 12 23
21 3 15 -2 14 -40 -6 -24 -12 -43 -28 -43 -34 0 -7 -4 -11 -10 -9 -14 3 -7 20
16 37 27 21 58 47 42 36 -20 -13 -28 1 -11 18 13 12 29 18 72 25 4 0 -2 -8
-15 -19z m648 -66 c-9 -9 -28 6 -21 18 4 6 10 6 17 -1 6 -6 8 -13 4 -17z
m-777 4 c-14 -6 -32 -11 -40 -12 -8 -1 -15 -8 -15 -16 0 -17 -26 -21 -32 -5
-5 15 48 43 82 43 l30 1 -25 -11z m142 -43 c0 -5 -5 -11 -11 -13 -6 -2 -11 4
-11 13 0 9 5 15 11 13 6 -2 11 -8 11 -13z m-160 -16 c17 -9 18 -13 7 -20 -9
-6 -10 -9 -2 -9 6 0 15 5 18 10 3 6 19 10 35 10 22 0 28 -4 24 -15 -4 -10 -13
-13 -26 -9 -13 4 -18 2 -14 -4 3 -5 16 -12 28 -15 13 -2 31 -8 42 -12 15 -7
17 -5 12 12 -5 14 -1 23 10 27 23 9 41 -9 26 -27 -9 -10 -9 -16 0 -25 9 -9 7
-16 -7 -32 -11 -12 -14 -20 -6 -20 8 0 10 -8 6 -22 -5 -19 -2 -17 20 10 20 24
34 32 60 32 58 0 57 -62 -2 -139 -32 -43 -45 -101 -22 -101 6 0 9 -7 5 -15 -4
-13 -2 -13 14 -5 29 15 34 30 17 48 -15 14 -15 13 -10 -6 3 -13 1 -22 -6 -22
-6 0 -11 11 -11 25 0 18 5 25 19 25 17 0 31 -18 31 -41 0 -16 -56 -69 -74 -69
-18 0 -22 -16 -5 -22 7 -2 12 -24 13 -48 1 -39 -2 -45 -19 -45 -11 -1 -23 4
-27 9 -4 6 -13 5 -22 -3 -14 -12 -16 -10 -16 7 0 12 8 26 18 32 15 9 14 10 -5
5 -24 -7 -33 10 -10 18 6 2 9 7 5 11 -12 14 -46 -13 -41 -32 3 -13 -4 -22 -23
-31 -19 -8 -24 -15 -16 -23 6 -6 16 -7 27 0 21 11 75 -6 75 -25 0 -18 -36 -26
-61 -13 -35 19 -68 20 -61 2 4 -12 1 -14 -12 -9 -10 4 -21 7 -26 7 -5 0 -11 8
-13 18 -3 9 -3 -2 0 -25 6 -46 -6 -55 -48 -33 -20 11 -27 50 -9 50 6 0 10 5
10 10 0 6 -9 10 -20 10 -13 0 -20 7 -20 20 0 11 -4 20 -10 20 -5 0 -10 9 -10
20 0 27 16 25 25 -2 4 -14 8 -18 12 -11 2 7 -3 33 -12 58 -10 24 -15 52 -11
62 4 13 1 12 -14 -5 -11 -13 -24 -21 -30 -17 -14 8 -13 42 2 51 7 5 9 2 5 -9
-4 -11 -2 -14 9 -10 16 6 18 19 4 28 -6 4 -4 17 5 35 19 37 19 42 -2 38 -14
-2 -19 5 -21 30 -4 36 20 82 42 82 7 0 19 6 26 14 6 8 18 12 27 9 12 -5 14 -1
8 15 -5 16 -2 22 10 22 11 0 14 6 9 25 -4 15 -1 32 7 42 13 15 12 15 -9 4 -12
-6 -27 -9 -34 -5 -8 5 23 26 50 33 2 1 13 -4 24 -10z m278 -9 c0 -11 -9 -29
-20 -40 -11 -11 -20 -24 -20 -30 0 -5 -4 -10 -9 -10 -5 0 -16 -3 -24 -6 -11
-4 -15 1 -13 20 0 14 7 26 14 26 6 0 12 8 12 18 0 11 10 24 23 30 32 15 37 14
37 -8z m-150 6 c0 -3 -4 -8 -10 -11 -5 -3 -10 -1 -10 4 0 6 5 11 10 11 6 0 10
-2 10 -4z m-205 -64 c-3 -3 -11 0 -18 7 -9 10 -8 11 6 5 10 -3 15 -9 12 -12z
m456 -92 c6 0 9 6 6 13 -9 23 9 40 44 42 19 1 28 0 22 -2 -7 -3 -13 -13 -13
-22 0 -23 -42 -45 -69 -36 -16 5 -21 14 -20 38 l1 32 9 -32 c5 -18 14 -33 20
-33z m-51 4 c0 -8 6 -14 14 -14 15 0 10 -51 -7 -61 -5 -4 -9 -19 -9 -35 l0
-27 -14 24 c-16 29 -18 95 -3 104 6 4 8 14 5 22 -3 8 -1 11 4 8 6 -3 10 -13
10 -21z m106 -43 c0 -11 -5 -17 -13 -14 -10 4 -11 9 -2 19 15 18 15 18 15 -5z
m-59 -23 c-3 -7 -5 -2 -5 12 0 14 2 19 5 13 2 -7 2 -19 0 -25z m-626 -87 c-6
-4 -7 -12 0 -21 8 -13 10 -13 19 0 5 8 10 13 11 10 5 -19 6 -57 1 -65 -4 -5
-8 -19 -9 -30 -3 -19 -2 -19 16 3 23 27 31 28 31 3 0 -11 8 -22 18 -24 9 -2 5
-3 -9 -1 -33 4 -69 -5 -69 -18 0 -6 16 -7 41 -3 27 5 39 4 35 -3 -3 -5 1 -15
9 -22 19 -16 19 -30 0 -30 -8 0 -15 -9 -15 -20 0 -11 -4 -20 -10 -20 -5 0 -10
14 -10 31 0 40 -20 27 -21 -14 0 -18 -3 -26 -6 -19 -12 29 -18 7 -15 -53 3
-52 7 -65 20 -66 15 -1 15 -2 0 -6 -10 -2 -18 -11 -18 -19 0 -9 -7 -22 -15
-30 -8 -8 -12 -20 -9 -27 3 -8 -4 -13 -16 -13 -19 0 -20 6 -20 228 0 222 1
229 23 254 22 26 22 26 25 4 2 -13 -1 -26 -7 -29z m86 36 c16 -10 -2 -32 -29
-34 -21 -2 -32 12 -24 32 5 15 31 16 53 2z m476 -116 c-4 -15 -8 -19 -13 -10
-5 6 -3 18 3 24 16 17 17 14 10 -14z m-33 -78 c0 -22 -16 -15 -28 12 -17 36
-15 41 8 20 11 -10 20 -24 20 -32z m0 -37 c0 -17 -60 -70 -68 -61 -4 3 -2 9 4
13 5 4 17 19 27 35 19 29 37 36 37 13z m-402 -64 c2 -15 -8 -32 -29 -52 -35
-31 -42 -30 -54 8 -5 18 -2 22 15 22 12 0 30 5 41 11 17 9 18 13 7 26 -11 14
-11 15 2 11 8 -2 16 -14 18 -26z m312 -11 c0 -24 -57 -68 -71 -54 -14 14 -3
36 29 55 36 22 42 22 42 -1z m60 -29 c0 -20 -40 -43 -67 -40 l-28 3 35 23 c36
23 60 28 60 14z m-291 -33 c36 -13 63 -49 35 -49 -21 0 -84 38 -84 51 0 12 10
11 49 -2z m244 -53 c10 -8 15 -16 10 -18 -4 -3 -16 3 -25 14 -21 21 -11 24 15
4z m-402 -59 c9 -7 19 -29 23 -50 4 -21 10 -45 13 -53 3 -9 0 -12 -9 -9 -18 7
-38 60 -31 85 7 26 -13 26 -27 -1 -16 -29 -23 -17 -9 15 14 29 17 30 40 13z
m449 -37 c0 -13 -33 -21 -44 -10 -7 7 -5 10 7 10 9 0 17 5 17 11 0 5 5 7 10 4
6 -3 10 -10 10 -15z m-527 -10 c-3 -12 -8 -19 -11 -16 -5 6 5 36 12 36 2 0 2
-9 -1 -20z m651 -79 c3 -5 1 -23 -5 -41 -9 -24 -14 -29 -23 -20 -8 9 -8 14 0
17 6 2 9 15 6 28 -4 24 11 35 22 16z m-48 -28 c-7 -7 -26 7 -26 19 0 6 6 6 15
-2 9 -7 13 -15 11 -17z"/>
<path d="M570 1053 c0 -5 11 -13 25 -20 27 -12 33 -5 13 15 -13 13 -38 16 -38
5z"/>
<path d="M395 860 c3 -5 8 -10 11 -10 2 0 4 5 4 10 0 6 -5 10 -11 10 -5 0 -7
-4 -4 -10z"/>
<path d="M285 793 c-22 -23 -45 -41 -50 -40 -11 2 -15 -5 -15 -28 0 -8 7 -15
15 -15 8 0 15 5 15 10 0 6 7 10 15 10 8 0 15 5 15 10 0 6 7 10 15 10 18 0 57
77 41 82 -6 2 -29 -15 -51 -39z"/>
<path d="M307 724 c5 -13 2 -15 -14 -10 -13 4 -26 0 -37 -13 -18 -19 -17 -22
13 -87 33 -70 33 -97 1 -54 -15 19 -21 22 -32 12 -8 -6 -17 -9 -20 -6 -3 2 -5
-6 -5 -19 0 -19 4 -23 18 -20 9 3 31 -3 48 -13 25 -15 32 -15 46 -4 14 11 17
10 22 -8 3 -12 10 -19 15 -16 13 8 -21 44 -35 38 -8 -2 -12 8 -13 27 -1 17 -7
35 -15 40 -11 6 -10 9 3 14 9 4 14 14 11 23 -2 10 5 28 16 41 25 28 27 46 6
37 -9 -3 -15 0 -15 9 0 7 -4 17 -10 20 -6 4 -7 -1 -3 -11z"/>
<path d="M236 497 c3 -10 9 -15 12 -12 3 3 0 11 -7 18 -10 9 -11 8 -5 -6z"/>
<path d="M230 455 c7 -9 15 -13 17 -11 7 7 -7 26 -19 26 -6 0 -6 -6 2 -15z"/>
<path d="M32 606 c1 -10 8 -17 13 -17 15 1 12 24 -3 29 -9 3 -13 -2 -10 -12z"/>
<path d="M60 469 c0 -5 5 -7 10 -4 6 3 10 8 10 11 0 2 -4 4 -10 4 -5 0 -10 -5
-10 -11z"/>
<path d="M2208 4134 c-2 -1 -32 -5 -68 -8 -73 -7 -249 -63 -278 -89 -10 -9
-24 -17 -31 -17 -17 0 -100 -52 -101 -63 0 -12 -27 -37 -38 -37 -5 0 -20 -21
-32 -47 -13 -27 -27 -55 -31 -63 -5 -8 -15 -30 -23 -48 -9 -18 -22 -39 -30
-47 -8 -8 -22 -41 -30 -73 -9 -31 -27 -80 -41 -107 -14 -28 -25 -64 -25 -80 0
-17 -6 -42 -14 -56 -7 -14 -14 -63 -15 -110 -1 -46 -4 -120 -5 -164 -3 -73 3
-152 20 -244 l6 -34 -26 16 c-34 23 -69 21 -92 -4 -16 -18 -19 -36 -18 -127 0
-59 5 -156 12 -217 6 -60 11 -118 11 -128 1 -25 49 -67 77 -67 12 0 36 11 52
25 l30 25 21 -83 c12 -45 35 -121 51 -169 27 -77 30 -100 30 -205 l0 -118 -50
-49 c-28 -27 -50 -53 -50 -58 0 -4 -20 -34 -45 -65 -24 -32 -40 -60 -34 -63 5
-4 -20 -35 -56 -69 -65 -63 -76 -78 -52 -68 8 3 20 2 26 -3 9 -5 4 -12 -18
-23 -29 -15 -31 -14 -29 1 3 20 -12 20 -84 1 -56 -14 -61 -25 -17 -34 20 -5
29 -11 25 -21 -6 -15 -3 -14 62 21 19 10 43 14 57 11 15 -4 25 -1 29 9 6 16
36 21 36 6 0 -5 -6 -14 -14 -21 -8 -6 -12 -18 -9 -26 3 -8 -4 -17 -18 -22 -15
-6 -19 -11 -10 -16 9 -6 9 -11 0 -22 -17 -21 -1 -17 23 6 26 24 66 26 74 5 15
-38 -9 -75 -93 -143 -25 -20 -26 -22 -6 -17 32 9 45 -2 33 -26 -6 -11 -30 -24
-55 -30 -27 -7 -47 -18 -50 -29 -3 -9 -14 -25 -24 -34 -15 -13 -23 -14 -50 -5
-26 9 -31 15 -25 33 5 17 4 19 -7 9 -10 -10 -10 -18 -1 -38 6 -14 16 -25 22
-25 17 0 11 -28 -7 -39 -14 -8 -9 -10 27 -11 54 0 44 -16 -17 -26 -39 -6 -41
-5 -36 15 7 26 -9 27 -61 2 -35 -17 -37 -19 -18 -25 33 -11 28 -50 -14 -96
-20 -22 -31 -40 -24 -40 7 0 19 -8 26 -17 12 -16 13 -16 14 8 0 14 11 37 24
51 30 33 40 59 20 51 -18 -7 -18 11 0 26 20 17 37 -15 25 -46 -10 -27 -2 -29
29 -7 15 10 21 22 17 34 -4 13 1 22 14 29 28 15 51 14 51 -4 0 -8 -7 -15 -15
-15 -20 0 -19 -16 1 -24 11 -4 15 -14 12 -31 -4 -19 -1 -25 13 -25 11 0 16 5
13 13 -7 18 22 41 41 33 21 -8 19 -20 -11 -49 -14 -14 -23 -31 -19 -37 12 -19
-15 -77 -40 -88 -27 -12 -32 -27 -14 -38 8 -5 4 -13 -11 -24 -23 -17 -23 -18
-3 -28 17 -9 21 -6 32 24 8 23 19 34 32 34 19 0 21 3 24 53 2 32 9 42 24 32
17 -10 13 -46 -6 -60 -17 -13 -17 -14 0 -33 10 -11 22 -37 28 -58 23 -90 43
-113 83 -98 22 8 9 26 -14 19 -23 -7 -34 9 -17 23 16 14 61 9 81 -8 18 -14 21
-30 6 -30 -6 0 -21 -12 -34 -26 -18 -22 -30 -26 -69 -26 -39 1 -47 -2 -47 -17
0 -10 11 -23 24 -29 13 -6 30 -24 39 -40 13 -28 13 -32 -8 -56 -12 -14 -29
-26 -36 -26 -8 0 -23 -7 -33 -15 -18 -14 -18 -15 3 -32 15 -12 20 -24 16 -36
-10 -24 -28 -22 -20 3 5 15 2 20 -13 20 -37 0 -150 -40 -156 -55 -7 -20 27
-20 59 1 33 21 65 4 65 -35 0 -17 6 -31 16 -35 11 -4 15 -2 11 8 -7 17 18 41
53 51 21 7 23 6 13 -7 -7 -8 -10 -17 -7 -21 7 -7 -26 -41 -48 -49 -10 -4 -14
-15 -11 -31 4 -22 9 -25 51 -23 45 1 69 21 35 29 -14 3 -12 6 12 16 43 18 65
41 65 68 0 19 -4 23 -17 19 -10 -3 -22 -2 -28 2 -15 11 -57 72 -48 71 20 -3
24 2 13 16 -8 10 -9 15 -1 15 6 0 19 7 30 16 18 16 42 21 117 27 16 1 42 12
57 24 22 17 24 23 13 32 -9 7 -15 8 -18 2 -1 -5 -23 -11 -46 -14 -24 -2 -48
-10 -54 -18 -7 -11 -11 -11 -15 -1 -2 6 -11 12 -19 12 -8 0 -14 7 -14 16 0 10
-6 14 -14 11 -10 -4 -12 0 -9 14 3 10 11 19 19 19 8 0 11 6 8 15 -6 15 9 20
47 17 12 -1 15 4 12 18 -4 16 0 20 17 20 19 0 21 2 10 15 -22 26 3 65 40 65
28 0 35 -8 31 -37 -1 -7 7 -13 18 -13 11 0 24 -8 30 -17 9 -17 10 -17 29 0 12
11 18 26 15 38 -3 10 -1 19 5 19 5 0 13 -12 16 -26 10 -38 38 -27 49 19 9 38
30 49 41 21 3 -8 10 -13 14 -10 13 8 -31 136 -47 136 -11 0 -11 3 -1 15 10 12
10 19 2 27 -8 8 -7 15 3 25 8 7 12 21 9 31 -3 9 11 -9 32 -40 28 -42 45 -58
62 -58 12 0 22 4 22 10 0 5 -3 9 -7 9 -22 -4 -31 3 -37 27 -7 28 -28 54 -44
54 -5 0 -15 7 -22 15 -10 12 -16 13 -28 3 -13 -11 -15 -10 -9 5 4 11 2 17 -7
17 -9 0 -12 -8 -8 -25 2 -14 8 -25 13 -25 5 0 9 -4 9 -10 0 -21 -32 5 -49 40
-13 28 -15 42 -8 49 18 18 -25 13 -51 -5 -12 -8 -22 -22 -22 -31 0 -14 2 -15
18 -1 9 9 23 13 30 11 16 -6 16 -48 -1 -61 -16 -13 -68 -19 -83 -9 -11 6 -13
-28 -2 -38 3 -4 -5 -18 -17 -31 -20 -21 -27 -24 -44 -14 -12 6 -21 15 -21 20
0 6 -4 10 -9 10 -5 0 -8 -11 -7 -24 0 -14 6 -22 13 -19 7 3 17 2 23 -2 13 -8
-23 -42 -59 -56 -13 -5 -21 -12 -18 -15 3 -3 14 -1 25 5 41 22 122 7 97 -17
-10 -10 -129 -9 -136 1 -4 6 -17 3 -30 -7 -23 -16 -23 -15 -36 27 -18 60 -17
70 6 57 12 -6 21 -23 23 -43 4 -28 5 -30 13 -12 5 11 18 27 28 35 18 15 18 17
1 30 -13 11 -18 12 -21 3 -5 -13 -33 -6 -33 8 0 4 9 17 20 27 20 18 20 19 2
36 -12 10 -26 14 -38 10 -18 -7 -18 -7 -1 13 18 21 18 21 0 25 -14 4 -9 9 20
23 33 16 42 31 38 57 0 5 5 8 12 8 7 0 18 9 25 20 7 12 18 17 28 13 16 -6 56
10 88 37 18 14 19 13 14 -12 -4 -19 -1 -25 9 -21 7 3 13 13 13 22 0 14 2 14
10 1 19 -30 23 1 4 35 -12 23 -24 34 -34 31 -8 -2 -39 -13 -67 -24 -61 -23
-66 -20 -67 50 -1 42 -4 48 -18 44 -10 -2 -18 0 -18 5 0 5 7 9 16 9 29 0 11
35 -21 38 -17 2 -27 0 -22 -4 10 -10 -22 -44 -42 -44 -8 0 -29 -15 -46 -34
-39 -43 -70 -60 -91 -48 -14 8 -12 10 9 16 15 3 37 22 51 42 16 24 26 31 30
22 5 -10 7 -10 12 -1 3 7 21 22 40 34 35 21 36 25 16 78 -4 11 1 12 21 7 21
-5 27 -3 27 9 0 28 29 75 43 69 11 -4 87 58 87 71 0 14 -33 2 -61 -22 l-33
-28 17 26 c10 14 15 33 11 42 -4 12 2 18 20 23 30 7 29 5 16 39 -6 15 -15 23
-21 19 -8 -4 -9 0 -4 15 5 18 2 21 -19 21 -15 0 -25 -5 -24 -12 2 -7 -8 -14
-20 -16 -21 -3 -23 -1 -16 20 10 34 10 43 -1 43 -5 0 -11 -4 -11 -10 -1 -5 -2
-14 -3 -20 -1 -5 -6 -3 -11 5 -9 13 -11 13 -20 0 -7 -11 -5 -16 5 -18 8 -2 15
-8 15 -13 0 -12 -3 -11 -33 4 -21 11 -23 15 -12 30 7 9 17 17 23 17 6 0 23 20
38 45 14 25 28 44 31 41 3 -2 -3 -16 -12 -30 -16 -25 -16 -25 10 -32 31 -8 42
0 27 18 -17 21 -3 138 16 138 13 0 36 -45 38 -75 4 -50 20 -102 42 -132 20
-29 96 -215 127 -313 31 -97 115 -248 155 -278 56 -42 190 -200 190 -224 0 -5
13 -23 30 -41 33 -35 39 -52 15 -43 -8 3 -15 1 -15 -3 0 -5 5 -11 11 -13 7 -2
6 -8 -3 -16 -12 -10 -18 0 -38 56 -12 37 -30 74 -38 82 -8 8 -12 9 -8 3 13
-23 -21 -14 -37 9 l-16 23 -24 -29 c-14 -17 -29 -26 -35 -22 -17 11 -15 -5 5
-26 9 -10 11 -18 5 -18 -6 0 -9 -7 -6 -15 8 -21 21 -19 27 5 3 11 16 24 29 29
36 14 78 -33 102 -114 4 -11 15 -31 26 -45 l20 -25 19 25 c22 27 20 40 -3 21
-10 -8 -16 -9 -21 -1 -11 18 6 31 35 25 22 -5 30 -2 35 13 3 11 13 26 21 33
13 10 17 10 25 -2 5 -8 9 -9 9 -3 0 12 59 44 80 44 8 0 11 -9 8 -25 -6 -27 4
-33 19 -12 14 17 0 61 -20 65 -10 2 -29 -3 -42 -12 -30 -20 -35 -20 -35 -1 0
8 6 15 13 15 6 0 25 7 40 15 25 13 29 13 48 -6 11 -11 17 -24 14 -29 -4 -6 6
-10 20 -10 20 0 26 4 21 15 -3 8 -9 22 -12 30 -10 25 24 17 42 -10 18 -27 54
-34 54 -10 0 8 4 15 10 15 5 0 7 -7 3 -15 -4 -12 0 -15 20 -11 35 6 79 37 74
50 -3 8 8 12 34 11 36 -1 71 -15 37 -15 -9 0 -32 -18 -51 -39 -20 -22 -37 -35
-39 -29 -4 12 -48 -9 -61 -29 -4 -7 -14 -13 -22 -13 -21 0 -14 -60 7 -74 14
-8 22 -7 35 7 17 18 17 18 -8 12 -31 -8 -40 2 -29 32 6 15 22 24 57 31 26 6
52 7 58 2 6 -5 11 1 11 16 2 21 38 63 56 64 4 0 13 -7 22 -15 8 -8 20 -15 27
-15 10 0 10 -3 1 -12 -7 -7 -12 -23 -11 -38 l0 -25 11 22 c6 13 17 23 25 23
18 0 16 7 -8 31 -11 11 -18 27 -15 34 3 10 0 12 -11 8 -31 -12 -7 22 28 39 19
10 40 25 46 34 12 16 13 16 19 1 5 -15 8 -15 27 -2 31 22 37 19 31 -15 -4 -19
-2 -30 5 -30 6 0 11 17 11 41 0 49 -33 109 -60 109 -24 0 -69 40 -52 46 16 7
16 24 -1 24 -7 0 -21 -27 -31 -61 -10 -33 -25 -63 -32 -66 -7 -2 -10 -11 -7
-19 3 -8 0 -14 -6 -14 -6 0 -11 5 -11 10 0 17 -16 11 -41 -14 -36 -34 -135
-87 -153 -80 -11 4 -16 1 -16 -10 0 -21 -23 -20 -43 2 -19 21 -8 46 16 36 20
-7 22 7 5 24 -10 10 -10 15 2 22 8 5 11 12 7 16 -10 10 12 34 27 28 16 -6 20
45 4 63 -9 12 -4 21 30 51 39 35 90 117 107 172 4 14 30 75 58 135 62 136 106
264 113 330 11 90 10 114 -4 120 -8 3 -12 11 -9 19 3 8 -5 23 -19 35 -27 24
-29 48 -15 198 7 70 17 110 44 170 38 85 87 236 87 270 0 20 2 20 29 -8 20
-20 35 -27 47 -22 16 6 15 7 -3 14 -11 4 -23 14 -26 23 -8 20 -4 20 33 1 16
-8 31 -12 33 -7 3 4 8 50 12 102 4 52 15 120 25 150 10 30 21 97 23 147 5 86
4 94 -16 108 -19 13 -24 13 -55 -6 l-35 -20 8 43 c11 69 15 387 5 453 -18 110
-33 180 -45 205 -7 14 -22 61 -34 104 -12 44 -33 103 -46 130 -26 54 -87 154
-105 171 -5 6 -29 28 -52 51 -24 22 -56 48 -73 57 -81 43 -170 79 -218 87 -28
5 -65 12 -80 15 -36 7 -105 13 -109 9z m239 -705 c85 3 126 -16 144 -63 6 -17
16 -41 22 -53 7 -17 7 -34 -4 -65 -10 -32 -11 -42 -1 -46 7 -2 12 -8 12 -13 0
-6 -18 -8 -45 -3 -53 8 -155 -3 -155 -17 0 -5 12 -8 27 -7 21 2 28 -2 34 -22
4 -14 7 -19 8 -12 1 7 14 12 32 12 26 0 29 -3 24 -20 -9 -27 12 -26 36 2 l19
21 0 -21 c0 -15 7 -22 20 -23 11 -1 23 -3 28 -4 4 -1 22 -6 40 -10 19 -4 36
-14 39 -21 3 -8 11 -14 18 -14 7 0 25 -14 39 -31 26 -31 49 -32 40 -1 -2 9 5
-3 16 -28 12 -24 26 -48 33 -52 9 -6 9 -8 -1 -8 -7 0 -11 -4 -8 -9 4 -5 3 -16
0 -24 -4 -12 -15 -6 -47 24 -36 33 -48 39 -89 39 -25 0 -48 -5 -50 -10 -5 -17
-84 0 -109 23 -12 11 -36 21 -53 22 -34 1 -96 25 -96 37 0 5 -5 8 -11 8 -6 0
-9 -7 -6 -14 4 -10 1 -13 -8 -9 -21 8 -38 -44 -31 -94 4 -31 2 -43 -7 -43 -8
0 -9 -3 -1 -8 6 -4 17 -18 24 -32 l12 -25 -22 21 c-12 11 -22 27 -24 35 -1 8
-7 22 -12 33 -11 18 -12 18 -25 -1 -24 -35 -68 -19 -106 38 -18 27 -33 52 -33
56 0 10 -63 53 -76 53 -22 0 -34 23 -21 39 10 12 9 13 -2 7 -9 -6 -12 -4 -9 5
3 8 11 14 19 14 8 0 15 11 16 25 1 14 0 18 -3 8 -7 -25 -34 -23 -34 2 0 11 7
20 15 20 19 0 19 14 -1 31 -10 8 -13 21 -9 36 6 26 59 83 76 83 6 0 7 5 3 11
-4 7 -1 10 7 7 8 -3 21 0 29 7 8 7 38 20 65 31 28 10 59 28 70 41 14 17 25 22
40 17 11 -3 53 -6 92 -5z m-397 -229 c0 -5 -4 -10 -10 -10 -5 0 -10 5 -10 10
0 6 5 10 10 10 6 0 10 -4 10 -10z m871 -20 c5 0 9 -8 9 -17 0 -15 -2 -16 -10
-3 -7 10 -8 0 -4 -32 4 -26 4 -58 0 -73 -6 -22 -9 -24 -26 -15 -26 14 -26 47
0 55 11 3 20 11 20 17 0 5 -6 8 -14 5 -11 -4 -14 4 -12 34 1 28 5 38 14 34 8
-3 18 -5 23 -5z m-1061 -104 c5 -13 17 -29 27 -34 21 -13 17 -18 -21 -28 -28
-7 -29 -6 -23 22 3 16 1 37 -4 46 -7 12 -6 18 1 18 6 0 15 -11 20 -24z m1039
-78 c1 6 5 12 10 12 5 0 7 -9 4 -20 -3 -11 -9 -17 -14 -14 -5 3 -9 -3 -10 -13
0 -14 -3 -12 -10 6 -5 14 -7 32 -3 40 5 14 7 13 14 -4 5 -11 9 -14 9 -7z
m-1002 6 c-3 -3 -12 -4 -19 -1 -8 3 -5 6 6 6 11 1 17 -2 13 -5z m-2 -24 c-3
-5 -13 -10 -21 -10 -8 0 -14 5 -14 10 0 6 9 10 21 10 11 0 17 -4 14 -10z m111
-77 c-8 -8 -36 5 -36 17 0 7 6 7 21 0 11 -7 18 -14 15 -17z m-7 -43 c-8 -4
-24 -11 -36 -14 -19 -6 -23 -4 -23 17 0 34 9 38 43 20 23 -11 27 -17 16 -23z
m-119 20 c0 -5 -4 -10 -10 -10 -5 0 -10 5 -10 10 0 6 5 10 10 10 6 0 10 -4 10
-10z m50 0 c0 -5 -4 -10 -10 -10 -5 0 -10 5 -10 10 0 6 5 10 10 10 6 0 10 -4
10 -10z m465 0 c-3 -5 -11 -10 -16 -10 -6 0 -7 5 -4 10 3 6 11 10 16 10 6 0 7
-4 4 -10z m-562 -20 c5 -21 -1 -24 -27 -14 -13 5 -14 9 -5 20 16 19 26 17 32
-6z m674 -1 c2 -19 -2 -21 -29 -15 -17 3 -40 6 -52 7 -13 0 -6 5 19 14 56 18
61 18 62 -6z m43 11 c0 -5 -4 -10 -10 -10 -5 0 -10 5 -10 10 0 6 5 10 10 10 6
0 10 -4 10 -10z m50 1 c0 -6 -4 -13 -10 -16 -5 -3 -10 1 -10 9 0 9 5 16 10 16
6 0 10 -4 10 -9z m65 -14 c20 -16 14 -22 -33 -32 -32 -7 -32 -6 -21 19 14 29
27 32 54 13z m255 -30 c0 -16 -3 -17 -15 -7 -8 7 -15 16 -15 20 0 3 7 7 15 7
8 0 15 -9 15 -20z m-270 -33 c0 -2 -14 -4 -31 -4 -16 0 -28 4 -25 9 5 8 56 3
56 -5z m70 -39 c14 -7 31 -10 38 -8 7 3 10 -1 6 -11 -4 -11 -1 -16 10 -16 9 0
16 -5 16 -11 0 -5 4 -8 9 -4 17 10 22 -14 27 -125 2 -73 0 -111 -7 -116 -8 -4
-9 1 -4 15 4 12 2 21 -4 21 -6 0 -11 -6 -11 -14 0 -8 -7 -17 -16 -20 -9 -4
-15 -9 -12 -12 3 -3 -11 -22 -31 -42 -20 -20 -42 -49 -49 -64 -10 -24 -17 -28
-52 -28 -37 0 -41 2 -47 31 -6 34 -30 50 -43 29 -7 -11 -18 -5 -48 22 -22 20
-38 39 -34 42 3 3 0 6 -8 6 -9 0 -10 3 -1 13 6 8 8 17 5 20 -4 4 -8 23 -10 43
-3 44 -4 45 -53 54 -44 8 -92 -8 -127 -41 -20 -19 -26 -19 -64 -8 -23 7 -49
23 -58 37 -14 21 -21 23 -78 20 -53 -2 -61 -1 -50 10 8 8 41 17 75 21 59 7 84
20 132 73 16 16 19 15 58 -27 40 -43 41 -44 94 -38 41 4 56 2 66 -11 7 -9 21
-16 29 -16 11 0 3 14 -23 41 -37 38 -38 40 -12 30 22 -9 27 -8 27 4 0 8 -4 15
-9 15 -6 0 -22 11 -37 25 -28 26 -18 33 19 13 30 -16 45 -38 39 -60 -2 -10 1
-18 7 -18 6 0 11 7 11 16 0 9 3 14 8 12 4 -2 25 -12 47 -22 22 -10 48 -22 57
-27 10 -5 25 -9 33 -9 29 0 14 18 -32 38 l-48 20 35 1 35 1 -42 21 c-47 23
-55 43 -22 52 12 3 18 10 15 16 -9 14 101 3 134 -14z m290 15 c0 -5 -6 -13
-13 -17 -8 -4 -13 -21 -13 -37 1 -16 -5 -31 -12 -33 -9 -4 -12 5 -8 34 2 21 5
44 5 51 1 14 41 17 41 2z m-71 -40 c0 -10 -3 -8 -9 5 -12 27 -12 43 0 25 5 -8
9 -22 9 -30z m91 -47 c0 -19 -3 -24 -10 -17 -6 6 -8 18 -4 27 9 24 14 21 14
-10z m-80 -17 c0 -3 -4 -8 -10 -11 -5 -3 -10 -1 -10 4 0 6 5 11 10 11 6 0 10
-2 10 -4z m64 -38 c5 -14 5 -43 1 -64 l-8 -39 -8 35 c-3 19 -10 50 -14 69 -6
27 -5 33 6 29 8 -3 18 -16 23 -30z m-69 -47 c-4 -23 -11 -39 -15 -36 -7 5 -8
27 -1 90 1 5 6 4 12 -2 7 -7 8 -26 4 -52z m-890 -55 c19 -8 35 -17 35 -20 0
-7 -63 13 -74 24 -14 14 -1 13 39 -4z m355 -6 c0 -5 -12 -17 -27 -27 -16 -9
-33 -23 -40 -31 -18 -21 -75 5 -71 33 2 16 9 19 38 17 19 -2 46 1 60 7 33 13
40 13 40 1z m539 -22 c-7 -13 -14 -18 -16 -11 -3 7 2 19 9 27 18 20 22 12 7
-16z m46 -27 c-3 -6 -11 -11 -17 -11 -6 0 -6 6 2 15 14 17 26 13 15 -4z m-32
-46 c-3 -9 -8 -14 -10 -11 -3 3 -2 9 2 15 9 16 15 13 8 -4z m-56 -57 c-3 -8
-6 -5 -6 6 -1 11 2 17 5 13 3 -3 4 -12 1 -19z m-439 -81 c10 -8 15 -8 21 1 6
9 15 10 39 1 18 -6 32 -15 32 -19 0 -14 -41 -23 -53 -11 -14 14 -84 15 -92 1
-3 -5 -14 -10 -23 -10 -42 0 -88 -20 -89 -39 -2 -20 6 -24 64 -36 33 -7 46
-25 37 -50 -7 -17 14 -18 56 -5 23 7 12 14 -17 11 -6 -1 -14 3 -18 9 -3 5 1
10 9 10 9 0 16 6 16 13 1 8 4 7 13 -3 11 -13 51 -40 60 -40 8 0 2 46 -7 53 -8
6 -7 10 2 14 6 2 12 10 12 18 0 7 8 19 17 26 15 12 16 12 10 -4 -4 -11 -3 -16
3 -12 6 3 13 -1 16 -9 3 -9 12 -16 20 -16 18 0 17 -14 -1 -67 -8 -22 -12 -52
-10 -65 3 -12 1 -32 -4 -43 -5 -11 -17 -38 -27 -60 -10 -22 -17 -50 -15 -62 2
-16 -3 -23 -14 -23 -9 0 -15 -7 -13 -17 2 -10 -3 -18 -10 -18 -7 0 -16 -6 -21
-13 -12 -20 -78 -52 -106 -52 -32 0 -74 22 -98 50 -10 11 -22 18 -27 15 -6 -3
-10 0 -11 7 -1 7 -4 2 -8 -12 -9 -33 -33 -32 -36 1 -2 18 4 30 25 44 24 16 26
21 13 30 -13 10 -13 15 0 46 15 36 39 61 53 57 13 -3 54 21 54 32 0 5 -7 7
-15 4 -8 -4 -15 -1 -15 5 0 6 -16 11 -35 11 -22 0 -38 6 -41 15 -4 9 -19 15
-42 15 -28 0 -33 3 -24 12 9 9 8 16 -4 29 -11 12 -14 27 -9 48 7 34 16 37 63
20 17 -6 41 -9 54 -7 l23 3 -27 27 c-15 16 -28 41 -30 60 -2 25 -8 34 -25 36
-13 2 -23 8 -23 13 0 6 14 8 33 5 17 -3 48 -2 67 2 26 6 51 2 100 -16 35 -13
71 -28 78 -35z m-249 4 c11 -7 11 -10 0 -17 -32 -20 -88 -6 -73 18 7 11 55 10
73 -1z m621 -98 c-11 -17 -11 -17 -6 0 3 10 6 24 7 30 0 9 2 9 5 0 3 -7 0 -20
-6 -30z m-480 17 c0 -5 -4 -10 -9 -10 -6 0 -13 5 -16 10 -3 6 1 10 9 10 9 0
16 -4 16 -10z m470 -60 c0 -5 -2 -10 -4 -10 -3 0 -8 5 -11 10 -3 6 -1 10 4 10
6 0 11 -4 11 -10z m-57 -135 c-3 -9 -8 -14 -10 -11 -3 3 -2 9 2 15 9 16 15 13
8 -4z m-22 -52 c-12 -20 -14 -14 -5 12 4 9 9 14 11 11 3 -2 0 -13 -6 -23z
m-1171 -268 c0 -8 -5 -15 -11 -15 -5 0 -7 -5 -3 -11 3 -6 0 -15 -7 -20 -19
-11 -30 20 -15 44 13 21 36 23 36 2z m713 -232 c-20 -16 -33 -17 -33 -3 0 6 5
10 10 10 6 0 10 5 10 10 0 6 -7 10 -16 10 -8 0 -12 5 -9 10 4 6 15 3 30 -7 22
-16 22 -19 8 -30z m187 22 c0 -8 -2 -15 -4 -15 -2 0 -6 7 -10 15 -3 8 -1 15 4
15 6 0 10 -7 10 -15z m-35 -46 c-10 -15 12 -10 25 6 16 20 30 19 30 -1 0 -9 6
-14 13 -11 6 2 11 10 10 16 -2 6 4 11 12 11 13 0 20 -18 16 -42 0 -4 12 -5 27
-3 15 2 21 2 14 -2 -11 -4 -10 -8 1 -22 17 -19 28 -69 17 -76 -4 -2 -5 -15 -3
-28 6 -29 -23 -101 -37 -92 -5 3 -10 -1 -10 -11 0 -44 -87 -150 -132 -159 -15
-4 -28 -10 -28 -15 0 -5 -14 -16 -31 -24 -24 -12 -36 -13 -51 -5 -27 15 -97
-12 -136 -52 -16 -17 -42 -31 -58 -33 -15 -2 -30 -9 -32 -16 -3 -9 -7 -9 -14
1 -6 10 -7 6 -3 -11 4 -14 13 -30 21 -36 8 -6 14 -18 14 -27 0 -9 10 -23 22
-31 19 -14 20 -16 4 -22 -11 -4 -15 -13 -11 -25 7 -21 -6 -24 -36 -9 -14 8
-19 7 -19 -1 0 -7 -3 -9 -6 -6 -4 4 -1 13 6 22 7 9 10 18 6 22 -3 3 -6 0 -6
-8 -1 -9 -4 -8 -11 5 -8 13 -13 15 -19 6 -5 -8 -11 -1 -18 20 -7 17 -16 29
-22 25 -5 -3 -7 0 -4 8 3 8 0 18 -7 23 -8 4 -10 3 -5 -4 4 -7 2 -12 -3 -12 -6
0 -11 5 -11 10 0 6 -7 10 -15 10 -8 0 -14 6 -13 13 2 6 -5 12 -14 12 -9 0 -20
4 -25 9 -4 5 -3 6 3 3 7 -4 11 4 10 22 -1 16 -5 26 -10 23 -6 -3 1 10 14 28
13 19 24 48 25 65 0 16 5 31 10 33 6 2 16 14 23 28 7 13 18 24 25 24 18 1 61
41 76 72 7 14 21 29 30 32 28 11 62 33 82 55 11 11 28 21 39 21 14 0 18 5 13
16 -5 13 -2 15 15 9 13 -3 22 -2 22 4 0 5 9 12 19 16 13 4 18 12 15 23 -4 12
-3 13 3 4 8 -10 14 -10 35 0 13 8 23 18 21 24 -2 6 8 16 22 22 14 6 25 20 25
30 0 10 3 22 6 25 10 9 25 -3 19 -14z m-942 -46 c-7 -22 -42 -57 -65 -66 -27
-10 -22 7 15 47 34 38 60 48 50 19z m-223 -13 c0 -5 -7 -10 -16 -10 -8 0 -12
5 -9 10 3 6 10 10 16 10 5 0 9 -4 9 -10z m1400 -24 c0 -3 -4 -8 -10 -11 -5 -3
-10 -1 -10 4 0 6 5 11 10 11 6 0 10 -2 10 -4z m-390 -26 c-20 -13 -33 -13 -25
0 3 6 14 10 23 10 15 0 15 -2 2 -10z m-240 -170 c0 -5 -2 -10 -4 -10 -3 0 -8
5 -11 10 -3 6 -1 10 4 10 6 0 11 -4 11 -10z m-631 -157 c-12 -15 -12 -16 4
-10 10 4 23 7 28 7 6 0 7 5 4 10 -3 6 1 10 10 10 31 0 3 -21 -71 -55 -67 -30
-94 -55 -62 -55 9 0 9 -3 0 -12 -10 -10 -15 -10 -22 2 -13 21 12 59 65 97 38
28 64 31 44 6z m61 -48 c0 -14 -29 -35 -49 -35 -17 0 -13 28 7 39 25 15 42 13
42 -4z m-65 -62 c19 -21 32 -39 31 -41 -8 -7 -46 23 -52 40 -3 10 -12 18 -20
18 -8 0 -14 5 -14 10 0 20 22 9 55 -27z m1073 -86 c10 4 14 2 9 -3 -5 -5 -19
-9 -30 -9 -17 0 -21 -5 -19 -21 2 -13 -4 -24 -15 -28 -10 -3 -25 -9 -33 -12
-8 -4 -6 1 5 10 15 11 16 15 5 16 -8 0 0 12 20 29 19 16 36 25 38 21 2 -5 11
-6 20 -3z m359 -40 c15 6 24 -10 14 -26 -12 -18 -47 1 -54 30 -5 19 -4 19 11
6 9 -8 22 -12 29 -10z m-1472 -17 c3 -5 2 -10 -4 -10 -5 0 -13 5 -16 10 -3 6
-2 10 4 10 5 0 13 -4 16 -10z m374 -36 c15 10 13 -5 -4 -28 -7 -10 -18 -15
-23 -12 -5 3 -19 -9 -32 -26 -16 -21 -19 -32 -11 -38 7 -4 -13 -7 -44 -7 -38
0 -55 4 -55 13 0 7 10 14 22 16 14 2 30 17 42 40 16 32 21 35 31 22 10 -14 13
-12 30 10 12 16 22 21 26 14 4 -6 12 -7 18 -4z m666 -13 c-12 -12 -42 -23 -74
-27 -53 -7 -53 -7 -36 13 14 16 26 19 61 15 29 -3 44 -1 44 7 0 6 6 11 12 11
7 0 4 -8 -7 -19z m362 13 c-10 -10 -87 -22 -87 -13 0 4 12 10 28 12 47 7 66 7
59 1z m-1012 -103 c-5 -16 0 -20 22 -23 l28 -3 -32 -18 c-18 -9 -40 -17 -51
-17 -10 0 -27 -6 -37 -14 -16 -12 -17 -16 -6 -30 7 -9 9 -16 3 -16 -5 0 -15 7
-22 16 -20 23 -1 64 45 96 48 33 58 35 50 9z m-369 -575 c1 -17 -2 -23 -12
-19 -17 6 -18 15 -2 31 7 7 12 12 13 12 0 0 1 -11 1 -24z"/>
<path d="M2251 2094 c0 -11 3 -14 6 -6 3 7 2 16 -1 19 -3 4 -6 -2 -5 -13z"/>
<path d="M2555 2039 c-4 -6 -5 -12 -2 -15 2 -3 7 2 10 11 7 17 1 20 -8 4z"/>
<path d="M2348 1323 c7 -3 16 -2 19 1 4 3 -2 6 -13 5 -11 0 -14 -3 -6 -6z"/>
<path d="M1510 1614 c0 -10 5 -26 10 -34 8 -11 9 -7 4 15 -8 37 -14 45 -14 19z"/>
<path d="M2870 1510 c0 -5 5 -10 10 -10 6 0 10 5 10 10 0 6 -4 10 -10 10 -5 0
-10 -4 -10 -10z"/>
<path d="M1525 1481 c-3 -5 -1 -12 5 -16 12 -7 30 2 30 16 0 12 -27 12 -35 0z"/>
<path d="M2890 1446 c0 -6 16 -16 35 -22 34 -11 35 -11 22 9 -14 22 -57 31
-57 13z"/>
<path d="M2900 1400 c0 -4 7 -10 15 -14 8 -3 15 -10 15 -15 0 -6 -7 -8 -15 -4
-13 4 -14 2 -5 -19 10 -22 18 -24 71 -24 l60 0 -28 21 c-15 11 -32 21 -38 21
-5 1 -16 2 -22 3 -7 0 -13 7 -13 15 0 7 -9 16 -20 19 -11 3 -20 2 -20 -3z"/>
<path d="M1340 1345 c1 -26 2 -28 11 -12 8 14 8 22 0 30 -8 8 -11 3 -11 -18z"/>
<path d="M2890 1330 c0 -6 -7 -22 -16 -36 -16 -23 -18 -24 -40 -9 -13 8 -24
12 -24 8 0 -14 39 -33 54 -27 9 3 22 20 31 37 18 36 18 37 5 37 -5 0 -10 -5
-10 -10z"/>
<path d="M1258 1305 c-20 -26 -23 -45 -9 -45 9 0 51 52 51 64 0 15 -27 3 -42
-19z"/>
<path d="M1230 1310 c0 -5 4 -10 9 -10 6 0 13 5 16 10 3 6 -1 10 -9 10 -9 0
-16 -4 -16 -10z"/>
<path d="M3060 1296 c0 -8 5 -18 10 -21 8 -5 8 -11 1 -19 -16 -19 20 -51 37
-34 20 20 14 55 -13 72 -30 20 -35 20 -35 2z"/>
<path d="M3014 1285 c-5 -12 -9 -13 -14 -4 -5 7 -16 9 -26 5 -16 -6 -14 -9 10
-21 22 -12 31 -12 47 -2 20 13 21 28 1 35 -7 2 -15 -4 -18 -13z"/>
<path d="M2900 1279 c0 -5 5 -7 10 -4 6 3 10 8 10 11 0 2 -4 4 -10 4 -5 0 -10
-5 -10 -11z"/>
<path d="M3133 1270 c-1 -13 4 -20 16 -20 17 0 17 -3 3 -46 -16 -50 -9 -67 25
-58 19 5 21 11 16 37 -7 32 -7 32 67 12 24 -7 24 -7 5 8 -20 16 -20 16 2 17
13 0 28 -9 35 -20 7 -11 20 -20 28 -20 27 0 63 -31 51 -43 -8 -8 -5 -15 11
-24 21 -11 19 -12 -25 -13 -34 0 -49 -5 -54 -16 -4 -11 -8 -12 -13 -4 -5 8
-19 0 -44 -23 -41 -39 -43 -47 -18 -70 21 -19 62 -12 62 10 0 13 -3 13 -15 3
-16 -13 -45 -7 -45 10 0 15 88 53 105 46 9 -3 12 0 8 10 -5 13 0 15 48 19 19
1 56 35 39 35 -7 0 -10 6 -7 14 4 9 -5 19 -24 26 -16 7 -32 17 -35 21 -6 10
44 -7 61 -20 5 -5 23 -11 38 -15 25 -6 27 -5 18 13 -7 12 -48 31 -122 55 -61
20 -118 36 -128 36 -9 0 -34 9 -56 20 -22 11 -42 20 -45 20 -3 0 -6 -9 -7 -20z"/>
<path d="M946 1246 c7 -18 11 -18 39 -5 l20 9 -20 -2 c-11 -2 -26 1 -32 5 -9
6 -11 3 -7 -7z"/>
<path d="M1500 1202 c-16 -19 -30 -41 -30 -48 0 -7 -6 -14 -12 -17 -7 -2 -9
-8 -5 -13 4 -5 12 -2 17 6 8 12 10 10 10 -7 0 -25 14 -30 26 -11 4 6 -1 17
-11 25 -15 10 -16 16 -7 25 9 9 12 9 12 0 0 -7 5 -12 11 -12 6 0 8 7 5 16 -4
12 -2 15 9 10 18 -7 20 5 3 22 -12 12 -9 14 26 16 29 2 30 21 1 22 -17 1 -34
-9 -55 -34z"/>
<path d="M2807 1233 c-14 -14 -6 -21 25 -19 41 2 51 26 11 26 -17 0 -33 -3
-36 -7z"/>
<path d="M2913 1221 c-13 -11 -23 -22 -23 -25 0 -10 39 -6 45 5 4 6 13 8 21 5
17 -7 18 6 2 22 -16 16 -19 15 -45 -7z"/>
<path d="M1230 1210 c-8 -5 -11 -12 -7 -16 4 -4 13 -2 19 4 15 15 7 24 -12 12z"/>
<path d="M2990 1210 c0 -5 5 -10 11 -10 5 0 7 5 4 10 -3 6 -8 10 -11 10 -2 0
-4 -4 -4 -10z"/>
<path d="M1192 1190 c0 -14 2 -19 5 -12 2 6 2 18 0 25 -3 6 -5 1 -5 -13z"/>
<path d="M3108 1193 c7 -3 16 -2 19 1 4 3 -2 6 -13 5 -11 0 -14 -3 -6 -6z"/>
<path d="M3220 1168 c0 -12 38 -10 45 2 4 6 -5 9 -19 8 -15 -1 -26 -6 -26 -10z"/>
<path d="M2803 1150 c4 -23 17 -41 27 -35 5 3 11 1 14 -4 3 -5 -1 -12 -10 -15
-14 -5 -14 -8 0 -21 20 -21 26 -19 26 9 0 29 22 50 37 35 15 -15 25 4 16 28
-11 24 -114 28 -110 3z"/>
<path d="M470 1150 c-13 -9 -13 -10 0 -10 8 0 22 5 30 10 13 9 13 10 0 10 -8
0 -22 -5 -30 -10z"/>
<path d="M1563 1132 c-7 -4 -9 -13 -5 -19 6 -9 11 -6 20 7 13 21 6 26 -15 12z"/>
<path d="M3255 1120 c-22 -24 -55 -29 -35 -5 10 12 9 15 -8 15 -11 0 -22 -6
-25 -12 -3 -10 -7 -10 -20 1 -10 7 -17 9 -17 3 0 -5 10 -17 23 -26 l22 -17
-24 7 c-25 7 -23 -3 7 -39 15 -16 16 -16 34 3 10 11 24 20 31 20 7 0 25 14 41
30 19 20 34 29 46 25 10 -3 21 -1 25 5 4 6 -10 10 -38 10 -31 0 -49 -6 -62
-20z"/>
<path d="M3580 1130 c0 -5 7 -10 16 -10 8 0 12 5 9 10 -3 6 -10 10 -16 10 -5
0 -9 -4 -9 -10z"/>
<path d="M1587 1113 c-4 -3 -2 -12 4 -20 9 -10 8 -18 -5 -32 -16 -17 -16 -19
0 -25 22 -8 23 -7 30 42 4 32 3 42 -8 42 -8 0 -18 -3 -21 -7z"/>
<path d="M3628 1113 c7 -3 16 -2 19 1 4 3 -2 6 -13 5 -11 0 -14 -3 -6 -6z"/>
<path d="M3502 1093 c-6 -2 -10 -9 -7 -13 3 -5 12 -7 20 -3 10 3 15 -1 15 -11
0 -9 10 -20 22 -25 19 -7 19 -8 3 -14 -14 -6 -15 -10 -5 -22 11 -13 8 -15 -18
-15 -22 0 -35 -7 -43 -21 -9 -18 -7 -25 14 -43 46 -39 60 -88 30 -101 -29 -12
-127 -14 -134 -3 -8 13 -51 0 -46 -15 5 -16 57 -28 92 -22 23 4 34 0 45 -15 8
-11 21 -20 30 -20 11 -1 10 -5 -6 -18 -11 -10 -19 -23 -16 -30 2 -6 -3 -12
-12 -12 -9 0 -31 -8 -49 -17 -23 -13 -32 -25 -32 -43 0 -22 -4 -25 -35 -25
-32 0 -35 3 -35 28 1 15 -3 27 -7 27 -5 0 -13 12 -19 26 -9 26 -10 26 -29 9
-11 -10 -20 -27 -20 -37 0 -11 -4 -16 -10 -13 -5 3 -10 18 -10 31 0 29 -18 28
-34 -1 -31 -54 -61 -70 -72 -40 -11 29 -24 15 -24 -27 0 -40 1 -41 19 -24 11
10 48 21 86 27 80 11 90 16 74 35 -6 8 -9 18 -5 21 9 9 26 -16 26 -38 0 -9
-10 -29 -21 -44 -17 -21 -19 -29 -9 -35 7 -5 19 -6 26 -3 13 5 55 -14 65 -30
4 -6 16 -4 29 6 l23 16 -29 7 c-67 16 -67 50 0 39 22 -4 46 -12 53 -17 7 -5
17 -7 23 -3 6 4 18 1 26 -6 13 -10 11 -16 -11 -39 -19 -20 -23 -30 -15 -35 7
-4 15 -3 19 3 4 7 12 8 20 2 12 -7 12 -11 -2 -24 -8 -9 -21 -16 -28 -16 -8 0
-8 -4 1 -15 7 -9 19 -14 27 -11 16 7 17 -6 1 -22 -9 -9 -8 -12 7 -12 14 -1 7
-8 -20 -22 -48 -25 -41 -18 -50 -47 -6 -20 -4 -23 9 -18 19 8 56 -12 56 -30 0
-6 10 -19 23 -29 16 -12 17 -15 4 -10 -14 4 -17 2 -13 -12 8 -25 -42 -43 -124
-45 -60 -2 -110 -20 -110 -40 0 -4 15 -5 33 -2 17 3 43 7 57 7 14 1 30 6 37
11 8 6 20 0 36 -17 25 -27 70 -39 49 -13 -8 10 -5 20 13 41 13 15 29 25 34 21
6 -3 20 -1 32 5 18 10 19 14 6 28 -25 30 -27 39 -10 53 14 12 15 11 9 -9 -7
-20 -4 -22 31 -21 70 1 118 13 121 32 4 19 -10 22 -38 7 -13 -7 -28 -7 -46 0
-24 9 -26 14 -21 45 5 29 3 35 -13 35 -10 0 -17 -7 -16 -16 0 -9 -6 -20 -14
-24 -8 -4 -25 -12 -37 -18 l-22 -11 21 39 c12 21 30 41 41 44 13 3 18 10 13
21 -9 23 24 75 52 82 16 4 21 10 17 23 -3 11 2 20 16 26 18 9 19 11 6 22 -12
11 -18 7 -37 -23 -13 -21 -29 -34 -38 -33 -12 2 -21 -10 -30 -40 -8 -23 -18
-39 -23 -36 -15 9 -10 46 9 60 14 10 15 15 5 25 -7 7 -13 28 -13 46 0 59 -38
108 -70 88 -18 -11 -11 -27 9 -20 22 7 33 -5 22 -23 -10 -16 -70 -9 -82 9 -8
12 -10 12 -19 -1 -8 -13 -10 -12 -10 3 0 10 8 20 18 24 9 3 29 17 44 31 22 20
34 24 67 19 30 -4 41 -1 46 10 3 9 4 17 3 18 -21 13 -59 45 -53 45 4 0 3 6 -3
13 -18 21 12 54 54 61 24 5 34 12 30 21 -3 10 14 16 67 25 95 15 108 20 82 30
l-20 8 20 8 c26 10 59 43 50 52 -3 3 -9 2 -13 -3 -4 -6 -16 -18 -28 -28 -19
-16 -24 -16 -57 -2 -33 14 -37 14 -37 0 0 -9 9 -15 25 -15 28 0 34 -15 9 -24
-31 -12 -56 -6 -61 14 -6 24 -22 26 -38 4 -10 -14 -15 -15 -35 -4 -21 11 -22
13 -6 22 10 6 25 11 34 13 11 1 16 10 14 22 -4 26 45 66 72 59 13 -3 16 -2 8
6 -6 6 -25 12 -42 13 -26 2 -33 -2 -41 -24 -6 -14 -18 -34 -27 -44 -15 -17
-17 -17 -22 -1 -6 17 17 75 33 82 18 9 5 24 -16 18 -14 -3 -32 1 -43 9 -20 15
-31 17 -52 8z m118 -217 c0 -3 -4 -8 -10 -11 -5 -3 -10 -1 -10 4 0 6 5 11 10
11 6 0 10 -2 10 -4z m-72 -342 c2 -33 -1 -45 -10 -41 -7 2 -13 16 -13 30 1 15
-3 27 -8 27 -5 0 -4 7 3 15 20 24 27 18 28 -31z"/>
<path d="M3675 1091 c-7 -13 3 -17 45 -19 33 -2 34 -1 16 13 -22 17 -52 20
-61 6z"/>
<path d="M2944 1076 c-3 -7 -16 -12 -30 -10 -28 3 -30 -3 -9 -33 10 -14 12
-24 5 -28 -6 -4 -8 -11 -5 -16 10 -16 23 -10 30 14 4 12 18 37 32 55 23 31 24
32 3 32 -11 0 -23 -6 -26 -14z"/>
<path d="M3450 1075 c7 -8 16 -12 21 -9 13 8 1 24 -18 24 -13 0 -13 -3 -3 -15z"/>
<path d="M3127 1061 c-17 -6 -16 -8 3 -29 12 -12 26 -20 32 -16 6 4 7 9 0 13
-5 3 -11 13 -13 22 -3 11 -10 14 -22 10z"/>
<path d="M2802 1051 c2 -7 7 -12 11 -12 12 1 9 15 -3 20 -7 2 -11 -2 -8 -8z"/>
<path d="M3740 1040 c0 -5 10 -10 23 -10 18 0 19 2 7 10 -19 13 -30 13 -30 0z"/>
<path d="M3812 1028 c7 -13 16 -25 19 -28 3 -3 8 -13 12 -22 5 -13 17 -18 44
-17 l38 0 -25 17 c-14 9 -36 29 -50 44 -31 35 -56 39 -38 6z"/>
<path d="M1520 1005 c0 -5 5 -17 10 -25 5 -8 10 -10 10 -5 0 6 -5 17 -10 25
-5 8 -10 11 -10 5z"/>
<path d="M1588 1003 c6 -2 18 -2 25 0 6 3 1 5 -13 5 -14 0 -19 -2 -12 -5z"/>
<path d="M3084 995 c-10 -8 -17 -15 -14 -15 3 -1 23 -4 45 -6 21 -3 45 -10 52
-16 7 -5 24 -7 39 -4 l25 7 -23 18 c-21 17 -23 17 -35 2 -8 -10 -12 -12 -13
-3 0 6 -8 12 -18 12 -10 0 -23 5 -28 10 -7 7 -17 5 -30 -5z"/>
<path d="M3590 1000 c0 -5 5 -10 11 -10 5 0 7 5 4 10 -3 6 -8 10 -11 10 -2 0
-4 -4 -4 -10z"/>
<path d="M3730 1000 c-9 -6 -10 -10 -3 -10 6 0 15 5 18 10 8 12 4 12 -15 0z"/>
<path d="M2980 993 c0 -7 -7 -10 -15 -7 -8 4 -15 1 -15 -5 0 -11 13 -15 39
-11 13 1 13 -1 2 -14 -8 -9 -12 -19 -9 -21 6 -7 38 5 38 14 -1 12 -40 56 -40
44z"/>
<path d="M3925 980 c11 -12 19 -24 17 -27 -4 -6 44 -43 58 -43 15 0 -22 49
-37 50 -7 0 -13 4 -13 10 0 5 -10 15 -22 21 l-23 12 20 -23z"/>
<path d="M2890 965 c0 -8 5 -15 10 -15 6 0 10 7 10 15 0 8 -4 15 -10 15 -5 0
-10 -7 -10 -15z"/>
<path d="M980 954 c0 -8 5 -12 10 -9 6 4 8 11 5 16 -9 14 -15 11 -15 -7z"/>
<path d="M2938 953 c7 -3 16 -2 19 1 4 3 -2 6 -13 5 -11 0 -14 -3 -6 -6z"/>
<path d="M3830 935 c-11 -13 -10 -14 4 -9 9 3 16 10 16 15 0 13 -6 11 -20 -6z"/>
<path d="M2885 930 c-3 -5 -1 -10 4 -10 6 0 11 5 11 10 0 6 -2 10 -4 10 -3 0
-8 -4 -11 -10z"/>
<path d="M3910 930 c0 -5 5 -10 10 -10 6 0 10 5 10 10 0 6 -4 10 -10 10 -5 0
-10 -4 -10 -10z"/>
<path d="M3450 920 c-8 -5 -24 -11 -35 -15 -16 -5 -17 -8 -5 -15 8 -5 12 -12
8 -15 -10 -10 30 -45 52 -45 29 0 44 34 28 67 -15 30 -26 36 -48 23z"/>
<path d="M3864 917 c-3 -8 -20 -21 -37 -27 -18 -7 -26 -14 -19 -17 6 -2 12 -9
12 -14 0 -11 -22 -8 -31 5 -4 5 -15 6 -25 2 -16 -6 -16 -8 -4 -16 10 -7 -1
-10 -37 -10 -62 0 -129 -24 -136 -49 -2 -9 1 -28 6 -41 l10 -25 4 23 c3 12 10
22 16 22 15 0 47 36 47 53 0 8 3 8 9 -2 5 -7 14 -10 20 -7 6 4 11 0 11 -8 0
-10 9 -16 22 -16 17 0 19 -3 10 -12 -17 -17 -15 -29 3 -22 8 4 15 1 15 -5 0
-6 5 -11 11 -11 6 0 9 14 7 32 -3 31 -1 33 32 38 31 4 35 8 32 33 -3 22 2 30
26 40 27 11 29 14 16 31 -12 17 -14 17 -20 3z"/>
<path d="M2617 913 c-10 -17 -19 -108 -10 -98 9 9 33 82 33 99 0 8 -18 8 -23
-1z"/>
<path d="M2942 890 c-14 -22 -48 -27 -55 -7 -3 6 -6 2 -6 -10 -1 -22 3 -23 75
-23 62 0 75 3 71 14 -3 8 -1 17 6 19 9 3 9 7 0 17 -13 14 -33 5 -33 -16 0 -21
-18 -17 -25 6 -3 11 -9 20 -13 20 -4 0 -13 -9 -20 -20z"/>
<path d="M3160 887 c-27 -22 -22 -37 13 -36 27 0 29 2 12 9 -11 5 -14 9 -7 9
6 1 12 8 12 16 0 18 -10 19 -30 2z"/>
<path d="M3243 888 c-21 -7 -33 -17 -33 -29 0 -21 36 -44 44 -30 4 5 0 11 -6
14 -9 3 -6 11 10 26 18 18 29 34 20 30 -2 -1 -18 -6 -35 -11z"/>
<path d="M3047 862 c2 -10 -2 -24 -10 -31 -19 -15 -87 -27 -87 -14 0 5 -12 8
-27 7 -28 -1 -35 -15 -11 -21 87 -20 97 -20 125 -2 15 11 39 19 52 19 24 0 24
0 5 -15 -19 -14 -19 -14 2 -15 12 0 24 7 28 15 3 8 12 12 21 9 8 -3 15 -1 15
5 0 6 -11 11 -24 11 -12 0 -35 11 -50 25 -32 30 -46 32 -39 7z"/>
<path d="M1654 828 l-19 -23 23 19 c12 11 22 21 22 23 0 8 -8 2 -26 -19z"/>
<path d="M1579 813 c-13 -16 -12 -17 4 -4 16 13 21 21 13 21 -2 0 -10 -8 -17
-17z"/>
<path d="M1610 821 c0 -6 4 -13 10 -16 6 -3 7 1 4 9 -7 18 -14 21 -14 7z"/>
<path d="M1158 780 c-40 -42 -63 -79 -55 -87 3 -3 13 10 22 27 14 28 21 31 45
26 16 -3 32 -1 35 4 3 6 -1 10 -10 10 -9 0 -15 6 -12 13 2 7 17 11 35 9 23 -2
32 1 32 11 0 10 -7 13 -20 10 -11 -3 -20 0 -20 6 0 19 -14 12 -52 -29z"/>
<path d="M3260 804 c0 -14 -2 -15 -17 -3 -15 13 -15 12 -4 -8 8 -15 17 -20 29
-16 16 7 16 6 0 -19 -20 -31 -4 -44 22 -19 15 14 15 19 1 49 -16 34 -31 42
-31 16z"/>
<path d="M3170 794 c0 -9 -5 -12 -12 -8 -7 5 -9 2 -5 -9 3 -9 1 -17 -5 -19 -8
-3 -8 -9 0 -24 11 -18 12 -18 18 3 3 12 15 25 25 28 16 5 17 9 6 26 -14 23
-27 25 -27 3z"/>
<path d="M3890 795 c-7 -8 -16 -12 -21 -10 -4 3 -20 3 -35 -1 l-27 -7 22 -18
c21 -17 22 -20 6 -35 -17 -18 -16 -35 3 -42 7 -2 12 3 12 12 0 9 3 16 8 16 4
0 18 18 32 40 14 22 31 40 38 40 7 0 10 5 7 10 -9 15 -31 12 -45 -5z"/>
<path d="M4140 762 c0 -11 -11 -24 -25 -30 -30 -14 -32 -31 -4 -61 29 -31 44
-21 43 28 0 22 3 41 6 41 13 0 40 -48 40 -70 0 -12 5 -18 10 -15 15 9 -3 85
-20 85 -4 0 -10 9 -13 20 -6 25 -37 26 -37 2z"/>
<path d="M1245 760 c3 -5 11 -10 16 -10 6 0 7 5 4 10 -3 6 -11 10 -16 10 -6 0
-7 -4 -4 -10z"/>
<path d="M3197 753 c-14 -13 -6 -20 18 -15 14 2 28 8 31 13 6 10 -39 12 -49 2z"/>
<path d="M2486 741 c-4 -7 -5 -15 -2 -18 9 -9 19 4 14 18 -4 11 -6 11 -12 0z"/>
<path d="M3100 736 c0 -18 16 -29 30 -21 6 4 5 12 -4 21 -18 18 -26 18 -26 0z"/>
<path d="M1150 730 c0 -5 7 -10 15 -10 8 0 15 5 15 10 0 6 -7 10 -15 10 -8 0
-15 -4 -15 -10z"/>
<path d="M1491 719 c-21 -17 -22 -22 -10 -30 26 -16 30 -13 33 24 1 6 10 15
21 19 l20 6 -20 1 c-11 0 -31 -9 -44 -20z"/>
<path d="M3710 730 c-13 -9 -13 -11 -1 -19 17 -11 43 -3 38 12 -5 15 -20 18
-37 7z"/>
<path d="M1890 720 c0 -5 5 -10 11 -10 5 0 7 5 4 10 -3 6 -8 10 -11 10 -2 0
-4 -4 -4 -10z"/>
<path d="M3922 723 c-26 -5 -20 -23 9 -23 10 0 19 7 19 15 0 8 -1 14 -2 14 -2
-1 -13 -4 -26 -6z"/>
<path d="M1134 696 c-8 -22 3 -33 18 -18 9 9 9 15 0 24 -9 9 -13 7 -18 -6z"/>
<path d="M3130 700 c-8 -5 -12 -12 -9 -15 8 -8 39 5 39 16 0 11 -11 11 -30 -1z"/>
<path d="M2815 681 c-31 -18 -39 -41 -17 -48 6 -3 12 4 13 14 0 14 2 15 6 3 3
-8 11 -18 16 -22 11 -7 -15 -38 -32 -38 -14 0 -14 -6 0 -31 6 -12 17 -18 25
-15 19 7 18 -2 -2 -22 -15 -15 -15 -16 2 -23 15 -5 13 -8 -14 -13 -38 -9 -62
-30 -62 -56 0 -13 5 -18 15 -13 18 6 44 -23 45 -48 0 -9 7 -22 15 -29 19 -16
19 -31 0 -24 -11 4 -13 2 -10 -9 4 -8 -1 -18 -12 -22 -26 -11 -152 -14 -159
-4 -3 5 -19 -1 -36 -14 l-30 -22 59 -5 c32 -3 63 -1 70 3 11 8 53 -24 53 -41
0 -4 9 -8 19 -8 15 0 17 3 9 13 -7 9 -7 18 3 30 7 10 15 20 16 22 2 3 20 6 40
8 45 3 50 8 30 31 -21 23 -22 52 -3 52 9 0 12 -7 9 -19 -4 -15 2 -19 39 -24
73 -8 112 -4 116 14 2 13 -5 15 -41 12 -56 -5 -81 15 -72 58 7 32 -1 38 -20
13 -6 -9 -26 -18 -42 -19 l-31 -3 17 32 c10 17 27 32 40 34 16 3 20 8 16 21
-8 25 31 71 61 71 25 0 32 14 12 26 -7 5 -4 10 11 16 13 4 21 13 19 20 -6 18
-28 22 -28 4 0 -18 -15 -28 -43 -30 -16 -1 -24 -11 -30 -37 -5 -21 -19 -47
-32 -59 l-23 -22 2 26 c0 16 6 24 13 22 9 -4 11 4 6 26 -5 24 -1 34 14 47 19
15 20 18 5 51 -15 32 -16 33 -20 12 -6 -37 -27 -19 -26 22 1 20 1 36 0 35 0 0
-14 -8 -31 -18z"/>
<path d="M3870 691 c0 -6 11 -11 25 -11 16 0 25 -6 25 -16 0 -11 5 -14 16 -10
9 3 18 6 20 6 2 0 4 6 4 14 0 8 -10 14 -22 14 -13 0 -33 3 -45 7 -15 5 -23 3
-23 -4z"/>
<path d="M1220 679 c0 -5 5 -7 10 -4 6 3 10 8 10 11 0 2 -4 4 -10 4 -5 0 -10
-5 -10 -11z"/>
<path d="M3775 680 c3 -5 13 -10 22 -10 13 0 13 -3 3 -15 -14 -17 -3 -20 20
-5 13 8 12 11 -5 24 -23 17 -49 21 -40 6z"/>
<path d="M4032 681 c-9 -5 -2 -15 25 -33 21 -13 46 -27 56 -31 10 -4 16 -11
12 -16 -3 -5 0 -13 6 -16 5 -4 8 -14 5 -22 -4 -9 1 -17 14 -20 28 -7 25 -23
-5 -23 -14 0 -25 -5 -25 -11 0 -7 -7 -8 -17 -4 -10 3 -32 8 -48 10 -24 3 -33
0 -40 -18 -14 -31 -46 -28 -65 6 -14 26 -14 29 4 42 17 13 17 15 3 21 -10 3
-17 17 -17 30 0 31 -31 32 -54 2 -17 -22 -17 -14 0 27 11 27 -11 16 -28 -15
-17 -30 -48 -33 -48 -4 0 8 -5 14 -11 14 -6 0 -8 -7 -5 -16 3 -9 6 -27 6 -42
0 -20 3 -23 12 -14 7 7 28 9 56 5 42 -6 44 -5 37 15 -3 12 -2 22 3 22 19 0 21
-41 3 -59 -25 -25 -91 -37 -102 -19 -5 7 -9 11 -10 8 0 -3 -2 -22 -5 -42 l-4
-37 29 10 c22 8 28 15 24 27 -5 14 -3 14 18 -3 47 -38 65 -60 61 -76 -2 -13 3
-15 23 -12 30 6 30 8 5 40 -22 28 -26 53 -9 53 6 0 32 -21 59 -47 l49 -48 -19
-35 c-11 -19 -19 -29 -20 -22 0 6 -7 12 -15 12 -11 0 -13 -8 -9 -30 5 -22 2
-31 -9 -36 -14 -5 -14 -8 1 -26 31 -36 50 -41 63 -16 9 18 9 21 -1 11 -7 -6
-19 -9 -26 -6 -23 9 -16 43 16 80 35 40 38 75 9 102 -12 11 -18 24 -14 30 3 6
1 11 -5 11 -6 0 -9 4 -6 8 3 5 26 9 52 10 26 0 58 6 70 13 28 15 37 9 37 -25
0 -14 6 -31 13 -37 8 -6 11 -16 7 -23 -4 -6 -9 -20 -10 -31 -1 -11 -5 -32 -7
-46 -4 -19 2 -33 20 -50 35 -33 53 -73 42 -93 -14 -24 -31 -20 -18 4 9 17 7
25 -12 45 -27 29 -38 31 -38 7 0 -10 -7 -27 -15 -39 -8 -12 -12 -28 -9 -36 7
-19 37 -32 42 -18 2 6 8 11 14 11 5 0 -2 -15 -17 -32 -15 -18 -34 -33 -41 -33
-14 0 -48 -54 -40 -63 3 -2 17 5 32 17 15 11 35 21 45 21 11 0 18 3 17 8 -2 4
0 8 5 10 19 6 27 0 27 -18 0 -26 26 -26 40 -1 8 16 6 21 -10 26 -20 6 -26 25
-13 38 3 4 13 1 21 -6 13 -10 14 -9 8 9 -4 14 -1 26 9 34 8 7 15 21 15 30 0
10 4 20 10 22 5 2 6 9 1 17 -7 10 -13 11 -30 2 -17 -10 -20 -9 -14 5 3 9 1 19
-6 23 -8 5 2 17 29 35 47 31 50 43 13 48 -22 2 -29 9 -31 31 -2 15 -8 25 -13
22 -5 -4 -9 0 -9 8 0 8 -6 17 -13 20 -20 7 -19 66 1 99 13 23 14 31 4 37 -7 4
-11 18 -10 31 2 12 -3 25 -9 27 -9 3 -13 -8 -13 -36 0 -45 -7 -53 -38 -44 -20
5 -20 7 -5 29 14 22 14 24 -3 31 -9 3 -26 15 -36 25 -10 10 -25 18 -33 18 -8
0 -19 9 -25 20 -12 22 -18 24 -38 11z m218 -321 c0 -30 -21 -42 -35 -20 -3 6
-1 10 4 10 6 0 11 9 11 20 0 11 5 20 10 20 6 0 10 -13 10 -30z"/>
<path d="M815 671 c-7 -12 12 -24 25 -16 11 7 4 25 -10 25 -5 0 -11 -4 -15 -9z"/>
<path d="M3660 603 c0 -9 40 -36 45 -31 2 2 -8 11 -21 21 -13 10 -24 14 -24
10z"/>
<path d="M2455 579 c-10 -15 3 -25 16 -12 7 7 7 13 1 17 -6 3 -14 1 -17 -5z"/>
<path d="M2376 534 c-14 -15 -26 -30 -26 -35 0 -4 -9 -11 -20 -14 -11 -3 -20
-11 -20 -16 0 -20 58 22 78 56 25 42 23 44 -12 9z"/>
<path d="M3156 551 c-3 -5 -15 -7 -26 -4 -13 4 -20 0 -20 -10 0 -8 8 -14 17
-13 10 0 19 -6 21 -15 2 -13 -3 -15 -23 -12 -29 6 -31 1 -9 -32 18 -27 39 -33
47 -12 2 7 26 23 51 36 59 31 71 45 52 60 -11 10 -20 10 -36 1 -12 -6 -33 -14
-48 -16 -22 -4 -24 -3 -12 11 8 9 8 15 2 15 -6 0 -13 -4 -16 -9z"/>
<path d="M2410 525 c-13 -14 -19 -25 -13 -25 6 0 18 11 27 25 9 14 15 25 13
25 -2 0 -14 -11 -27 -25z"/>
<path d="M2688 533 c7 -3 16 -2 19 1 4 3 -2 6 -13 5 -11 0 -14 -3 -6 -6z"/>
<path d="M4254 525 c-10 -8 -14 -15 -8 -15 6 0 17 7 24 15 16 19 9 19 -16 0z"/>
<path d="M2245 510 c3 -5 10 -10 16 -10 5 0 9 5 9 10 0 6 -7 10 -16 10 -8 0
-12 -4 -9 -10z"/>
<path d="M2290 505 c0 -8 4 -15 10 -15 5 0 7 7 4 15 -4 8 -8 15 -10 15 -2 0
-4 -7 -4 -15z"/>
<path d="M1842 498 c-6 -6 -12 -19 -12 -27 0 -13 2 -13 16 1 9 9 15 21 13 27
-3 9 -8 8 -17 -1z"/>
<path d="M3310 495 c-7 -9 -10 -18 -6 -22 7 -8 56 17 56 29 0 14 -37 9 -50 -7z"/>
<path d="M3394 467 c18 -17 23 -29 19 -50 l-5 -28 25 23 c23 21 24 24 9 32
-21 12 -32 28 -26 38 3 4 -7 8 -21 8 l-26 0 25 -23z"/>
<path d="M1134 466 c-10 -8 -15 -18 -11 -22 4 -4 15 0 24 9 22 21 12 31 -13
13z"/>
<path d="M2424 466 c-3 -8 -21 -22 -40 -31 -19 -9 -32 -20 -29 -26 9 -14 28
-11 55 11 14 11 33 20 43 20 21 0 22 7 3 26 -18 18 -25 18 -32 0z"/>
<path d="M3690 465 c-7 -9 -8 -15 -2 -15 5 0 12 7 16 15 3 8 4 15 2 15 -2 0
-9 -7 -16 -15z"/>
<path d="M1848 456 c-10 -7 -18 -21 -18 -30 0 -9 -5 -16 -11 -16 -6 0 -9 -7
-5 -15 3 -9 0 -15 -9 -15 -8 0 -15 5 -15 10 0 14 -33 12 -49 -2 -14 -13 -14
-9 5 36 3 8 -3 16 -16 19 -16 4 -20 2 -16 -8 8 -23 -16 -30 -30 -10 -8 10 -16
16 -19 14 -2 -3 16 -27 40 -54 38 -41 45 -45 45 -27 0 28 35 30 50 3 7 -15 6
-23 -5 -35 -8 -8 -15 -19 -15 -25 0 -5 -6 -14 -12 -18 -7 -4 -18 -18 -25 -30
-12 -21 -12 -21 18 -9 17 7 38 24 47 38 9 14 23 23 30 21 6 -3 12 0 12 6 0 7
15 11 35 9 30 -2 35 -6 33 -23 -2 -15 -12 -21 -35 -23 -18 -2 -33 -8 -33 -14
0 -7 -4 -7 -13 1 -8 6 -17 8 -20 4 -4 -3 3 -11 16 -17 25 -13 30 -47 11 -75
-12 -17 -69 -48 -116 -64 -10 -4 -18 -11 -18 -16 0 -6 7 -8 15 -5 8 4 23 0 32
-7 14 -12 15 -11 9 9 -6 18 -4 22 14 22 11 0 23 -7 27 -16 4 -11 10 -8 25 17
10 17 28 33 39 36 22 6 24 14 7 33 -11 12 -10 12 3 2 13 -10 23 -10 43 -1 30
14 33 24 9 38 -14 8 -10 10 23 11 29 0 44 5 48 16 11 28 7 44 -9 38 -8 -4 -15
-1 -15 6 0 8 -8 10 -21 7 -20 -5 -20 -5 -4 13 10 11 22 17 26 14 5 -3 9 0 9 5
0 6 8 11 18 10 10 0 12 -3 5 -6 -22 -8 -14 -23 12 -23 23 0 31 -13 26 -42 0
-5 6 -8 15 -8 11 0 14 6 9 21 -5 15 4 10 29 -18 20 -21 35 -32 34 -25 -2 8 6
19 16 25 53 33 77 81 34 69 -17 -4 -20 -2 -15 11 3 8 -1 21 -9 27 -8 7 -14 19
-14 26 0 8 -11 14 -26 14 -14 0 -23 4 -19 10 3 6 1 10 -5 10 -6 0 -9 4 -6 9 3
5 -2 15 -11 22 -12 10 -14 10 -9 2 4 -8 1 -13 -8 -13 -9 0 -16 -8 -16 -17 0
-15 2 -16 10 -3 14 22 22 6 11 -24 -6 -14 -18 -26 -26 -26 -9 0 -13 -5 -10
-10 4 -6 15 -8 26 -5 23 8 25 -8 3 -26 -9 -7 -18 -9 -22 -3 -14 19 -93 65
-102 59 -14 -9 -12 -21 6 -39 8 -9 11 -16 5 -16 -5 0 -13 5 -16 10 -9 15 -25
12 -25 -4 0 -18 -18 -15 -50 7 -15 10 -21 21 -15 25 6 4 10 18 10 32 0 36 5
43 21 29 19 -16 30 -4 14 16 -15 18 -20 18 -42 1z m261 -169 c1 -5 -3 -5 -9
-2 -5 3 -10 16 -9 28 0 21 1 21 9 2 5 -11 9 -24 9 -28z"/>
<path d="M3240 460 c0 -5 -6 -10 -14 -10 -8 0 -16 -7 -20 -15 -3 -8 -12 -15
-21 -15 -8 0 -15 -7 -15 -15 0 -19 10 -19 24 -1 6 8 33 17 61 19 37 3 51 8 53
20 4 20 -18 23 -36 5 -9 -9 -12 -8 -12 5 0 9 -4 17 -10 17 -5 0 -10 -4 -10
-10z"/>
<path d="M4260 460 c0 -5 5 -10 11 -10 5 0 7 5 4 10 -3 6 -8 10 -11 10 -2 0
-4 -4 -4 -10z"/>
<path d="M2187 449 c-9 -6 -15 -14 -12 -19 3 -5 1 -11 -5 -15 -16 -10 -1 -25
25 -25 26 0 129 25 145 35 6 3 10 10 10 15 0 9 -25 7 -84 -6 -21 -5 -31 -2
-38 10 -10 19 -16 19 -41 5z"/>
<path d="M3080 445 c0 -8 5 -15 10 -15 6 0 10 7 10 15 0 8 -4 15 -10 15 -5 0
-10 -7 -10 -15z"/>
<path d="M1156 441 c-7 -10 18 -34 27 -25 7 8 -3 34 -13 34 -5 0 -11 -4 -14
-9z"/>
<path d="M1773 430 c-13 -5 -23 -12 -23 -16 0 -8 53 5 65 17 12 12 -12 11 -42
-1z"/>
<path d="M4070 431 c0 -4 11 -6 25 -3 14 2 25 6 25 8 0 2 -11 4 -25 4 -14 0
-25 -4 -25 -9z"/>
<path d="M4140 421 c0 -11 5 -23 10 -26 6 -3 10 -2 10 4 0 5 3 16 6 25 4 11 1
16 -10 16 -9 0 -16 -8 -16 -19z"/>
<path d="M3044 394 c-19 -24 -22 -25 -37 -10 -24 24 -30 19 -11 -9 16 -24 17
-24 45 -8 16 10 29 25 29 35 0 23 -1 23 -26 -8z"/>
<path d="M3095 400 c-10 -11 -13 -20 -7 -20 6 0 16 9 22 20 6 11 9 20 7 20 -2
0 -12 -9 -22 -20z"/>
<path d="M3770 412 c0 -6 -3 -17 -6 -25 -3 -10 2 -18 15 -22 12 -3 21 -13 21
-20 0 -8 4 -17 10 -20 5 -3 7 0 4 8 -3 8 2 17 11 21 11 4 15 12 11 22 -5 13
-4 14 7 6 10 -9 17 -8 26 1 10 9 15 8 27 -7 8 -11 14 -28 14 -38 0 -10 5 -18
10 -18 29 0 -12 93 -43 98 -10 2 -34 -6 -53 -17 -30 -18 -34 -19 -32 -4 2 9
-3 18 -9 20 -7 3 -13 0 -13 -5z"/>
<path d="M2710 385 c-7 -8 -20 -15 -30 -15 -10 0 -23 -7 -31 -16 -11 -13 -10
-15 3 -12 9 1 17 0 17 -4 2 -19 38 -43 58 -40 19 4 47 48 48 77 1 26 -46 33
-65 10z"/>
<path d="M1226 382 c-2 -4 -1 -14 4 -22 7 -11 11 -11 24 -1 9 7 13 17 10 22
-7 11 -31 12 -38 1z"/>
<path d="M2310 380 c0 -5 8 -13 17 -19 14 -8 11 -10 -19 -16 -20 -4 -46 -4
-57 0 -15 4 -23 1 -27 -10 -9 -22 5 -33 17 -15 9 13 10 13 8 0 -3 -35 1 -41
24 -34 21 6 21 6 5 -13 -23 -25 -22 -30 1 -36 20 -5 36 17 25 35 -11 17 28 50
52 44 24 -7 36 10 28 42 -4 14 -12 18 -30 14 -14 -2 -24 0 -24 7 0 6 -4 11
-10 11 -5 0 -10 -4 -10 -10z"/>
<path d="M950 371 c0 -5 5 -13 10 -16 6 -3 10 -2 10 4 0 5 -4 13 -10 16 -5 3
-10 2 -10 -4z"/>
<path d="M1357 374 c-3 -3 -3 -12 0 -20 2 -7 -11 -30 -31 -50 -20 -20 -36 -33
-36 -29 0 5 -7 0 -15 -11 -11 -14 -15 -15 -14 -4 3 35 -1 41 -23 35 -19 -6
-21 -5 -10 6 12 13 18 48 5 36 -3 -4 -12 -2 -20 5 -19 16 -25 5 -13 -26 8 -22
6 -30 -10 -46 -11 -11 -29 -20 -40 -20 -11 0 -20 -4 -20 -9 0 -5 -10 -7 -22
-5 l-23 5 23 -10 c12 -6 25 -17 28 -26 5 -12 9 -13 21 -4 11 9 17 9 26 0 9 -9
9 -14 -3 -21 -9 -6 -10 -10 -3 -10 6 0 19 7 28 16 13 13 14 19 4 25 -19 11 -7
19 37 24 22 2 39 4 39 5 0 1 10 3 23 6 63 11 86 44 71 98 -10 38 -12 40 -22
30z"/>
<path d="M4150 370 c-9 -6 -10 -10 -3 -10 6 0 15 5 18 10 8 12 4 12 -15 0z"/>
<path d="M3189 352 c10 -18 15 -20 31 -12 24 13 27 22 5 14 -8 -4 -23 0 -32 7
-15 13 -15 12 -4 -9z"/>
<path d="M3107 335 c-10 -14 -24 -25 -32 -25 -17 0 -20 -16 -6 -25 7 -4 62 21
90 41 3 3 -25 34 -31 34 -2 0 -11 -12 -21 -25z"/>
<path d="M3690 357 c0 -4 7 -15 16 -26 14 -16 20 -17 35 -8 11 7 19 19 19 27
-1 12 -4 11 -15 -4 -14 -19 -15 -19 -35 -1 -11 10 -20 15 -20 12z"/>
<path d="M2427 310 c-9 -11 -17 -25 -17 -31 0 -5 -4 -8 -9 -5 -5 3 -20 0 -33
-7 -24 -12 -24 -13 -6 -31 11 -12 16 -27 12 -38 -5 -16 3 -22 24 -16 4 1 6 8
4 15 -4 19 15 16 27 -4 8 -15 13 -15 36 -5 21 10 26 10 23 0 -3 -7 -20 -16
-39 -21 -19 -5 -38 -13 -43 -18 -14 -13 11 -12 36 2 12 7 23 7 27 2 3 -5 15
-13 26 -17 19 -7 19 -8 1 -21 -10 -8 -16 -21 -13 -29 4 -9 2 -18 -3 -21 -5 -3
-12 6 -16 20 -10 39 -33 30 -49 -20 -11 -33 -51 -47 -66 -23 -6 9 -9 7 -9 -9
0 -12 5 -25 10 -28 12 -7 180 42 180 53 0 5 -5 13 -12 20 -9 9 -8 12 5 12 26
0 33 -30 14 -62 l-16 -28 34 0 c24 0 35 5 35 15 0 8 6 15 12 15 7 0 2 7 -11
16 -15 11 -21 23 -18 35 4 14 0 19 -14 19 -10 0 -19 7 -19 15 0 8 -7 15 -15
15 -20 0 -32 30 -15 40 10 6 8 15 -6 39 -18 31 -41 44 -31 17 5 -14 -36 -29
-48 -18 -11 12 -4 50 11 56 8 3 12 11 9 17 -4 6 2 13 14 16 12 3 21 12 21 19
0 21 -33 17 -53 -6z"/>
<path d="M3897 280 c-9 -13 -20 -18 -31 -14 -9 3 -16 1 -16 -6 0 -6 4 -9 9 -5
5 3 13 0 16 -6 5 -6 12 -3 22 11 11 15 21 19 36 14 19 -6 20 -5 8 10 -18 21
-27 20 -44 -4z"/>
<path d="M3405 270 c-10 -11 -24 -20 -32 -20 -9 0 -6 -9 10 -26 28 -30 69 -26
84 9 22 52 -24 79 -62 37z"/>
<path d="M4320 259 c0 -5 5 -7 10 -4 6 3 10 8 10 11 0 2 -4 4 -10 4 -5 0 -10
-5 -10 -11z"/>
<path d="M1490 240 c-12 -12 -20 -33 -20 -55 0 -31 3 -35 25 -35 14 0 25 5 25
10 0 6 17 21 37 33 28 16 33 23 20 25 -9 2 -15 8 -12 13 4 5 -1 9 -9 9 -9 0
-16 5 -16 10 0 17 -29 11 -50 -10z"/>
<path d="M3063 249 c-12 -12 -60 -15 -95 -6 -17 5 -28 3 -28 -3 0 -5 4 -10 9
-10 5 0 11 -10 13 -22 2 -15 9 -22 21 -22 9 1 17 -2 17 -7 0 -5 -4 -9 -10 -9
-19 0 -10 -28 11 -33 17 -5 20 -2 15 16 -7 28 10 47 45 47 34 0 39 8 24 37 -8
15 -15 19 -22 12z"/>
<path d="M2053 235 c-7 -8 -13 -19 -13 -25 0 -5 -6 -10 -13 -10 -7 0 -18 -5
-25 -12 -6 -6 -26 -13 -43 -15 -37 -4 -59 -19 -59 -40 0 -10 6 -12 23 -7 l22
6 -24 -26 c-14 -14 -34 -26 -46 -26 -14 0 -26 -10 -34 -27 l-13 -28 26 24 c20
19 26 21 26 9 0 -9 -7 -21 -15 -28 -21 -17 -19 -30 5 -30 13 0 18 5 14 15 -5
11 -2 13 12 8 14 -5 16 -3 11 12 -6 15 -5 16 8 5 11 -9 19 -10 26 -3 8 8 5 13
-10 18 -12 3 -21 11 -21 16 0 11 59 7 79 -5 7 -4 15 -5 18 -2 3 3 12 1 19 -5
8 -7 14 -7 19 1 4 6 -6 13 -24 16 -17 4 -31 10 -31 14 0 5 -9 6 -21 3 -17 -5
-20 -2 -17 18 2 16 10 24 24 25 12 1 31 11 44 24 18 18 30 21 61 17 48 -6 54
9 20 46 -30 31 -31 31 -48 12z"/>
<path d="M2856 234 c-17 -17 -20 -32 -8 -51 9 -15 72 31 72 53 0 19 -44 18
-64 -2z"/>
<path d="M773 220 c-23 -9 -41 -68 -28 -89 10 -17 52 -13 59 4 3 9 19 21 36
26 16 6 30 15 30 20 0 4 -7 6 -16 2 -12 -4 -15 -2 -12 8 3 10 -36 43 -46 38 0
0 -11 -4 -23 -9z"/>
<path d="M2237 214 c-9 -10 2 -24 19 -24 8 0 14 7 14 15 0 15 -21 21 -33 9z"/>
<path d="M3950 199 c0 -28 -21 -79 -32 -79 -5 0 -8 -7 -8 -15 0 -23 16 -18 35
13 10 15 29 40 44 56 21 23 22 28 7 22 -12 -4 -23 0 -32 11 -12 17 -13 16 -14
-8z"/>
<path d="M3137 190 c-9 -11 -17 -25 -17 -31 0 -8 -5 -7 -15 1 -9 8 -15 8 -15
2 0 -6 -7 -12 -16 -14 -13 -2 -12 -7 6 -26 16 -17 19 -26 11 -36 -9 -10 -8
-15 5 -20 22 -9 24 -8 24 9 0 8 5 15 10 15 6 0 8 11 4 25 -4 16 -2 25 5 25 6
0 16 11 21 25 5 14 14 25 20 25 6 0 8 5 5 10 -10 16 -29 12 -48 -10z"/>
<path d="M3920 201 c0 -6 -12 -16 -27 -23 -16 -7 -32 -23 -38 -35 -6 -15 -15
-21 -26 -18 -10 3 -20 1 -24 -5 -3 -5 -24 -10 -47 -10 -35 0 -39 -2 -28 -15
10 -12 10 -15 -1 -15 -10 -1 -9 -4 4 -14 9 -7 17 -18 17 -24 0 -6 6 -13 13
-16 6 -4 1 -4 -11 -2 -27 5 -52 -2 -52 -15 0 -5 16 -9 36 -9 28 0 47 10 87 45
29 25 55 45 59 45 5 0 8 10 8 23 0 12 11 35 25 51 26 31 31 46 15 46 -5 0 -10
-4 -10 -9z"/>
<path d="M3620 183 c-46 -13 -60 -27 -60 -60 0 -18 5 -33 10 -33 6 0 10 4 10
9 0 5 9 13 20 16 11 3 20 12 20 20 0 7 5 15 11 17 17 6 6 36 -11 31z"/>
<path d="M3657 184 c-13 -13 -7 -26 8 -20 9 3 15 1 14 -7 -6 -46 24 -52 40 -7
9 26 8 30 -9 30 -10 0 -25 2 -32 5 -8 3 -17 2 -21 -1z"/>
<path d="M4346 181 c-4 -7 -5 -15 -2 -18 9 -9 19 4 14 18 -4 11 -6 11 -12 0z"/>
<path d="M440 175 c0 -5 5 -17 10 -25 5 -8 10 -10 10 -5 0 6 -5 17 -10 25 -5
8 -10 11 -10 5z"/>
<path d="M2763 165 c-7 -8 -13 -19 -13 -25 0 -6 -4 -9 -9 -5 -6 3 -27 -2 -48
-11 -34 -15 -39 -20 -35 -45 3 -23 0 -31 -19 -37 l-23 -9 26 -5 c23 -4 27 -1
30 21 2 18 10 27 26 29 12 2 22 7 22 11 0 5 14 14 30 21 24 10 37 10 56 1 52
-23 61 -1 16 42 -32 30 -42 32 -59 12z"/>
<path d="M1120 150 c-6 -12 -36 -33 -67 -48 -31 -15 -59 -34 -61 -42 -5 -13
-3 -13 11 -2 23 19 40 5 35 -29 -4 -23 -1 -29 13 -29 17 0 17 3 4 41 -19 52
-19 49 5 49 10 0 23 -7 28 -16 8 -14 11 -11 20 14 6 17 22 38 36 47 14 10 23
21 20 26 -9 16 -33 10 -44 -11z"/>
<path d="M2357 164 c-9 -9 4 -34 18 -34 8 0 11 8 8 20 -5 20 -15 25 -26 14z"/>
<path d="M2312 138 c3 -7 13 -15 24 -17 16 -3 17 -1 5 13 -16 19 -34 21 -29 4z"/>
<path d="M2043 133 c-19 -7 -16 -21 5 -19 12 1 16 -5 15 -21 -2 -13 2 -23 8
-23 6 0 9 -6 6 -13 -3 -8 -1 -20 4 -28 6 -10 9 -1 9 26 0 43 -26 86 -47 78z"/>
<path d="M467 124 c-3 -5 3 -21 14 -34 21 -29 25 -17 5 19 -7 13 -16 20 -19
15z"/>
<path d="M2965 120 c-7 -12 2 -30 16 -30 12 0 12 27 0 35 -5 3 -12 1 -16 -5z"/>
<path d="M230 110 c0 -5 5 -10 11 -10 5 0 7 5 4 10 -3 6 -8 10 -11 10 -2 0 -4
-4 -4 -10z"/>
<path d="M3190 105 c0 -8 -9 -15 -20 -15 -11 0 -20 -5 -20 -11 0 -7 11 -9 30
-5 30 6 30 5 14 -19 -15 -23 -15 -25 0 -25 9 0 19 -7 22 -15 7 -17 34 -21 34
-5 0 6 -6 10 -14 10 -21 0 -30 19 -16 35 10 12 9 20 -4 40 -19 29 -26 31 -26
10z"/>
<path d="M1185 90 c-10 -11 -23 -19 -29 -17 -6 2 -16 -3 -23 -12 -19 -25 -15
-36 6 -17 10 9 23 16 29 14 6 -2 17 6 26 17 12 16 17 18 27 8 7 -7 24 -13 39
-12 l25 1 -27 10 c-16 5 -28 14 -28 19 0 16 -26 10 -45 -11z"/>
<path d="M2347 103 c-12 -12 -7 -22 8 -17 8 4 15 10 15 15 0 11 -14 12 -23 2z"/>
<path d="M3685 91 c-6 -11 9 -23 19 -14 9 9 7 23 -3 23 -6 0 -12 -4 -16 -9z"/>
<path d="M3479 77 c-9 -7 -14 -18 -12 -24 3 -7 -2 -13 -11 -13 -8 0 -27 -5
-43 -12 -15 -6 -31 -11 -35 -10 -5 1 -8 -2 -8 -8 0 -14 56 -13 83 1 28 15 57
17 81 6 13 -6 21 -5 27 4 12 20 11 29 -4 29 -7 0 -18 9 -25 20 -14 23 -30 25
-53 7z"/>
<path d="M2744 59 c-4 -7 0 -9 14 -5 23 8 35 -5 26 -29 -8 -19 -58 -12 -86 13
-20 17 -23 10 -8 -18 8 -15 20 -18 60 -16 60 3 67 8 52 41 -12 26 -45 34 -58
14z"/>
<path d="M3875 60 c-3 -5 -1 -10 4 -10 6 0 11 5 11 10 0 6 -2 10 -4 10 -3 0
-8 -4 -11 -10z"/>
<path d="M3916 53 c-3 -10 -18 -26 -33 -35 l-28 -17 37 -1 c20 0 43 6 50 13 7
8 20 16 28 20 12 4 12 6 1 6 -8 1 -22 8 -32 17 -16 14 -18 14 -23 -3z"/>
<path d="M4013 58 c-18 -23 -22 -58 -7 -58 8 0 14 9 14 19 0 11 6 21 13 24 9
3 9 8 1 16 -8 9 -13 9 -21 -1z"/>
<path d="M1200 50 c0 -5 5 -10 11 -10 5 0 7 5 4 10 -3 6 -8 10 -11 10 -2 0 -4
-4 -4 -10z"/>
<path d="M1760 46 c0 -18 -13 -27 -54 -37 l-31 -7 35 -1 c50 -1 90 35 60 54
-5 3 -10 -1 -10 -9z"/>
<path d="M3070 53 c0 -5 4 -15 10 -23 11 -18 25 -7 17 15 -6 15 -27 21 -27 8z"/>
<path d="M4200 51 c0 -7 -6 -11 -13 -8 -8 3 -13 -3 -13 -14 0 -19 1 -18 20 1
11 11 17 23 13 26 -4 4 -7 2 -7 -5z"/>
<path d="M3120 40 c0 -13 37 -13 45 0 4 6 -5 10 -19 10 -14 0 -26 -4 -26 -10z"/>
<path d="M3660 41 c0 -6 5 -13 10 -16 6 -3 10 1 10 9 0 9 -4 16 -10 16 -5 0
-10 -4 -10 -9z"/>
<path d="M3032 28 c2 -6 10 -14 16 -16 7 -2 10 2 6 12 -7 18 -28 22 -22 4z"/>
<path d="M1531 14 c0 -11 3 -14 6 -6 3 7 2 16 -1 19 -3 4 -6 -2 -5 -13z"/>
<path d="M4205 10 c3 -5 8 -10 11 -10 2 0 4 5 4 10 0 6 -5 10 -11 10 -5 0 -7
-4 -4 -10z"/>
</g>
</svg>
